<?xml version="1.0" encoding="utf-8"?>
<!-- Generator: Adobe Illustrator 24.1.2, SVG Export Plug-In . SVG Version: 6.00 Build 0)  -->
<svg version="1.1" id="Layer_1" xmlns="http://www.w3.org/2000/svg" xmlns:xlink="http://www.w3.org/1999/xlink" x="0px" y="0px"
	 viewBox="0 0 100 100" style="enable-background:new 0 0 100 100;" xml:space="preserve">
<g id="Icons">
	<g>
		<circle cx="50.4" cy="40.8" r="12"/>
		<g>
			<path d="M50.4,1.5C23.6,1.5,1.8,23.3,1.8,50.1s21.8,48.5,48.5,48.5c26.8,0,48.5-21.8,48.5-48.5S77.1,1.5,50.4,1.5z M66.3,40.8
				c0,8.8-7.1,15.9-15.9,15.9c-8.8,0-15.9-7.1-15.9-15.9s7.1-15.9,15.9-15.9C59.1,24.8,66.3,32,66.3,40.8z M42.1,9.3
				c1.8-0.3,3.6-0.5,5.3-0.6c1.2,0,2,0.8,2.1,1.9c0.1,1.1-0.8,2-1.9,2.1c-1.6,0.1-3.2,0.3-4.8,0.5c-0.1,0-0.2,0-0.3,0
				c-1,0-1.8-0.7-1.9-1.6C40.3,10.5,41,9.5,42.1,9.3z M22.4,23.2c-0.6,0-1.1-0.2-1.5-0.7c-0.7-0.8-0.6-2.1,0.2-2.8
				c3.7-3.2,9.6-7.4,16.7-9.4c0.2,0,0.4-0.1,0.5-0.1c0.9,0,1.7,0.6,1.9,1.4c0.3,1.1-0.3,2.1-1.4,2.4c-6.4,1.8-11.8,5.7-15.2,8.6
				C23.3,23,22.8,23.2,22.4,23.2z M75.7,74.7c-0.4,0.4-0.9,0.6-1.4,0.6c-1.1,0-2-0.9-2-2c0-6.4-5.2-11.6-11.6-11.6H40
				c-6.4,0-11.6,5.2-11.6,11.6c0,1.1-0.9,2-2,2c-1.1,0-2-0.9-2-2c0-8.6,7-15.5,15.5-15.5h20.7c8.6,0,15.5,7,15.5,15.5
				C76.2,73.8,76,74.3,75.7,74.7z"/>
		</g>
	</g>
</g>
</svg>
