<svg xmlns="http://www.w3.org/2000/svg" width="37.292" height="39.893" viewBox="0 0 37.292 39.893"><g transform="translate(0 0)"><path d="M72.887,66.519H71.833a.963.963,0,0,1-.157-.017,1.2,1.2,0,0,1-.139-.052c-.009,0-.017-.009-.026-.009a4.88,4.88,0,0,1-3.775-6.382c0-.009,0-.009.009-.017H59.862a4.888,4.888,0,0,1-.044,3.3,4.816,4.816,0,0,1-2.642,2.764,7.036,7.036,0,0,1-.854.288c-.113.035-.218.061-.331.1a.548.548,0,0,1-.166.026H54.692a.961.961,0,0,1-.157-.017,1.2,1.2,0,0,1-.139-.052c-.009,0-.017-.009-.026-.009a4.865,4.865,0,0,1-3.932-5.632,6.528,6.528,0,0,1,.288-1.02,4.8,4.8,0,0,1-1.883-1.037,5.054,5.054,0,0,1-1.072-1.343.566.566,0,1,1,.994-.541,4.1,4.1,0,0,0,.837,1.046,3.591,3.591,0,0,0,1.6.828c.087.017.166.035.244.052.052.009.1.026.139.035a.569.569,0,0,1,.375.27.608.608,0,0,1,.052.462c-.052.148-.1.3-.148.445a6.805,6.805,0,0,0-.3,1,3.739,3.739,0,0,0,3.025,4.324,1.793,1.793,0,0,1,.218.061h.95l.27-.078c.253-.078.5-.148.724-.244a3.705,3.705,0,0,0,2.031-2.119,3.8,3.8,0,0,0-.148-2.99c0-.009-.009-.017-.009-.026a.586.586,0,0,0-.052-.1.852.852,0,0,1-.052-.122.593.593,0,0,1,.035-.541.572.572,0,0,1,.471-.262h9.555a.552.552,0,0,1,.462.244.561.561,0,0,1,.061.523c-.035.1-.078.192-.113.288-.061.157-.122.305-.174.453a3.7,3.7,0,0,0,.314,3.1,3.765,3.765,0,0,0,2.589,1.8,1.8,1.8,0,0,1,.218.061h.854a.953.953,0,0,1,.218-.061,3.764,3.764,0,0,0,2.912-4.926l-.139-.34a.561.561,0,1,1,1.037-.427l.148.357c0,.009.009.017.009.026a4.882,4.882,0,0,1-3.766,6.425c-.009,0-.017.009-.026.009a1.205,1.205,0,0,1-.14.052A.332.332,0,0,1,72.887,66.519Zm-1.343-.07Zm-17.14,0Zm18.779,0Zm-1.639,0Zm0,0Zm3.679-7.507a.557.557,0,0,1-.375-.139,3.983,3.983,0,0,0-2.694-.95H65.041a.567.567,0,1,1,0-1.133h7.114A5.07,5.07,0,0,1,75.6,57.958a.556.556,0,0,1,.044.793A.541.541,0,0,1,75.224,58.943Zm-12.153-1.09h-.113a.567.567,0,0,1,0-1.133h.113a.567.567,0,0,1,0,1.133Zm-2.293-.009H52.521c-.183,0-.366,0-.558-.009a2.7,2.7,0,0,1-2.624-2.424,21.552,21.552,0,0,1-.035-2.249c.009-.323.009-.654.009-.976a.575.575,0,0,1,.27-.48.561.561,0,0,1,.549-.026.6.6,0,0,0,.07.026c.044.017.1.035.148.061a3.933,3.933,0,0,0,1.787.418H58.79a.567.567,0,1,1,0,1.133H52.138a5.046,5.046,0,0,1-1.7-.288v.157a19.226,19.226,0,0,0,.035,2.136,1.568,1.568,0,0,0,1.569,1.395c.166.009.323.009.5.009H60.8a.558.558,0,1,1-.017,1.116ZM47.717,55.6a.566.566,0,0,1-.567-.567v-.218c.009-2.127.009-7.149.009-12,0-4.874,0-9.486.009-10.854v-.061a.426.426,0,0,0-.061-.026l-.1-.044c-1.186-.471-1.473-.593-2.711-1.107a.567.567,0,0,1,.436-1.046c1.238.523,1.517.636,2.694,1.116l.113.044a1.117,1.117,0,0,1,.758,1.125c-.009,1.369-.009,5.981-.009,10.854,0,4.847,0,9.861-.009,12v.218A.558.558,0,0,1,47.717,55.6Zm13.836-2.284a.567.567,0,1,1,0-1.133c3.871,0,7.873,0,11.822-.009A3.792,3.792,0,0,0,77.2,48.385c.017-2.136.017-4.3.017-6.391V39.44a.5.5,0,0,0-.471-.558c-1.543-.218-25.815-3.583-26.957-3.731a.564.564,0,0,1-.488-.558V31.1c0-.61-.017-.636-.584-.872-.549-.227-1.116-.453-1.674-.7-.68-.288-1.36-.584-2.04-.872-.663-.288-1.325-.567-2-.854-.436-.166-.68.017-.776.244a.483.483,0,0,0,.314.654.567.567,0,1,1-.436,1.046,1.609,1.609,0,0,1-.924-2.11,1.658,1.658,0,0,1,2.241-.872c.009,0,.009,0,.017.009.671.288,1.334.575,2.005.854s1.36.584,2.04.872c.549.235,1.116.471,1.665.689A1.71,1.71,0,0,1,50.438,31.1v3l26.478,3.67a1.624,1.624,0,0,1,1.447,1.674V42c0,2.092.009,4.263-.017,6.408a4.906,4.906,0,0,1-4.952,4.908Z" transform="translate(-41.072 -26.626)"/></g><g transform="translate(28.538 32.247)"><path d="M371.162,401.984h-.026a2.778,2.778,0,0,1-2.738-2.711,2.7,2.7,0,0,1,.776-1.927,2.786,2.786,0,0,1,1.953-.846h.009a2.756,2.756,0,0,1,1.962.811,2.666,2.666,0,0,1,.785,1.927,2.732,2.732,0,0,1-.811,1.944A2.658,2.658,0,0,1,371.162,401.984Zm-.017-4.351a1.664,1.664,0,0,0-1.16.506,1.586,1.586,0,0,0-.462,1.116,1.648,1.648,0,0,0,1.613,1.6h.017a1.607,1.607,0,0,0,1.6-1.6,1.622,1.622,0,0,0-1.613-1.622Z" transform="translate(-368.398 -396.5)"/></g><g transform="translate(11.441 32.256)"><path d="M175.029,402.073a2.69,2.69,0,0,1-1.918-.793,2.738,2.738,0,1,1,3.888-.017,2.7,2.7,0,0,1-1.935.811h-.035Zm.017-4.351h-.026a1.609,1.609,0,0,0-1.125,2.755,1.576,1.576,0,0,0,1.125.462h.017a1.588,1.588,0,0,0,1.142-.479,1.607,1.607,0,0,0,.462-1.151,1.592,1.592,0,0,0-1.6-1.587Z" transform="translate(-172.3 -396.598)"/></g></svg>