<svg xmlns="http://www.w3.org/2000/svg" xmlns:xlink="http://www.w3.org/1999/xlink" width="94" height="90.843" viewBox="0 0 94 90.843"><defs><style>.a{fill:url(#a);}.b{fill:#fff;}.c{fill:none;}.d{fill:#ccc;}</style><linearGradient id="a" y1="0.5" x2="1" y2="0.5" gradientUnits="objectBoundingBox"><stop offset="0" stop-color="#d2c0d6"/><stop offset="0.5" stop-color="#c2aac7"/><stop offset="1" stop-color="#b595b8"/></linearGradient></defs><g transform="translate(0 -0.194)"><g transform="translate(0 0.194)"><path class="a" d="M93.78,70.438c-.679-3.452-4.884-.22-4.884-.22a36.356,36.356,0,0,1-5.03,3.452c-4.994,2.515-11,5.8-21.021,6.114l.037,1.707h3.8v1.322A1.636,1.636,0,0,1,64.038,84.1l-1.1-.863.018.7c0,1.267-3.452,2.827-4.443,2.038l-5.067-4.223-6.885-4.939c-.5-.386-.845-3.966-.349-4.351l7.619-3.323,4.608-4.443c.991-.771,3.947-.679,3.947.569l-.4,6c18.268-.588,26.125-1.414,29.632-22.215l.018-39.711h0A9.144,9.144,0,0,0,82.489.2H9.125A8.9,8.9,0,0,0,2.662,2.839,9.373,9.373,0,0,0,0,9.467V75.01a9.144,9.144,0,0,0,9.143,9.143H48.322c4.7,4.186,11.934,6.885,20.067,6.885C82.544,91.038,94,82.886,94,72.843A13.023,13.023,0,0,0,93.78,70.438Z" transform="translate(0 -0.194)"/></g><path class="b" d="M60.2,123.809l13.733,4.535c13.641,0,25.923-11.034,26.327-14.467l-2.02-5.82L95.486,51.4H17v72.428H57.978Z" transform="translate(-13.879 -41.805)"/><g transform="translate(2.387 9.595)"><path class="c" d="M86.456,123.809H18.948A5.947,5.947,0,0,1,13,117.861V57.348A5.971,5.971,0,0,1,18.948,51.4H86.438a5.947,5.947,0,0,1,5.948,5.948v60.513A5.92,5.92,0,0,1,86.456,123.809Z" transform="translate(-13 -51.4)"/><path class="d" d="M20.646,117.843V57.348c0-3.286,4.645-5.948,10.391-5.948H23.455c-5.71,0-10.355,2.662-10.355,5.948v60.513c0,3.286,4.645,5.948,10.391,5.948h7.546C25.291,123.809,20.646,121.147,20.646,117.843Z" transform="translate(-13.082 -51.4)"/><g transform="translate(4.7 56.088)"><path d="M39.865,359.434H54.754a1.267,1.267,0,1,0,0-2.534H39.865a1.269,1.269,0,0,0-1.267,1.267A1.246,1.246,0,0,0,39.865,359.434Z" transform="translate(-38.598 -356.9)"/><path d="M54.756,388.6H39.867a1.267,1.267,0,1,0,0,2.534H54.756a1.269,1.269,0,0,0,1.267-1.267v-.018A1.265,1.265,0,0,0,54.756,388.6Z" transform="translate(-38.6 -382.78)"/></g></g><path d="M84.013,105.412c-4.994,2.515-12.576,3.929-22.582,4.241v5.728a1.511,1.511,0,0,1-2.442,1.193l-5.049-3.947-6.518-5.1a.967.967,0,0,1,0-1.524l6.518-5.1,5.049-3.947a1.511,1.511,0,0,1,2.442,1.193v5.875c18.268-.588,22.27-4.865,22.931-5.8l.018-50.488h0A8.427,8.427,0,0,0,75.953,39.3H8.39a8.29,8.29,0,0,0-5.93,2.479A8.4,8.4,0,0,0,0,47.837V108.2a8.427,8.427,0,0,0,8.427,8.427H44.5c4.314,3.855,11,6.334,18.47,6.334,13.035,0,23.592-7.509,23.592-16.762a12.446,12.446,0,0,0-.2-2.2A19.794,19.794,0,0,1,84.013,105.412Zm-44.632.789a12.788,12.788,0,0,0,2.166,7.032H8.427A5.038,5.038,0,0,1,3.4,108.2V47.69a5.014,5.014,0,0,1,5.012-5.012H27.888V78.956A2.445,2.445,0,0,0,29.3,81.2a2.614,2.614,0,0,0,1.1.257,2.443,2.443,0,0,0,1.542-.551l8.207-6.444a3.326,3.326,0,0,1,2.02-.7,3.2,3.2,0,0,1,2,.7L52.4,80.884a2.475,2.475,0,0,0,2.644.294,2.445,2.445,0,0,0,1.414-2.24V42.66H75.934a5.038,5.038,0,0,1,5.03,5.03l-.018,47.643c-4.333-3.617-10.777-5.893-17.955-5.893C49.956,89.439,39.381,96.93,39.381,106.2Z" transform="translate(0 -31.926)"/></g></svg>