<svg xmlns="http://www.w3.org/2000/svg" width="89.757" height="109.952" viewBox="0 0 89.757 109.952"><defs><style>.a{fill:#ffcf6b;}.b{fill:#fff;}</style></defs><path class="a" d="M100.5,41.752A41.752,41.752,0,1,0,36.938,77.324l-6.7,25.014,11.514-2.869,8.166,8.2L56.434,83.43c.772.037,1.582.074,2.354.074s1.582-.037,2.354-.074l6.511,24.242,8.166-8.2,11.514,2.869L80.639,77.324A41.818,41.818,0,0,0,100.5,41.752Z" transform="translate(-10.746)"/><g transform="translate(0 0.736)"><circle class="b" cx="40.207" cy="40.207" r="40.207" transform="translate(2.06 2.097)"/><path d="M42.267,2a42.259,42.259,0,0,0-22.4,78.1l-6.805,25.493,12.1-3.016,8.608,8.645L40.391,86.5a35.12,35.12,0,0,0,3.936,0l6.621,24.72,8.608-8.645,12.1,3.016L64.817,80.1A42.8,42.8,0,0,0,79.053,65.2,42.256,42.256,0,0,0,42.267,2ZM3.421,44.855V44.3a38.864,38.864,0,1,1,77.728,0c0,.4,0,.772-.037,1.177v.772c0,.184-.037.331-.037.478v.147l-.037.11a3.164,3.164,0,0,0-.037.589,2.429,2.429,0,0,1-.037.515v.11c-.074.809-.184,1.582-.331,2.428V50.7A38.9,38.9,0,0,1,3.9,50.668v-.11c-.147-.809-.257-1.582-.331-2.391v-.147a8.37,8.37,0,0,1-.074-.956,1.65,1.65,0,0,0-.037-.4,1.509,1.509,0,0,0-.037-.4v-.736Q3.421,45.131,3.421,44.855Z" transform="translate(0 -2)"/><path d="M101.548,80.471l-6.989-3.495L95,69.214l-7.578,1.839L82.787,64.8l-4.635,6.254-7.541-1.839.441,7.762L64.1,80.508l5.334,5.665-3.09,7.136,7.725.883,2.207,7.431,6.511-4.267,6.511,4.267,2.244-7.467,7.725-.883-3.09-7.136Z" transform="translate(-40.52 -41.699)"/><path class="b" d="M71.2,240.576l6.364,6.585,5.3-20.269A39.334,39.334,0,0,1,75.21,225.2Z" transform="translate(-45.009 -143.094)"/><path class="b" d="M152.456,236.166l8.865,2.06L155.288,217.7a41.5,41.5,0,0,1-7.688,3.016Z" transform="translate(-93.304 -138.353)"/><g transform="translate(10.472 9.344)"><path d="M40.718,140.635l-1.986.993.552,1.1,1.986-.993.7,1.435-4.819,2.465-.7-1.435,1.8-.92-.552-1.1-1.8.92-.7-1.435,4.856-2.465Z" transform="translate(-32.723 -98.074)"/><path d="M29.7,124.93l5.334-1.03.294,1.582-5.334,1.03Z" transform="translate(-29.246 -88.402)"/><path d="M28.773,100.009a3.266,3.266,0,0,1,.589-.809l.736.846a1.356,1.356,0,0,0-.331.515,1.2,1.2,0,0,0-.147.515,1.1,1.1,0,0,0,.368.92,1.982,1.982,0,0,0,1.288.4,5.116,5.116,0,0,0,1.067,0,1.125,1.125,0,0,0,.552-.221,1.1,1.1,0,0,0,.221-.515,1.122,1.122,0,0,0-.11-.589L32.01,101l-.037.552-1.1.074.221-2.244,2.722.221a3.122,3.122,0,0,1,.368,1.03,3.724,3.724,0,0,1,.074,1.1,2.493,2.493,0,0,1-.883,1.913,3.819,3.819,0,0,1-3.752,0,2.6,2.6,0,0,1-.92-1.067,2.692,2.692,0,0,1-.221-1.435A2.845,2.845,0,0,1,28.773,100.009Z" transform="translate(-28.466 -72.788)"/><path d="M39.38,75.979,37.357,75.1l-.515,1.14,2.023.883L38.2,78.59l-5-2.17.662-1.471,1.839.809.515-1.14-1.839-.846.662-1.471,5,2.17Z" transform="translate(-31.459 -55.783)"/><path d="M49.354,51.7l.736.846-1.177,1.361.736.662,1.067-1.177.809.7-1.067,1.177.809.7L52.518,54.5l.846.736L51.046,57.88,47,54.385Z" transform="translate(-40.182 -42.761)"/><path d="M69.358,37.406l-.184,1.1a1.861,1.861,0,0,0-1.214.221.716.716,0,0,0-.294.294.358.358,0,0,0,.037.331.248.248,0,0,0,.221.147.4.4,0,0,0,.294,0c.147-.037.331-.074.662-.147a2.8,2.8,0,0,1,1.435-.074,1.6,1.6,0,0,1,.92.736,1.427,1.427,0,0,1,.221.92,1.872,1.872,0,0,1-.331.956,3.447,3.447,0,0,1-.92.846,4.4,4.4,0,0,1-1.177.478,2.245,2.245,0,0,1-1.1-.037l.221-1.14a2.3,2.3,0,0,0,1.435-.221.71.71,0,0,0,.368-.368.521.521,0,0,0-.037-.4.625.625,0,0,0-.221-.221.913.913,0,0,0-.331-.037c-.11,0-.368.074-.625.11a2.986,2.986,0,0,1-1.545.147,1.343,1.343,0,0,1-.883-.662,1.279,1.279,0,0,1-.221-.883,2,2,0,0,1,.331-.883,2.624,2.624,0,0,1,.809-.736A2.751,2.751,0,0,1,69.358,37.406Z" transform="translate(-52.24 -33.691)"/><path d="M91.494,27.4l.147,1.214-1.177.294,1.1,4.12-1.582.4-1.1-4.12-1.287.331L87.3,28.5Z" transform="translate(-65.658 -27.4)"/><path d="M132.649,34.314a2.93,2.93,0,0,1,.625.552l-1.214.956a4.193,4.193,0,0,0-.662-1.1,2.4,2.4,0,0,0-1.067-.662,2.192,2.192,0,0,1-1.14-.662,2.084,2.084,0,0,1-.552-1.14,3.45,3.45,0,0,1,.147-1.582,4.12,4.12,0,0,1,.662-1.4,2.037,2.037,0,0,1,1.1-.736,2.4,2.4,0,0,1,1.435.037A2.449,2.449,0,0,1,133.6,29.79a3.372,3.372,0,0,1,.11,2.207,2.845,2.845,0,0,1-.736,1.324,2.768,2.768,0,0,1-1.1.625A2.463,2.463,0,0,1,132.649,34.314Zm-2.465-1.876a.75.75,0,0,0,.552.589.686.686,0,0,0,.736-.221,3.35,3.35,0,0,0,.552-1.251,2.658,2.658,0,0,0,.147-1.324.663.663,0,0,0-.552-.552.686.686,0,0,0-.736.221,3.42,3.42,0,0,0-.552,1.214A2.607,2.607,0,0,0,130.184,32.438Z" transform="translate(-91.767 -28.061)"/><path d="M155.912,43.118a2.31,2.31,0,0,1-.772.7,1.627,1.627,0,0,1-1.03.184,2.845,2.845,0,0,1-1.177-.478,2.306,2.306,0,0,1-1.1-1.4,2.006,2.006,0,0,1,.331-1.545l2.023-2.98,1.324.92-2.023,2.906a.849.849,0,0,0-.221.662.519.519,0,0,0,.294.441.539.539,0,0,0,.552.11,1.226,1.226,0,0,0,.515-.478l2.023-2.906,1.324.92Z" transform="translate(-106.423 -33.848)"/><path d="M169.26,62.245l.7-.809-.772-1.03-.956.478L167.2,59.56l5.26-2.06,1.177,1.545-3.348,4.6Zm.92-2.354.515.662,1.435-1.619Z" transform="translate(-116.166 -46.427)"/><path d="M185.965,79.308l-3.936,1.508.7,1.95-1.214.258L180.3,79.713l5.113-1.913Z" transform="translate(-124.447 -59.26)"/><path d="M191.391,103.082l-5.408.552-.184-1.582,5.408-.552Z" transform="translate(-127.924 -74.242)"/><path d="M190.413,124.414l-1.14-.331.221-1.214-4.194-.662.221-1.582,4.194.662.221-1.288,1.177.221Z" transform="translate(-127.608 -85.936)"/><path d="M181.783,148.244l-2.281-3.09-1.8-.92.7-1.435,1.8.92h3.863l-.773,1.582-2.354-.257,1.619,1.729Z" transform="translate(-122.803 -100.349)"/></g><g transform="translate(17.173 58.042)"><path d="M71.777,174.356a30.487,30.487,0,0,1-24.9-12.912A1.056,1.056,0,1,1,48.6,160.23a28.41,28.41,0,0,0,46.424,0,1.056,1.056,0,1,1,1.729,1.214A30.722,30.722,0,0,1,71.777,174.356Z" transform="translate(-46.683 -159.783)"/></g></g></svg>