<svg xmlns="http://www.w3.org/2000/svg" xmlns:xlink="http://www.w3.org/1999/xlink" width="117.003" height="106.363" viewBox="0 0 117.003 106.363"><defs><style>.a{fill:url(#a);}.b{fill:#fff;}.c{fill:#ccc;}.d{fill:#666;}</style><radialGradient id="a" cx="0.5" cy="0.5" r="0.521" gradientTransform="matrix(0.924, 0, 0, -1, 0.038, 1.022)" gradientUnits="objectBoundingBox"><stop offset="0.006" stop-color="#e6f3e9"/><stop offset="0.449" stop-color="#c9e6d2"/><stop offset="1" stop-color="#acdabb"/></radialGradient></defs><path class="a" d="M118.981,50.1a1.987,1.987,0,0,0,2-1.995v-.148a1.987,1.987,0,0,0-2-2h-.037V43a1.987,1.987,0,0,0,1.995-2V27.561a6.5,6.5,0,0,0-6.465-6.465H113a23.9,23.9,0,0,0-47.474.037H12.765A6.489,6.489,0,0,0,6.3,27.561V87.3a6.472,6.472,0,0,0,6.465,6.465h70.01l6.133,9.051a7.159,7.159,0,0,0,5.911,3.14,7.24,7.24,0,0,0,5.948-3.1l6.281-9.125h7.426a6.5,6.5,0,0,0,6.465-6.465V66.242a1.987,1.987,0,0,0-2-1.995V60.109h.037a1.987,1.987,0,0,0,2-2V54.419a1.987,1.987,0,0,0-2-2h-.037l.037-2.328Z" transform="translate(-3.972)"/><g transform="translate(0 8.904)"><path class="b" d="M106.808,85.764V140.7a4.052,4.052,0,0,1-4.064,4.064H94.912l-6.354,9.2a4.752,4.752,0,0,1-6.613,1.219,4.4,4.4,0,0,1-1.219-1.256l-6.207-9.162H9.164A4.052,4.052,0,0,1,5.1,140.7h0V85.764A4.076,4.076,0,0,1,9.164,81.7h93.58A4.1,4.1,0,0,1,106.808,85.764Z" transform="translate(-3.216 -60.42)"/><path d="M63.274,139.594H44.247a1.847,1.847,0,1,1,0-3.694H63.274a1.847,1.847,0,1,1,0,3.694Z" transform="translate(-26.736 -94.596)"/><path d="M75.872,161.194H44.247a1.847,1.847,0,1,1,0-3.694H75.872a1.847,1.847,0,1,1,0,3.694Z" transform="translate(-26.736 -108.216)"/><path d="M75.872,182.894H44.247a1.847,1.847,0,0,1,0-3.694H75.872a1.847,1.847,0,1,1,0,3.694Z" transform="translate(-26.736 -121.899)"/><rect class="c" width="100.932" height="4.396" transform="translate(2.66 22.684)"/><path d="M81.426,154.727h0a6.626,6.626,0,0,1-5.431-2.882l-5.653-8.313H5.948A5.944,5.944,0,0,1,0,137.585H0V82.611A5.936,5.936,0,0,1,5.948,76.7h93.58a5.968,5.968,0,0,1,5.948,5.948v12.3a1.847,1.847,0,0,1-3.694,0V82.611a2.223,2.223,0,0,0-2.217-2.217H5.948a2.223,2.223,0,0,0-2.217,2.217v54.937a2.223,2.223,0,0,0,2.217,2.217H72.263l6.761,9.975a2.9,2.9,0,0,0,2.4,1.293h0a2.959,2.959,0,0,0,2.4-1.256L90.7,139.8h8.793a2.223,2.223,0,0,0,2.217-2.217h0V118.263a1.847,1.847,0,1,1,3.694,0v19.322a5.968,5.968,0,0,1-5.948,5.948H92.62l-5.763,8.386A6.7,6.7,0,0,1,81.426,154.727Z" transform="translate(0 -57.267)"/><ellipse class="d" cx="20.098" cy="20.135" rx="20.098" ry="20.135" transform="translate(56.414 6.613)"/><circle cx="20.135" cy="20.135" r="20.135" transform="translate(56.525 1.589)"/><path class="c" d="M193.77,77.16a20.137,20.137,0,0,1-40.27.591v-.628a20.867,20.867,0,0,1,.185-2.623,20.142,20.142,0,0,0,39.937,0C193.7,75.387,193.77,76.273,193.77,77.16Z" transform="translate(-96.79 -55.88)"/><path d="M169.019,68.1A22,22,0,1,1,191,46.082v.037A22.059,22.059,0,0,1,169.019,68.1Zm0-40.27a18.306,18.306,0,1,0,18.288,18.324v-.037A18.329,18.329,0,0,0,169.019,27.831Z" transform="translate(-92.692 -24.1)"/><g transform="translate(6.576 28.817)"><path d="M19.2,129.28a1.4,1.4,0,0,1-1.4-1.4V122.7a1.4,1.4,0,1,1,2.808,0v5.172A1.4,1.4,0,0,1,19.2,129.28Z" transform="translate(-17.8 -114.207)"/><path d="M19.2,107.679a1.4,1.4,0,0,1-1.4-1.4V103.5a1.4,1.4,0,1,1,2.808,0v2.771A1.4,1.4,0,0,1,19.2,107.679Z" transform="translate(-17.8 -102.1)"/></g><circle cx="1.626" cy="1.626" r="1.626" transform="translate(6.354 46.661)"/><path class="b" d="M187.062,71.152a1.906,1.906,0,0,1,.406-1.33A1.157,1.157,0,0,1,188.5,69.3h3.805V65.352a1.4,1.4,0,0,1,.554-1.071,2.171,2.171,0,0,1,1.33-.48,1.968,1.968,0,0,1,1.33.48,1.461,1.461,0,0,1,.554,1.071v3.916h3.805a1.278,1.278,0,0,1,1.034.554,1.968,1.968,0,0,1,.48,1.33,1.935,1.935,0,0,1-.443,1.33,1.313,1.313,0,0,1-1.071.517h-3.805v3.99a1.365,1.365,0,0,1-.517,1.071,2.5,2.5,0,0,1-2.734,0,1.3,1.3,0,0,1-.554-1.071V73.036h-3.842a1.375,1.375,0,0,1-1.034-.48A1.953,1.953,0,0,1,187.062,71.152Z" transform="translate(-117.939 -49.133)"/><path d="M277.247,161.793a1.829,1.829,0,0,1-1.847-1.847v-3.4a1.847,1.847,0,1,1,3.694,0v3.4A1.829,1.829,0,0,1,277.247,161.793Z" transform="translate(-173.655 -106.45)"/><path d="M277.247,142.242A1.829,1.829,0,0,1,275.4,140.4v-.148a1.847,1.847,0,1,1,3.694,0v.148A1.807,1.807,0,0,1,277.247,142.242Z" transform="translate(-173.655 -96.172)"/></g></svg>