<svg xmlns="http://www.w3.org/2000/svg" xmlns:xlink="http://www.w3.org/1999/xlink" width="103" height="102.526" viewBox="0 0 103 102.526"><defs><style>.a{fill:url(#a);}.b{fill:#fff;}.c{fill:#ccc;}.d{fill:none;stroke:#fff;stroke-miterlimit:10;stroke-width:2.758px;}</style><linearGradient id="a" y1="0.509" x2="1" y2="0.509" gradientUnits="objectBoundingBox"><stop offset="0" stop-color="#acc8e2"/><stop offset="0.5" stop-color="#86b2d4"/><stop offset="0.509" stop-color="#85b2d4"/><stop offset="1" stop-color="#6ea5cd"/></linearGradient></defs><path class="a" d="M109.744,37.823A40.1,40.1,0,0,0,103.886,35,21.32,21.32,0,0,0,108.3,21.6a21.547,21.547,0,0,0-6.914-15.422A23.115,23.115,0,0,0,69.38,6.7,21.481,21.481,0,0,0,63.112,24.21q-.775-.614-1.615-1.163a23.225,23.225,0,0,0-29.013,2.886,21.487,21.487,0,0,0-1.982,28.3,34.148,34.148,0,0,0-5.966,2.908C20.572,59.448,17.6,64.4,17.6,68.71V86.587a9.757,9.757,0,0,0,9.886,9.585H59.881a71.944,71.944,0,0,0,8.142,4.868h0l.8.409,1.12.56,1.12-.56.8-.409A71.9,71.9,0,0,0,85.6,91.907c5.579-4.739,9.585-9.779,11.933-14.991h9.391a9.761,9.761,0,0,0,9.886-9.606V49.454A13.848,13.848,0,0,0,109.744,37.823Z" transform="translate(-13.809 0)"/><g transform="translate(0 2.289)"><path class="b" d="M94.106,53.92a38.587,38.587,0,0,0-11.8-4.7,18.449,18.449,0,1,0-20.462.022,39.96,39.96,0,0,0-8.249,2.843A18.637,18.637,0,0,0,35.11,35.331,18.455,18.455,0,0,0,24.879,69.148a37.946,37.946,0,0,0-11.8,4.7A10.771,10.771,0,0,0,8.1,82.222V100.7a5.7,5.7,0,0,0,5.686,5.686H56.412A5.7,5.7,0,0,0,62.1,100.7V86.487H93.352A5.7,5.7,0,0,0,99.038,80.8V62.32A10.04,10.04,0,0,0,94.106,53.92Z" transform="translate(-6.355 -14.358)"/><path class="c" d="M95.738,208.092v18.481a5.7,5.7,0,0,1-5.686,5.686H58.8v14.216a5.723,5.723,0,0,1-5.686,5.686H10.486A5.7,5.7,0,0,1,4.8,246.475V238.7a41.72,41.72,0,0,0,7.474,1.874c9.628,1.723,20.828,2.8,28-3.834,3.382-3.123,5.428-7.668,9.391-10.016s8.809-1.96,13.354-2.52c11.071-1.378,20.742-8.809,26.859-18.114a52.543,52.543,0,0,0,2.843-4.889A10.417,10.417,0,0,1,95.738,208.092Z" transform="translate(-3.766 -160.152)"/><path d="M50.1,105.155H7.474A7.492,7.492,0,0,1,0,97.681V79.2a12.558,12.558,0,0,1,5.816-9.886,36.608,36.608,0,0,1,8.9-3.985,20.259,20.259,0,1,1,33.924-18.8c.926-.366,1.939-.732,3.015-1.077A20.259,20.259,0,1,1,80.3,44.975c-.151.172-.323.323-.474.474a37.765,37.765,0,0,1,8.831,3.942,11.972,11.972,0,0,1,5.859,9.93V77.779a7.478,7.478,0,0,1-7.474,7.474H57.552V97.681A7.487,7.487,0,0,1,50.1,105.155ZM28.776,34.119A16.716,16.716,0,0,0,12.083,50.79a16.5,16.5,0,0,0,7.431,13.85L23,66.923l-4.071.948A36.738,36.738,0,0,0,7.754,72.308l-.108.065a8.988,8.988,0,0,0-4.092,6.849V97.7a3.9,3.9,0,0,0,3.9,3.9H50.078a3.9,3.9,0,0,0,3.9-3.9v-16H87.018a3.9,3.9,0,0,0,3.9-3.9V59.341a8.415,8.415,0,0,0-3.985-6.785l-.108-.043-.086-.065a36.7,36.7,0,0,0-11.2-4.437l-4.071-.948,3.489-2.283a16.5,16.5,0,0,0,7.431-13.85,16.693,16.693,0,1,0-33.386,0,16.5,16.5,0,0,0,7.431,13.85l3.446,2.262-4.006.969a36.525,36.525,0,0,0-7.862,2.714l-2.283,1.142-.28-2.563A16.768,16.768,0,0,0,28.776,34.119Z" transform="translate(0 -10.625)"/><path d="M115.834,135.237a12.535,12.535,0,0,1,5.04-.668c1.142.086,1.142-1.7,0-1.788a14.073,14.073,0,0,0-5.514.732c-1.077.366-.625,2.089.474,1.723Z" transform="translate(-90.03 -106.445)"/><path d="M80.885,169.013a12.561,12.561,0,0,1-5.1-8.96,11.675,11.675,0,0,1,4.006-9.994c.862-.775-.409-2.025-1.249-1.249a14.049,14.049,0,0,0,1.443,21.754c.948.646,1.852-.9.9-1.551Z" transform="translate(-58.097 -118.854)"/><path class="d" d="M101.7,148.9" transform="translate(-79.795 -119.117)"/><path class="b" d="M138.182,239.466s25.8-12.9,25.8-32.244V181.44l-25.8-6.44L112.4,181.44v25.8C112.378,226.565,138.182,239.466,138.182,239.466Z" transform="translate(-88.19 -139.595)"/><path d="M163.986,268v10.77c0,19.342-25.8,32.244-25.8,32.244S112.4,298.133,112.4,278.77V268c0,19.342,25.782,32.244,25.782,32.244S163.986,287.342,163.986,268Z" transform="translate(-88.19 -212.564)"/><path d="M131.77,227.2l-.8-.409a70.044,70.044,0,0,1-13.268-9.111c-8.831-7.733-13.505-16.284-13.505-24.727V165.792l27.57-6.893,27.57,6.893v27.182c0,8.443-4.674,16.994-13.505,24.727a70.892,70.892,0,0,1-13.29,9.111Zm-24.016-58.629v24.4c0,16.176,19.751,27.893,24.016,30.219,4.243-2.326,24.016-14.065,24.016-30.219v-24.4l-24.016-6.009Z" transform="translate(-81.756 -126.963)"/></g><g transform="translate(37.607 44.952)"><g transform="translate(3.575)"><path d="M208.216,226.274a.717.717,0,0,1-.711-.711V217.81a7.612,7.612,0,0,0-7.3-7.711,7.43,7.43,0,0,0-7.582,7.453v7.625c0,.775-1.422,1.551-1.422,0v-7.625a8.863,8.863,0,0,1,9-8.853,9.032,9.032,0,0,1,8.68,9.111v7.754A.645.645,0,0,1,208.216,226.274Z" transform="translate(-191.2 -208.698)"/></g><g transform="translate(6.656 3.339)"><path d="M216.377,238.071a.717.717,0,0,1-.711-.711v-7.388a4.372,4.372,0,1,0-8.745,0v7.409a.711.711,0,0,1-1.422,0v-7.409a5.772,5.772,0,0,1,11.545,0v7.409A.65.65,0,0,1,216.377,238.071Z" transform="translate(-205.5 -224.2)"/></g><g transform="translate(0 16.435)"><path d="M196.225,300.81H177.206A2.6,2.6,0,0,1,174.6,298.2v-10.6A2.6,2.6,0,0,1,177.206,285h19.019a2.6,2.6,0,0,1,2.606,2.606v10.6A2.6,2.6,0,0,1,196.225,300.81Zm-19-14.431a1.2,1.2,0,0,0-1.206,1.206v10.6a1.2,1.2,0,0,0,1.206,1.206h19a1.2,1.2,0,0,0,1.206-1.206v-10.6a1.2,1.2,0,0,0-1.206-1.206Z" transform="translate(-174.6 -285)"/></g><g transform="translate(9.477 20.333)"><path class="b" d="M221.529,311.091a1.976,1.976,0,0,1-1.982-1.982v-.9a2.9,2.9,0,0,1-.948-2.154,2.929,2.929,0,1,1,4.911,2.154v.9A1.976,1.976,0,0,1,221.529,311.091Zm0-6.591A1.54,1.54,0,0,0,220,306.051a1.513,1.513,0,0,0,.646,1.249.687.687,0,0,1,.3.582v1.228a.582.582,0,0,0,1.163,0v-1.228a.715.715,0,0,1,.3-.582,1.513,1.513,0,0,0,.646-1.249A1.54,1.54,0,0,0,221.529,304.5Z" transform="translate(-218.6 -303.1)"/></g></g><path d="M184.716,288.158h14.3l1.012.948.194,3.576v7.345l-.452,2.046-2.735.129-15.96.258-2.908-.474-.668-2.606v-8.422a14.5,14.5,0,0,1,.517-2.736c.194-.065,4.394-.323,4.394-.323Z" transform="translate(-139.268 -225.889)"/><g transform="translate(47.084 65.285)"><path class="b" d="M221.529,311.091a1.976,1.976,0,0,1-1.982-1.982v-.9a2.9,2.9,0,0,1-.948-2.154,2.929,2.929,0,1,1,4.911,2.154v.9A1.976,1.976,0,0,1,221.529,311.091Zm0-6.591A1.54,1.54,0,0,0,220,306.051a1.513,1.513,0,0,0,.646,1.249.687.687,0,0,1,.3.582v1.228a.582.582,0,0,0,1.163,0v-1.228a.715.715,0,0,1,.3-.582,1.513,1.513,0,0,0,.646-1.249A1.54,1.54,0,0,0,221.529,304.5Z" transform="translate(-218.6 -303.1)"/></g><path class="b" d="M223.992,307.7l-1.142.862-.151.948.646,1.723.366,1.874,1.034.582h.969s-.086-1.486.194-1.723a13.037,13.037,0,0,0,1.142-1.228c.043-.108-.151-1.443-.151-1.594a7.113,7.113,0,0,0-.625-1.1Z" transform="translate(-174.732 -241.424)"/></svg>