<svg xmlns="http://www.w3.org/2000/svg" width="94.556" height="78.047" viewBox="0 0 94.556 78.047"><defs><style>.a{fill:#fff;}.b{fill:#d1d3d3;}.c{fill:#02549a;}.d{fill:#1798d5;}.e{fill:#213c73;}.f{fill:#1d2c59;}.g{fill:#2eb6e9;}.h{fill:#007c47;}.i{fill:#026132;}.j{fill:#f36f2b;}.k{fill:#f6b818;}.l{fill:#b1d236;}.m{fill:#8fc447;}.n{fill:#60ba46;}.o{fill:#ee8022;}.p{fill:#f9a125;}.q{fill:#f05727;}.r{fill:#e7252a;}.s{fill:#b6202a;}.t{fill:#811525;}.u{fill:#6a0f10;}.v{fill:#580c19;}.w{fill:#5f0c3b;}.x{fill:#7d1a4e;}.y{fill:#ec3d94;}.z{fill:#bd1e6d;}.aa{fill:#d11384;}</style></defs><path class="a" d="M20.212,146.923l-1-9.215-4.442,9.215h-.759l-4.639-9.215-.843,9.215H7.081l1.251-12.164H10.68L15,143.318l4.105-8.559h2.292l1.364,12.164Z" transform="translate(-7.081 -69.047)"/><path class="a" d="M54.172,140.791a8.1,8.1,0,0,1-.387,2.582,5.222,5.222,0,0,1-1.167,1.972,5.133,5.133,0,0,1-1.947,1.259,7.683,7.683,0,0,1-2.713.44,7.477,7.477,0,0,1-2.727-.446,4.74,4.74,0,0,1-1.863-1.265,5.174,5.174,0,0,1-1.068-1.972,8.972,8.972,0,0,1-.344-2.57,8.6,8.6,0,0,1,.351-2.55,4.982,4.982,0,0,1,1.09-1.933,4.784,4.784,0,0,1,1.877-1.225,7.7,7.7,0,0,1,2.7-.426,7.883,7.883,0,0,1,2.721.426,4.924,4.924,0,0,1,3.093,3.159,7.877,7.877,0,0,1,.387,2.55m-2.643,0a8.807,8.807,0,0,0-.2-1.98,4.147,4.147,0,0,0-.638-1.488,2.844,2.844,0,0,0-1.108-.931,3.682,3.682,0,0,0-1.6-.321,6.631,6.631,0,0,0-1.516.164,3.005,3.005,0,0,0-1.109.465,2.118,2.118,0,0,0-.6,1.324,15.942,15.942,0,0,0-.189,2.766,10.594,10.594,0,0,0,.168,1.973,4.527,4.527,0,0,0,.561,1.527,2.688,2.688,0,0,0,1.045.99,3.413,3.413,0,0,0,1.621.347,6.577,6.577,0,0,0,1.642-.17A3.8,3.8,0,0,0,50.7,145a1.047,1.047,0,0,0,.365-.524,5.334,5.334,0,0,0,.26-.964,11.489,11.489,0,0,0,.155-1.271q.049-.7.049-1.449" transform="translate(-24.171 -68.997)"/><path class="a" d="M80.968,146.988l-8.7-8.481h-.028q.028,1.063.056,1.953c.01.253.016.507.021.76s.009.487.014.7.007.4.007.57v4.43H70.874V134.757h1.1l8.714,8.442q-.014-.971-.028-1.823c0-.244,0-.492-.007-.74s-.01-.487-.014-.714-.007-.435-.007-.623v-4.451h1.462v12.138H80.968Z" transform="translate(-38.343 -69.046)"/><path class="a" d="M104.907,146.709l-1.448-4.077-4.64.066-1.49,4.011H95.74l4.878-11.981,2.433-.406,4.54,12.388Zm-1.842-5.217-1.87-5.217-1.925,5.217Z" transform="translate(-50.529 -68.833)"/><path class="a" d="M125.194,141.917h-.843V146.9h-2.5v-12.06q.759-.052,1.715-.092t1.828-.039a5.978,5.978,0,0,1,3.4.8,2.83,2.83,0,0,1,1.16,2.5,4.032,4.032,0,0,1-.2,1.325,3.47,3.47,0,0,1-.52.983,3.263,3.263,0,0,1-.745.708,5.092,5.092,0,0,1-.886.485q.548.93,1.047,1.756a12.845,12.845,0,0,0,1,1.442,5.092,5.092,0,0,0,1.012.977,1.882,1.882,0,0,0,1.1.361h.085v.774a4.692,4.692,0,0,1-.682.151,5.775,5.775,0,0,1-.864.059,5.414,5.414,0,0,1-1.2-.118,2.456,2.456,0,0,1-1-.511,5.428,5.428,0,0,1-1.006-1.154,21.965,21.965,0,0,1-1.209-2.058Zm-.394-1.193a4.019,4.019,0,0,0,1.006-.124,2.6,2.6,0,0,0,.766-.308,1.688,1.688,0,0,0,.281-.236,1.419,1.419,0,0,0,.253-.38,2.583,2.583,0,0,0,.183-.6,5.033,5.033,0,0,0,.07-.918,3.176,3.176,0,0,0-.147-1.035,1.564,1.564,0,0,0-.443-.675,1.781,1.781,0,0,0-.731-.368,4.065,4.065,0,0,0-1-.111q-.155,0-.345.007a2.674,2.674,0,0,0-.344.033v4.719h.45Z" transform="translate(-63.323 -69.022)"/><path class="a" d="M151.3,142.206l-2.741-.131.126-.983h5.174v4.929q-.422.171-1.04.353t-1.336.328q-.717.144-1.483.243a11.705,11.705,0,0,1-1.483.1,5.9,5.9,0,0,1-2.446-.458,4.223,4.223,0,0,1-1.645-1.285,5.336,5.336,0,0,1-.922-1.986,10.711,10.711,0,0,1-.287-2.576,6.266,6.266,0,0,1,.495-2.543,5.344,5.344,0,0,1,1.4-1.914,6.287,6.287,0,0,1,2.155-1.2,8.607,8.607,0,0,1,2.755-.42q.38,0,.837.026c.3.018.606.039.906.066s.584.059.851.1a6.091,6.091,0,0,1,.654.124l-.422,1.756q-.31-.092-.787-.19t-1.005-.177q-.528-.08-1.048-.132t-.927-.053a7.867,7.867,0,0,0-1.272.1,2.475,2.475,0,0,0-1.09.466,1.412,1.412,0,0,0-.443.623,4.707,4.707,0,0,0-.274.977,9.793,9.793,0,0,0-.134,1.18c-.023.419-.035.83-.035,1.232a8.48,8.48,0,0,0,.645,3.709,2.135,2.135,0,0,0,2.033,1.285c.234,0,.481-.009.743-.027s.518-.041.771-.072.489-.064.709-.1.408-.07.567-.105v-3.236Z" transform="translate(-73.793 -68.997)"/><path class="a" d="M180.765,140.791a8.087,8.087,0,0,1-.387,2.582,5.227,5.227,0,0,1-1.167,1.972,5.135,5.135,0,0,1-1.947,1.259,7.683,7.683,0,0,1-2.713.44,7.483,7.483,0,0,1-2.728-.446,4.741,4.741,0,0,1-1.863-1.265,5.174,5.174,0,0,1-1.068-1.972,8.973,8.973,0,0,1-.344-2.57,8.607,8.607,0,0,1,.351-2.55,4.977,4.977,0,0,1,1.09-1.933,4.786,4.786,0,0,1,1.877-1.225,7.7,7.7,0,0,1,2.7-.426,7.886,7.886,0,0,1,2.721.426,4.922,4.922,0,0,1,3.092,3.159,7.864,7.864,0,0,1,.387,2.55m-2.643,0a8.838,8.838,0,0,0-.2-1.98,4.165,4.165,0,0,0-.638-1.488,2.842,2.842,0,0,0-1.109-.931,3.684,3.684,0,0,0-1.6-.321,6.641,6.641,0,0,0-1.516.164,3,3,0,0,0-1.108.465,2.118,2.118,0,0,0-.6,1.324,15.889,15.889,0,0,0-.189,2.766,10.6,10.6,0,0,0,.168,1.973,4.537,4.537,0,0,0,.561,1.527,2.688,2.688,0,0,0,1.045.99,3.415,3.415,0,0,0,1.621.347,6.577,6.577,0,0,0,1.641-.17A3.8,3.8,0,0,0,177.3,145a1.044,1.044,0,0,0,.365-.524,5.378,5.378,0,0,0,.26-.964,11.6,11.6,0,0,0,.154-1.271q.047-.7.048-1.449" transform="translate(-86.209 -68.997)"/><rect class="b" width="6.854" height="6.853" transform="translate(67.913 10.827)"/><rect class="b" width="5.162" height="5.161" transform="translate(76.497 5.034)"/><rect class="b" width="7.961" height="7.96" transform="translate(64.248 0)"/><path class="b" d="M42.21,74.613V27.132H61.4l9.24,9.238,9.237-9.238h9.818V36.5h9.369v.316c0,19.991,0,37.481,0,37.481v.316l-19.188,0-9.236-9.238L61.4,74.616Zm18.741-10V45.425l9.686,9.686,9.684-9.686V64.614h8.738V37.134H80.137l-9.5,9.5-9.5-9.5H52.212V64.614Z" transform="translate(-24.296 -16.304)"/><path class="c" d="M42.83,55.5V46.125H52.2Z" transform="translate(-24.6 -25.612)"/><path class="d" d="M42.83,55.5l9.37-9.371V55.5Z" transform="translate(-24.6 -25.612)"/><path class="e" d="M42.83,27.751v9.37H52.2Z" transform="translate(-24.6 -16.608)"/><path class="f" d="M52.2,37.121v-9.37H42.83Z" transform="translate(-24.6 -16.608)"/><path class="c" d="M61.2,37.122h9.371V27.751Z" transform="translate(-33.604 -16.608)"/><path class="e" d="M61.2,37.122l9.371-9.371H61.2Z" transform="translate(-33.604 -16.608)"/><path class="d" d="M88.95,37.121l-9.37-9.369v9.37Z" transform="translate(-42.609 -16.608)"/><path class="g" d="M88.95,55.5V46.125H79.579Z" transform="translate(-42.609 -25.612)"/><path class="h" d="M42.835,101.249,52.2,110.62v-9.368Z" transform="translate(-24.602 -52.626)"/><path class="i" d="M52.2,110.62l-9.369-9.371v9.37Z" transform="translate(-24.602 -52.626)"/><path class="j" d="M79.584,110.622v-9.369h9.37Z" transform="translate(-42.611 -52.627)"/><path class="k" d="M79.582,64.5l9.37,9.37H79.58Z" transform="translate(-42.609 -34.618)"/><path class="l" d="M52.2,73.871h-9.37V64.5Z" transform="translate(-24.6 -34.617)"/><path class="g" d="M52.2,73.871,42.83,64.5H52.2Z" transform="translate(-24.6 -34.617)"/><path class="m" d="M42.831,92.247V82.876H52.2Z" transform="translate(-24.6 -43.622)"/><path class="n" d="M42.831,92.247l9.37-9.371v9.37Z" transform="translate(-24.6 -43.622)"/><path class="n" d="M70.578,110.622H61.207v-9.369Z" transform="translate(-33.606 -52.627)"/><path class="m" d="M70.578,110.622l-9.371-9.369h9.371Z" transform="translate(-33.606 -52.627)"/><path class="o" d="M88.953,92.248h-9.37V82.877Z" transform="translate(-42.611 -43.622)"/><path class="p" d="M88.953,92.248l-9.37-9.371h9.37Z" transform="translate(-42.611 -43.622)"/><path class="q" d="M144.074,55.5l0-9.371H134.7Z" transform="translate(-69.623 -25.612)"/><path class="j" d="M144.074,55.5l-9.37-9.371V55.5Z" transform="translate(-69.623 -25.612)"/><path class="r" d="M147.1,33.972h-6.222V27.75Z" transform="translate(-72.648 -16.607)"/><path class="q" d="M140.875,27.751H147.1v6.222Z" transform="translate(-72.647 -16.608)"/><path class="o" d="M162.239,16.391V20.92h-4.53Z" transform="translate(-80.897 -11.041)"/><path class="p" d="M157.709,20.921V16.392h4.53Z" transform="translate(-80.897 -11.041)"/><path class="s" d="M141.019,6.518v7.329h-7.33Z" transform="translate(-69.126 -6.202)"/><path class="t" d="M133.691,13.849V6.521h7.329Z" transform="translate(-69.127 -6.204)"/><path class="s" d="M125.7,27.751v9.37h-9.371Z" transform="translate(-60.617 -16.608)"/><path class="t" d="M125.7,27.751l-9.371,9.371v-9.37Z" transform="translate(-60.617 -16.608)"/><path class="u" d="M97.954,37.121l9.369-9.369v9.37Z" transform="translate(-51.614 -16.608)"/><path class="v" d="M97.955,55.5V46.125h9.369Z" transform="translate(-51.614 -25.612)"/><path class="w" d="M134.7,101.251l9.371,9.369H134.7Z" transform="translate(-69.62 -52.627)"/><path class="x" d="M144.069,110.62l-9.371-9.369h9.37Z" transform="translate(-69.62 -52.627)"/><path class="x" d="M107.321,110.622v-9.369H97.952Z" transform="translate(-51.613 -52.627)"/><path class="y" d="M107.322,64.5l-9.368,9.37h9.369Z" transform="translate(-51.614 -34.618)"/><path class="p" d="M134.7,73.871h9.369l0-9.371Z" transform="translate(-69.622 -34.617)"/><path class="o" d="M134.7,73.871l9.371-9.371H134.7Z" transform="translate(-69.622 -34.617)"/><path class="k" d="M144.071,92.247V82.876H134.7Z" transform="translate(-69.622 -43.622)"/><path class="z" d="M144.071,92.247,134.7,82.876v9.37Z" transform="translate(-69.622 -43.622)"/><path class="x" d="M116.324,110.622H125.7v-9.369Z" transform="translate(-60.616 -52.627)"/><path class="z" d="M116.324,110.622l9.371-9.369h-9.371Z" transform="translate(-60.616 -52.627)"/><path class="z" d="M97.952,92.248h9.369V82.877Z" transform="translate(-51.613 -43.622)"/><path class="aa" d="M97.952,92.248l9.369-9.371H97.953Z" transform="translate(-51.613 -43.622)"/></svg>