<svg xmlns="http://www.w3.org/2000/svg" width="79.167" height="50" viewBox="0 0 79.167 50"><defs><style>.a{opacity:0.07;}.b{fill:#fff;}.c{fill:#eb001b;}.d{fill:#f79e1b;}.e{fill:#ff5f00;}</style></defs><path class="a" d="M72.917,0H6.25A6.138,6.138,0,0,0,0,6.25v37.5A6.268,6.268,0,0,0,6.25,50H72.917a6.138,6.138,0,0,0,6.25-6.25V6.25A6.268,6.268,0,0,0,72.917,0Z"/><path class="b" d="M71.833,1A4.179,4.179,0,0,1,76,5.167v37.5a4.179,4.179,0,0,1-4.167,4.167H5.167A4.179,4.179,0,0,1,1,42.667V5.167A4.179,4.179,0,0,1,5.167,1H71.833" transform="translate(1.083 1.083)"/><circle class="c" cx="14.489" cy="14.489" r="14.489" transform="translate(16.559 10.673)"/><ellipse class="d" cx="14.834" cy="14.489" rx="14.834" ry="14.489" transform="translate(33.118 10.673)"/><path class="e" d="M28.5,18.175A14.223,14.223,0,0,0,22.25,6.3,14.8,14.8,0,0,0,16,18.175,14.506,14.506,0,0,0,22.25,30.05,14.223,14.223,0,0,0,28.5,18.175Z" transform="translate(17.333 6.825)"/></svg>