<svg xmlns="http://www.w3.org/2000/svg" width="79.167" height="50" viewBox="0 0 79.167 50"><defs><style>.a{opacity:0.07;}.b{fill:#fff;}.c{fill:#142688;}</style></defs><path class="a" d="M72.917,0H6.25A6.138,6.138,0,0,0,0,6.25v37.5A6.268,6.268,0,0,0,6.25,50H72.917a6.138,6.138,0,0,0,6.25-6.25V6.25A6.268,6.268,0,0,0,72.917,0Z"/><path class="b" d="M71.833,1A4.179,4.179,0,0,1,76,5.167v37.5a4.179,4.179,0,0,1-4.167,4.167H5.167A4.179,4.179,0,0,1,1,42.667V5.167A4.179,4.179,0,0,1,5.167,1H71.833" transform="translate(1.083 1.083)"/><g transform="translate(10.417 16.667)"><path class="c" d="M53.542,12.375h-.625a27.249,27.249,0,0,0-2.083,6.25h3.958C54.167,15.5,54.167,14.042,53.542,12.375Zm6.042,12.292H56.042c-.208,0-.208,0-.417-.208l-.417-1.875L55,22.167H50c-.208,0-.417,0-.417.417l-.625,1.875a.2.2,0,0,1-.208.208H44.375l.417-1.042L50.833,9.458C50.833,8.417,51.458,8,52.5,8h3.125c.208,0,.417,0,.417.417l2.917,13.542a8.86,8.86,0,0,1,.417,2.292C59.583,24.458,59.583,24.458,59.583,24.667Zm-27.917-.625.833-3.75a.727.727,0,0,1,.417.208,8.225,8.225,0,0,0,4.375.833,3.862,3.862,0,0,0,1.458-.417c1.042-.417,1.042-1.458.208-2.292a11.629,11.629,0,0,0-1.667-1.042A8.6,8.6,0,0,1,35,16.125a4.256,4.256,0,0,1-.208-6.458C36.042,8.833,36.667,8,38.333,8c2.5,0,5.208,0,6.458.417H45a21.8,21.8,0,0,1-.833,3.542,8.731,8.731,0,0,0-3.125-.833,5.768,5.768,0,0,0-1.875.208,1.082,1.082,0,0,0-.833.417,1.007,1.007,0,0,0,0,1.458l1.042.833a22.724,22.724,0,0,1,2.292,1.25,4.6,4.6,0,0,1,2.292,2.917A4.475,4.475,0,0,1,42.083,23a3.783,3.783,0,0,1-2.917,1.25c-2.917,0-5.208.208-7.083-.417-.208.417-.208.417-.417.208Zm-7.292.625a8.477,8.477,0,0,1,.417-2.083C25.833,18,26.875,13.208,27.708,8.625c.208-.417.208-.625.625-.625h3.75a62.613,62.613,0,0,1-1.458,6.667c-.625,3.125-1.25,6.25-2.083,9.375,0,.417-.208.417-.625.417M5,8.417C5,8.208,5.417,8,5.625,8h7.083a2.029,2.029,0,0,1,2.083,1.667l1.875,9.167c0,.208,0,.208.208.417a.2.2,0,0,1,.208-.208L21.458,8.417c-.208-.208,0-.417.208-.417h4.375c0,.208,0,.208-.208.417L19.375,23.625c-.208.417-.208.625-.417.833s-.625,0-1.042,0H14.792c-.208,0-.417,0-.417-.417L11.042,11.125a4.237,4.237,0,0,0-1.875-1.25A13.867,13.867,0,0,0,5.208,8.833Z" transform="translate(-5 -8)"/></g></svg>