<?xml version="1.0" encoding="utf-8"?>
<!-- Generator: Adobe Illustrator 24.1.1, SVG Export Plug-In . SVG Version: 6.00 Build 0)  -->
<svg version="1.1" id="Layer_1" xmlns="http://www.w3.org/2000/svg" xmlns:xlink="http://www.w3.org/1999/xlink" x="0px" y="0px"
	 viewBox="0 0 300 259.1" style="enable-background:new 0 0 300 259.1;" xml:space="preserve">
<path d="M277.4,22.6c-30.1-30.1-79-30.1-109.1,0L150,40.9l-18.3-18.3c-30.1-30.1-79-30.1-109.1,0s-30.1,79,0,109.1L40.9,150
	L150,259.1L259.1,150l18.3-18.3C307.5,101.6,307.5,52.7,277.4,22.6z M222.8,150L150,222.8L77.2,150l-36.4-36.4
	c-20.2-20.2-20.2-52.8,0-72.8c20.2-20.2,52.8-20.2,72.8,0L150,77.2l36.4-36.4c20.2-20.2,52.8-20.2,72.8,0
	c20.2,20.2,20.2,52.8,0,72.8L222.8,150z"/>
</svg>
