<?xml version="1.0" encoding="utf-8"?>
<!-- Generator: Adobe Illustrator 24.2.1, SVG Export Plug-In . SVG Version: 6.00 Build 0)  -->
<svg version="1.1" id="Layer_1" xmlns="http://www.w3.org/2000/svg" xmlns:xlink="http://www.w3.org/1999/xlink" x="0px" y="0px"
	 viewBox="0 0 476.7 411.7" style="enable-background:new 0 0 476.7 411.7;" xml:space="preserve">
<style type="text/css">
	.st0{display:none;}
	.st1{display:inline;}
</style>
<g class="st0">
	<path class="st1" d="M-213.3,23.8c-51.2-51.2-134.4-51.2-185.7,0L-430.1,55l-31.1-31.1c-51.2-51.2-134.4-51.2-185.7,0
		s-51.2,134.4,0,185.7l31.1,31.1l185.7,185.7l185.7-185.7l31.1-31.1C-162.1,158.3-162.1,75.1-213.3,23.8z"/>
</g>
<path d="M440.8,35.9C416.9,12,385.5,0,354.1,0c-31.4,0-62.8,12-86.7,35.9L238.3,65l-29.1-29.1C185.3,12,153.9,0,122.6,0
	C91.2,0,59.8,12,35.9,35.9C-12,83.7-12,161.4,35.9,209.3L65,238.3l173.4,173.4l173.4-173.4l29.1-29.1
	C488.6,161.4,488.6,83.7,440.8,35.9z M432.7,112.3l-66.9-66.9c14.7-11.4,39.2-7.3,56.7,10.2C440.1,73.1,444.2,97.7,432.7,112.3z"/>
</svg>
