<?xml version="1.0" encoding="utf-8"?>
<!-- Generator: Adobe Illustrator 24.2.1, SVG Export Plug-In . SVG Version: 6.00 Build 0)  -->
<svg version="1.1" id="Layer_1" xmlns="http://www.w3.org/2000/svg" xmlns:xlink="http://www.w3.org/1999/xlink" x="0px" y="0px"
	 viewBox="0 0 477 512" style="enable-background:new 0 0 477 512;" xml:space="preserve">
<g>
	<path d="M261.3,0C142.4,0,45.6,96.8,45.6,215.7c0,62.3,26.6,118.6,69,158L4.9,483.4c-6.6,6.6-6.6,17.2,0,23.7
		c3.3,3.3,7.6,4.9,11.9,4.9s8.6-1.6,11.9-4.9L140.7,395c0.1-0.1,0.2-0.2,0.3-0.3c34.4,23.2,75.8,36.7,120.2,36.7
		c118.9,0,215.7-96.8,215.7-215.7S380.2,0,261.3,0z M261.3,414.6c-109.7,0-198.9-89.2-198.9-198.9c0-109.7,89.2-198.9,198.9-198.9
		c109.7,0,198.9,89.2,198.9,198.9C460.2,325.4,371,414.6,261.3,414.6z"/>
	<path d="M262.4,39.9c-45.1,0-87.8,17.2-120.2,48.5c-2.7,2.6-2.8,6.8-0.2,9.5c2.6,2.7,6.8,2.8,9.5,0.2c30-28.8,69.4-44.7,110.9-44.7
		c88.2,0,160,71.8,160,160c0,19.5-3.5,38.5-10.3,56.5c-1.3,3.5,0.4,7.3,3.9,8.6c0.8,0.3,1.6,0.4,2.4,0.4c2.7,0,5.3-1.7,6.3-4.3
		c7.4-19.6,11.1-40.2,11.1-61.2C435.9,117.7,358.1,39.9,262.4,39.9z"/>
</g>
</svg>
