<?xml version="1.0" encoding="utf-8"?>
<!-- Generator: Adobe Illustrator 24.1.1, SVG Export Plug-In . SVG Version: 6.00 Build 0)  -->
<svg version="1.1" id="Layer_1" xmlns="http://www.w3.org/2000/svg" xmlns:xlink="http://www.w3.org/1999/xlink" x="0px" y="0px"
	 viewBox="0 0 512 512" style="enable-background:new 0 0 512 512;" xml:space="preserve">
<g>
	<path d="M365.2,410.3H130.4c-38.6,0-69.9-31.4-69.9-69.9l0-278.7L28.6,29.8v-2.9c0-11.1,6.3-20.5,16.6-24.8
		c10.2-4.2,21.4-2,29.2,5.8L117,50.6v43.2l325.2,65.6c11.8,2.4,20.3,12.8,20.3,24.8v34.6c0,27.8-11.1,53.7-31.3,72.9
		c-20.2,19.2-46.6,29-74.4,27.6L108,306.1l-0.1,27c0,9,3.4,17.4,9.8,23.8c6.3,6.4,14.8,9.9,23.7,9.9h223.8c12,0,21.8,9.8,21.8,21.8
		S377.2,410.3,365.2,410.3z M42.8,24.2l31.6,31.6l0,2.9l0,281.6c0,30.9,25.1,56,56,56h234.8c4.3,0,7.8-3.5,7.8-7.8
		c0-4.3-3.5-7.8-7.8-7.8H141.4c-12.7,0-24.7-5-33.6-14c-9-9-13.9-21-13.8-33.7l0.1-41.7l263.5,13.9c23.9,1.2,46.7-7.2,64.1-23.7
		c17.4-16.5,26.9-38.8,26.9-62.8v-34.6c0-5.4-3.8-10.1-9.1-11.1l-336.4-67.9V56.4L64.5,17.8c-3.8-3.8-9-4.8-14-2.8
		C46.3,16.7,43.6,20.1,42.8,24.2z"/>
</g>
<g>
	<path d="M144.5,512c-39.9,0-72.4-32.5-72.4-72.4c0-17.6,6.4-34.5,18-47.7c2.5-2.9,7-3.2,9.9-0.6c2.9,2.5,3.2,7,0.6,9.9
		C91.2,411.7,86,425.4,86,439.6c0,32.2,26.2,58.4,58.4,58.4c32.2,0,58.4-26.2,58.4-58.4c0-11-3.1-21.7-8.9-31
		c-2-3.3-1.1-7.6,2.2-9.6c3.3-2,7.6-1.1,9.6,2.2c7.2,11.5,11,24.8,11,38.4C216.9,479.5,184.4,512,144.5,512z"/>
</g>
<g>
	<path d="M367.7,512c-39.9,0-72.4-32.5-72.4-72.4c0-12.8,3.4-25.4,9.8-36.5c1.9-3.3,6.2-4.5,9.5-2.5c3.3,1.9,4.5,6.2,2.5,9.5
		c-5.2,8.9-7.9,19.1-7.9,29.4c0,32.2,26.2,58.4,58.4,58.4c32.2,0,58.4-26.2,58.4-58.4c0-30.9-24.1-56.5-54.9-58.3
		c-3.8-0.2-6.8-3.5-6.6-7.4c0.2-3.8,3.5-6.8,7.4-6.6c38.2,2.2,68.1,34,68.1,72.3C440.1,479.5,407.7,512,367.7,512z"/>
</g>
<g>
	<path d="M144.5,478.9c-20.9,0-38-17-38-38c0-9.2,3.3-18.1,9.4-25c1.2-1.4,3.3-1.5,4.7-0.3c1.4,1.2,1.5,3.3,0.3,4.7
		c-5,5.7-7.8,13-7.8,20.6c0,17.2,14,31.3,31.3,31.3c17.2,0,31.3-14,31.3-31.3c0-5.9-1.6-11.6-4.8-16.6c-1-1.6-0.5-3.6,1.1-4.6
		c1.6-1,3.6-0.5,4.6,1.1c3.8,6,5.8,13,5.8,20.2C182.5,461.9,165.4,478.9,144.5,478.9z"/>
</g>
<g>
	<path d="M367.8,479.5c-1.5,0-2.9-0.1-4.4-0.2c-10.6-1.2-20.1-6.4-26.7-14.7c-6.7-8.3-9.7-18.7-8.5-29.3c0.8-7,3.4-13.7,7.6-19.4
		c1.2-1.6,3.4-1.9,4.9-0.7c1.6,1.2,1.9,3.4,0.7,4.9c-3.4,4.6-5.6,10.2-6.2,15.9c-2,18,11,34.3,29,36.2c8.7,1,17.3-1.5,24.1-7
		c6.8-5.5,11.1-13.3,12.1-22c1.4-12.5-4.7-24.9-15.4-31.6c-1.7-1-2.2-3.2-1.1-4.8c1-1.7,3.2-2.2,4.8-1.1
		c13.1,8.1,20.4,23.1,18.7,38.3C405.1,464.4,387.8,479.5,367.8,479.5z"/>
</g>
<path d="M311.8,172c-1.5-1.8-3.2-3.2-5.1-4.6c-5.4-3.6-12.7-5.5-22-5.5h-51.6v66c0,6.6-1.4,11.3-4.3,14.4c-2.9,3.1-6.7,4.6-11.3,4.6
	c-4.7,0-8.4-1.5-11.4-4.6c-3-3-4.4-7.9-4.4-14.4v-66H176v66c0,7.2,1,13.7,2.9,19.4c1.9,5.7,4.7,10.5,8.3,14.5c3.6,4,8,7.1,13.1,9.2
	c5.1,2.2,10.8,2.6,17.1,2.6c6.3,0,12-0.5,17.1-2.6s9.5-5.2,13.1-9.2s6.4-8.8,8.3-14.5c1.9-5.7,2.9-12.1,2.9-19.4v-48.6h-10.1v48.6
	c0,6-0.9,11.2-2.5,15.6s-3.9,8.1-6.7,11.1c-2.9,3-6.1,5.1-9.9,6.5c-3.8,1.4-7.8,2.1-12.1,2.1s-8.4-0.7-12.2-2.1s-7.1-3.5-10-6.5
	c-2.9-2.9-5.1-6.6-6.7-11.1c-1.7-4.4-2.5-9.6-2.5-15.6v-55h5.6v55c0,5,0.7,9.3,2,13c1.3,3.6,3.1,6.7,5.5,9.1
	c2.3,2.4,5.1,4.1,8.2,5.2c3.1,1.1,6.5,1.7,10.1,1.7c3.5,0,6.9-0.6,10-1.7c3.1-1.1,5.8-2.9,8.2-5.2s4.2-5.4,5.5-9.1s2-8,2-13v-54.8
	h32l0,0h9.7c9.3,0,15.9,2.4,19.6,7.1c3.8,4.8,5.6,11.1,5.6,19.1v63.8h-5.5v-63.7c0-6.3-1.5-11.2-4.5-14.7c-3-3.5-8.1-5.2-15.3-5.2
	H275v11.1h9.3c4.1,0,6.8,0.6,8.2,1.7c1.3,1.1,2,3.5,2,7.1l-0.1,74.4H320l0.1-74.3C320.1,187.8,317.3,178.6,311.8,172z"/>
</svg>
