<svg xmlns="http://www.w3.org/2000/svg" width="61.579" height="61.559" viewBox="0 0 61.579 61.559"><g transform="translate(-8.533 -6.925)"><path d="M50.216,68.485a6.038,6.038,0,0,1-3-1.877,2.756,2.756,0,0,0-3-.626,8.717,8.717,0,0,1-1.834.237,2.928,2.928,0,0,1-2.762-1.683,5.951,5.951,0,0,1-.6-1.554,2.93,2.93,0,0,0-2.482-2.438,4.542,4.542,0,0,1-.518-.129c-2.287-.863-3.064-2.244-2.568-4.7.043-.173.108-.345.151-.518a2.8,2.8,0,0,0-.82-3.043A4.987,4.987,0,0,1,31.054,49H20.092a3.107,3.107,0,0,1-3.366-3.366V28.693a.8.8,0,0,0-.518-.863c-2.093-1.014-4.165-2.05-6.236-3.086a2.086,2.086,0,0,1-1.1-3.151Q11.2,16.738,13.6,11.948A2.365,2.365,0,0,1,14.546,11c2.5-1.295,5.028-2.546,7.553-3.8a2.68,2.68,0,0,1,1.144-.259c3.841-.022,7.682-.022,11.545,0A2.917,2.917,0,0,1,36,7.222c2.5,1.23,4.985,2.46,7.466,3.733a2.625,2.625,0,0,1,1.057,1.057c1.6,3.151,3.151,6.344,4.7,9.516A2.112,2.112,0,0,1,48.166,24.7c-2.115,1.057-4.229,2.093-6.344,3.129a.671.671,0,0,0-.453.734c.022,1.079,0,2.158,0,3.064,1.252.173,2.417.281,3.561.5a2.7,2.7,0,0,0,2.482-.906,9.624,9.624,0,0,1,1.23-1.057,3.3,3.3,0,0,1,3.927,0,6.987,6.987,0,0,1,1.144.971,2.79,2.79,0,0,0,3.151.842,5.048,5.048,0,0,1,.82-.194c2.352-.367,3.712.518,4.316,2.7a3.95,3.95,0,0,0,3.064,3.086c2.438.691,3.151,2.2,2.654,4.7-.043.259-.129.5-.194.755a2.482,2.482,0,0,0,.712,2.589,6.525,6.525,0,0,1,1.877,3.021v.712a6.569,6.569,0,0,1-1.877,3,2.461,2.461,0,0,0-.691,2.589c.065.281.151.539.194.82.453,2.46-.216,3.906-2.568,4.6A3.977,3.977,0,0,0,62,63.543a3.1,3.1,0,0,1-2.762,2.633,7.2,7.2,0,0,1-2.244-.194,2.873,2.873,0,0,0-3,.6,6.353,6.353,0,0,1-3,1.877C50.713,68.485,50.475,68.485,50.216,68.485ZM16.186,12.444c.194.388.345.712.5,1.057a27.781,27.781,0,0,1,2.028,10.725c.086,7.078.043,14.134.065,21.212,0,1.187.3,1.511,1.489,1.511,3.3,0,6.6-.043,9.926.022a2.911,2.911,0,0,0,2.654-1.122,3.1,3.1,0,0,0,.755-3.129,3.571,3.571,0,0,1-.129-.453c-.475-2.417.259-3.841,2.589-4.683.281-.108.6-.108.863-.237.5-.237,1.187-.432,1.4-.842a7.3,7.3,0,0,0,.949-2.848c.129-2.805,0-5.611.065-8.416a33.111,33.111,0,0,1,1.683-10.746c.237-.691.561-1.338.863-2.05C39.837,11.408,37.83,10.415,35.8,9.4a7.44,7.44,0,0,1-6.711,3.712A7.47,7.47,0,0,1,22.358,9.4C20.265,10.415,18.258,11.408,16.186,12.444ZM65.753,41.36c0-1.187-.108-1.359-.971-1.683-.41-.151-.82-.3-1.252-.432a4.536,4.536,0,0,1-3.215-3.194c-.173-.539-.367-1.057-.561-1.575a.89.89,0,0,0-.949-.669,9.786,9.786,0,0,0-1.6.194,4.629,4.629,0,0,1-4.7-1.165,11.368,11.368,0,0,0-1.1-.928,1.113,1.113,0,0,0-1.662,0c-.388.3-.734.6-1.1.928a4.448,4.448,0,0,1-4.186,1.252c-.539-.108-1.1-.259-1.64-.324-.949-.086-1.187.086-1.532.971-.151.388-.3.8-.41,1.187a4.531,4.531,0,0,1-3.323,3.3c-.5.151-.993.345-1.467.518a.89.89,0,0,0-.669.949,7.9,7.9,0,0,0,.216,1.6,4.665,4.665,0,0,1-1.208,4.747,10.332,10.332,0,0,0-.993,1.187,1.043,1.043,0,0,0-.022,1.338,13.137,13.137,0,0,0,.993,1.187,4.725,4.725,0,0,1,1.23,4.855,9,9,0,0,0-.173,1.532.831.831,0,0,0,.626.906c.518.194,1.036.41,1.575.561a4.548,4.548,0,0,1,3.237,3.237c.151.518.345,1.014.539,1.532a.907.907,0,0,0,1.014.669,8.519,8.519,0,0,0,1.489-.194,4.676,4.676,0,0,1,4.9,1.273,9.539,9.539,0,0,0,1.014.842,1.066,1.066,0,0,0,1.575-.022c.41-.324.8-.669,1.187-1.014a4.3,4.3,0,0,1,3.668-1.273c.475.065.949.173,1.4.281,1.446.345,1.856.129,2.374-1.23a3.892,3.892,0,0,0,.173-.453,4.942,4.942,0,0,1,3.841-3.863c1.921-.539,2.072-.949,1.554-2.87A4.645,4.645,0,0,1,66.811,50.7a11.226,11.226,0,0,0,.82-.949c.6-.755.6-1.1-.022-1.856-.3-.367-.6-.734-.949-1.1a4.408,4.408,0,0,1-1.144-4.208C65.581,42.2,65.688,41.662,65.753,41.36ZM16.726,25.8c-.108-3.992-.388-7.833-1.942-11.61-1.446,2.956-2.827,5.762-4.208,8.588C12.6,23.773,14.589,24.744,16.726,25.8ZM47.5,22.737c-1.4-2.848-2.762-5.632-4.208-8.567-1.554,3.776-1.834,7.617-1.942,11.61C43.462,24.744,45.447,23.751,47.5,22.737ZM33.428,9.013h-8.8C26.242,11.732,31.615,11.732,33.428,9.013Z" transform="translate(0)"/><path d="M141.6,153.436a13.336,13.336,0,1,1,13.336,13.336A13.312,13.312,0,0,1,141.6,153.436Zm2.05-.043a11.3,11.3,0,1,0,11.307-11.243A11.337,11.337,0,0,0,143.65,153.393Z" transform="translate(-104.353 -104.437)"/><path d="M174.129,183.218c2.589-2.892,5.114-5.675,7.639-8.481.259-.281.5-.561.777-.842.518-.539,1.122-.626,1.575-.194a1.062,1.062,0,0,1-.086,1.6l-7.639,8.481c-.453.5-.906,1.014-1.381,1.511a1,1,0,0,1-1.618.043c-.971-.949-1.942-1.921-2.892-2.892a1.009,1.009,0,0,1-.108-1.532,1.022,1.022,0,0,1,1.532.086C172.662,181.708,173.374,182.442,174.129,183.218Z" transform="translate(-126.697 -130.573)"/></g></svg>