<svg xmlns="http://www.w3.org/2000/svg" width="36" height="21.002" viewBox="0 0 36 21.002"><defs><style>.a{fill:#ccae43;}.b{fill:#b51f32;}.c{fill:#ac6a31;}.d{fill:#365e8f;}.e{fill:#718c42;}</style></defs><g transform="translate(0 -106.7)"><rect class="a" width="36" height="21.002" transform="translate(0 106.7)"/><rect class="b" width="33.898" height="18.9" transform="translate(1.048 107.748)"/><path class="c" d="M182.317,166.86a2.61,2.61,0,0,0,.851-.4.984.984,0,0,0,.387-.548c.021-.105.035-.19-.042-.127a3.506,3.506,0,0,1-.471.33,1.9,1.9,0,0,1-.394.155c-.084.021-.155.042-.07.007a1.548,1.548,0,0,0,.563-.337,1.307,1.307,0,0,0,.38-.717c0-.19-.014-.176-.07-.134s-.281.323-.408.422a5,5,0,0,1-.422.3c-.1.056-.239.127-.042-.014a1.948,1.948,0,0,0,.717-.865,1.442,1.442,0,0,0,.12-.7c0-.042-.035-.127-.07-.049a3.977,3.977,0,0,1-.485.788c-.2.211-.155.176-.2.2s-.12.1-.021-.021a2.783,2.783,0,0,0,.4-.675,2.079,2.079,0,0,0,.134-.71,1.217,1.217,0,0,0-.1-.443c-.028-.063-.063-.113-.07-.035s-.169.563-.253.8a2.749,2.749,0,0,1-.3.555c-.035.049-.127.162-.028-.021a3.422,3.422,0,0,0,.309-1.209,1.965,1.965,0,0,0-.113-.914.662.662,0,0,0-.127-.19,3.622,3.622,0,0,1-.091.83,2.879,2.879,0,0,1-.253.752s-.063.07-.021-.049a1.906,1.906,0,0,0,.113-.548,2.614,2.614,0,0,0-.056-.963,1.257,1.257,0,0,0-.267-.492,6.716,6.716,0,0,1-.211,1.561c-.035-.028-.077-.084-.091.028a2.571,2.571,0,0,1-.309.851c-.211.387-.3.436-.3.436s-.042-.091-.063-.148-.042-.077-.077-.007a2.786,2.786,0,0,1-.408.64c-.26.3-.4.443-.394.668a.521.521,0,0,0,.281.443c.155.1.183.155.162.281s-.162.162-.288.169a1.433,1.433,0,0,0-.33.021c-.056.028-.056.112-.112.162s-.077.084-.127.091a.249.249,0,0,0-.042.007,1.275,1.275,0,0,1,.218-.851l-.64-.752c-.035.014-.063.028-.1.042-.007-.007-.007-.021-.021-.028a.48.48,0,0,1-.113-.338.481.481,0,0,0,.155.014c.056-.014.014-.07,0-.127a.937.937,0,0,1-.021-.316c.014-.07.021-.1.021-.1s.091.1.148.1.049-.056.063-.12a.461.461,0,0,1,.134-.281.419.419,0,0,0,.218.07.589.589,0,0,0,.394-.148c.127-.12.12-.148.12-.148a1.672,1.672,0,0,0,.408.091.441.441,0,0,0,.457-.2.41.41,0,0,0-.042-.387c-.021-.028-.077-.049-.077,0a.3.3,0,0,1-.105.26.32.32,0,0,1-.3.035.89.89,0,0,0-.408-.049.766.766,0,0,0-.169.035.848.848,0,0,1,.267-.183.219.219,0,0,1,.253.063c.042.049.077.134.113.014a.461.461,0,0,0-.042-.352.326.326,0,0,0-.309-.134.6.6,0,0,0-.176.035.356.356,0,0,0-.232-.225.947.947,0,0,0-.612.134.6.6,0,0,1-.281-.007,1.079,1.079,0,0,1-.239-.12c.014-.056.049-.155.049-.155l.084-.028c.042-.014.035-.028.042-.063s-.077-.1-.077-.1-.014-.105.127-.176l.127-.063s.084.014.113-.007.035-.042.035-.042a.184.184,0,0,0,.084-.056.148.148,0,0,0,.007-.134c-.014-.042-.035-.049-.014-.07a.178.178,0,0,0,.042-.105v-.042s.049-.014.042-.091a.1.1,0,0,0-.063-.105.123.123,0,0,0-.035-.007.3.3,0,0,0-.042-.1.515.515,0,0,0-.063-.084.063.063,0,0,0,.014-.07.114.114,0,0,0-.084-.084.2.2,0,0,0-.07,0l-.162-.091-.063-.035a.134.134,0,0,0-.021-.07.111.111,0,0,0-.084-.035.139.139,0,0,0-.049.014s-.183-.049-.26-.063-.077-.021-.077-.021a1.977,1.977,0,0,0-.232-.091c-.063-.014-.084-.021-.084-.021a.35.35,0,0,0,.07-.176.24.24,0,0,0-.127-.218.619.619,0,0,0-.07-.035v-.063l.127.014.007-.2-.12.014.021-.12h-.253l.021.12-.12-.007.007.2.127-.014-.014.077a.2.2,0,0,0-.084.035.252.252,0,0,0-.12.211.424.424,0,0,0,.063.176.3.3,0,0,1-.077.014,1.977,1.977,0,0,0-.232.091.271.271,0,0,1-.084.021c-.077.014-.26.063-.26.063a.1.1,0,0,0-.049-.014.13.13,0,0,0-.084.035.121.121,0,0,0-.021.07l-.063.035-.162.091a.1.1,0,0,0-.07,0,.133.133,0,0,0-.077.084.063.063,0,0,0,.014.07l-.063.084a.3.3,0,0,0-.042.1.123.123,0,0,0-.035.007.1.1,0,0,0-.063.105.1.1,0,0,0,.042.091v.042a.178.178,0,0,0,.042.105c.021.021,0,.028-.014.07a.149.149,0,0,0,.014.134.184.184,0,0,0,.084.056s0,.014.035.042a.215.215,0,0,0,.113.007s-.014-.014.127.063.127.176.127.176-.084.063-.077.1,0,.049.042.063l.084.028s.035.1.049.155a1.08,1.08,0,0,1-.239.12.6.6,0,0,1-.281.007.918.918,0,0,0-.6-.134.356.356,0,0,0-.232.225.6.6,0,0,0-.176-.035.32.32,0,0,0-.309.134.461.461,0,0,0-.042.352c.035.12.07.035.113-.014a.219.219,0,0,1,.253-.063.848.848,0,0,1,.267.183.612.612,0,0,0-.169-.035.9.9,0,0,0-.408.049.284.284,0,0,1-.4-.3c0-.049-.056-.028-.077,0a.4.4,0,0,0-.049.387.43.43,0,0,0,.457.2,1.673,1.673,0,0,0,.408-.091s0,.028.12.148a.566.566,0,0,0,.394.148.452.452,0,0,0,.218-.07.48.48,0,0,1,.134.281c.007.063,0,.12.063.12s.148-.1.148-.1a.792.792,0,0,1,.014.1,1.141,1.141,0,0,1-.021.316c-.021.056-.063.113,0,.127a.5.5,0,0,0,.155-.014.48.48,0,0,1-.113.337c-.007.007-.014.021-.021.028-.028-.014-.063-.028-.091-.042l-.64.752a1.307,1.307,0,0,1,.218.858v-.007a.137.137,0,0,1-.049-.007c-.049-.007-.077-.042-.127-.091s-.056-.134-.113-.162a1.123,1.123,0,0,0-.33-.021c-.12-.007-.26-.049-.288-.169s.007-.176.162-.281a.521.521,0,0,0,.281-.443c.007-.225-.134-.366-.394-.668a2.925,2.925,0,0,1-.415-.64c-.035-.07-.049-.042-.077.007a1.241,1.241,0,0,0-.063.148s-.084-.049-.3-.436a2.955,2.955,0,0,1-.309-.851c-.014-.105-.056-.056-.091-.028a6.818,6.818,0,0,1-.211-1.561,1.257,1.257,0,0,0-.267.492,2.614,2.614,0,0,0-.056.963,2.2,2.2,0,0,0,.113.548c.042.12-.021.049-.021.049a2.879,2.879,0,0,1-.253-.752,4.231,4.231,0,0,1-.091-.83.521.521,0,0,0-.127.19,1.872,1.872,0,0,0-.113.914,3.317,3.317,0,0,0,.309,1.209c.1.176.007.07-.028.021a3.473,3.473,0,0,1-.3-.555c-.084-.239-.246-.724-.253-.8s-.042-.028-.07.035a1.433,1.433,0,0,0-.1.443,2.265,2.265,0,0,0,.134.71,2.783,2.783,0,0,0,.4.675c.1.12.021.056-.021.021a2.8,2.8,0,0,1-.2-.2,4.122,4.122,0,0,1-.485-.787c-.035-.077-.07.007-.07.049a1.688,1.688,0,0,0,.12.7,2.091,2.091,0,0,0,.724.865c.2.134.056.07-.042.014a3.229,3.229,0,0,1-.422-.3c-.127-.105-.345-.373-.408-.422s-.077-.063-.07.134a1.307,1.307,0,0,0,.38.717,1.67,1.67,0,0,0,.563.337c.084.035.014.014-.07-.007a1.564,1.564,0,0,1-.394-.155,5.541,5.541,0,0,1-.471-.33c-.077-.063-.07.021-.042.127a.946.946,0,0,0,.387.548,2.391,2.391,0,0,0,.851.4c.12.035.035.035.035.035s-.049-.007-.3-.063a3.361,3.361,0,0,1-.731-.316c-.105-.063-.12-.091-.105.049a.9.9,0,0,0,.387.563,2.286,2.286,0,0,0,.752.211c.105.007.077.021.028.021a3.235,3.235,0,0,1-.366-.021,2.836,2.836,0,0,1-.478-.127.923.923,0,0,0-.021-.091c-.007-.049-.035-.042-.056-.035a.312.312,0,0,1-.084.049c-.056.028-.056-.007-.063-.021s-.014-.091-.014-.134-.021-.042-.049-.028-.155.063-.2.084,0,.056.021.105a.876.876,0,0,0,.063.113s-.12.035-.155.042-.028.035-.014.063.07.162.084.2.049.014.049.014l.12-.07.042.162a.352.352,0,0,0-.113.056c-.063.042-.042.1.028.12a.408.408,0,0,1,.253.225,3.325,3.325,0,0,1,.176.963,1.11,1.11,0,0,0,.408.759c.042.028.021.056.021.056a.21.21,0,0,0-.021.155.237.237,0,0,0,.141.162.044.044,0,0,1,.028.056,1.022,1.022,0,0,0,0,.288.882.882,0,0,0,.218.436c.042.035.042.056.042.07s-.035,0-.084.042a.549.549,0,0,0-.148.162c-.035.07-.021.105-.014.2s.148.176.148.176-.021.007-.028.07a.232.232,0,0,0,.105.19.493.493,0,0,0,.176.07s.007.056.014.1.084.077.134.105a.235.235,0,0,0,.183-.007c.042-.021.063,0,.091.042a.965.965,0,0,1,.014.253c0,.063-.035.127-.014.155s.077.007.134-.021.07-.007.127.021a.416.416,0,0,0,.155.063c.021,0,.014-.056.014-.105s.007-.148.028-.162.1-.014.169-.042c.028-.014.07-.028.077-.056s-.042-.028-.141-.084a1.147,1.147,0,0,1-.183-.127c-.063-.042-.035-.056-.035-.077s.028-.042.042-.063a.161.161,0,0,0,.007-.077l.077-.077a.584.584,0,0,1,.091-.1,1.743,1.743,0,0,0,.12-.2c.035-.042.112-.091.155-.148a1.117,1.117,0,0,1,.239-.2c.07-.042.26-.134.26-.134a.347.347,0,0,0,.042.169c.049.056.113-.042.33-.2a1.479,1.479,0,0,1,.38-.2,1.024,1.024,0,0,0,.105.141c.056.07.112,0,.373-.366a4.947,4.947,0,0,1,.591-.647.141.141,0,0,1,.056.028.1.1,0,0,0-.014.049,1.681,1.681,0,0,1-.113.232c-.049.105-.134.127-.218.274a.666.666,0,0,0-.112.387c-.007.148.07.176.07.176a.925.925,0,0,0-.176.225,1.378,1.378,0,0,0-.063.3s-.021.007-.07.105-.134.113-.26.239a1.134,1.134,0,0,1-.338.218c-.063.042-.049.077-.028.134a.388.388,0,0,0,.218.141.41.41,0,0,0,.218.021c.07,0,.014.056-.014.084a.394.394,0,0,0-.063.253c.007.12.091.091.2.07a1.589,1.589,0,0,0,.239-.07l-.014.035a.319.319,0,0,0-.021.148c0,.091.014.141.042.162s.084-.028.12-.042a1.282,1.282,0,0,1,.2-.07.245.245,0,0,0,.134-.063.21.21,0,0,0-.028.1.792.792,0,0,0,.014.225.407.407,0,0,0,.127.19c.063.063.084.035.127-.042a1.331,1.331,0,0,1,.148-.176s.007.021.07.239a1,1,0,0,0,.281.394.941.941,0,0,0,.281-.394c.063-.218.07-.239.07-.239a1.331,1.331,0,0,1,.148.176c.049.077.063.105.134.042a.47.47,0,0,0,.127-.19.776.776,0,0,0,.014-.225.262.262,0,0,0-.028-.1.245.245,0,0,0,.134.063c.1.021.162.063.2.07s.091.063.12.042.042-.07.042-.162a.3.3,0,0,0-.021-.148l-.014-.035a1.01,1.01,0,0,0,.239.07c.105.021.2.042.2-.07a.394.394,0,0,0-.063-.253c-.028-.028-.091-.084-.014-.084a.414.414,0,0,0,.218-.021.428.428,0,0,0,.218-.141c.021-.049.035-.091-.028-.134a1.429,1.429,0,0,1-.338-.218c-.127-.127-.218-.141-.26-.239s-.07-.105-.07-.105a1.379,1.379,0,0,0-.063-.3.926.926,0,0,0-.176-.225s.084-.028.07-.176a.681.681,0,0,0-.113-.387c-.091-.141-.169-.169-.218-.274a1.683,1.683,0,0,1-.113-.232c-.007-.014-.007-.028-.014-.042.028-.014.049-.021.077-.035a4.667,4.667,0,0,1,.591.654c.267.366.316.443.373.366s.105-.141.105-.141a1.828,1.828,0,0,1,.38.2c.218.155.281.246.33.2a.213.213,0,0,0,.035-.113s.127.035.267.084c.084.028.176.07.246.1a1.039,1.039,0,0,1,.352.239.6.6,0,0,0,.563.042c.2-.063.731-.239.949-.33a1.182,1.182,0,0,0,.387-.218.718.718,0,0,0,.049-.2.241.241,0,0,0-.063-.12c-.014-.014-.007-.042-.007-.07a.218.218,0,0,0-.042-.148c-.035-.035-.028-.049-.021-.155a.648.648,0,0,0-.373-.584.109.109,0,0,0-.021-.042.545.545,0,0,0-.049-.028,1.114,1.114,0,0,0,0-.155c0-.028.014-.021.028-.014a.505.505,0,0,0,.077.049c.035.007.056-.014.063-.056a1.417,1.417,0,0,1,.049-.162c.014-.042,0-.049-.021-.049s-.07-.007-.1-.014-.028-.007-.021-.021a.429.429,0,0,1,.049-.084c.035-.049,0-.049-.028-.063a1.847,1.847,0,0,0-.211-.063.04.04,0,0,0-.049.042v.112c0,.028-.021.021-.042.014a.633.633,0,0,1-.077-.049c-.028-.021-.049,0-.056.028s-.042.155-.056.19-.007.063.007.07a.739.739,0,0,0,.127,0c.042,0,.021.021.021.021l-.063.105c-.014.028-.042.035-.077.035h-.091a.8.8,0,0,0-.4.134.73.73,0,0,0-.246.288c-.028.063-.056.049-.084.07s-.1.1-.1.148.014.07-.056.12a.281.281,0,0,0-.035.366,1.242,1.242,0,0,1,.169.267c.028.049,0,.077-.028.077a.32.32,0,0,1-.127-.077c-.042-.035-.274-.211-.373-.288s-.028-.063-.028-.063a.274.274,0,0,0,.084-.021c.056-.021.063-.056.007-.07a.854.854,0,0,1-.2-.113c-.028-.028-.042-.063.014-.091s.183-.113.084-.141-.218-.049-.316-.077-.105-.056-.105-.056l.063-.091s.049-.07-.007-.084a1.281,1.281,0,0,1-.337-.084.82.82,0,0,1-.5-.548l.007-.007c.049.1.169.281.345.288.239.007.267-.063.211-.148s-.12-.148-.134-.176-.021-.056.042.007a.585.585,0,0,0,.541.232c.359-.021.359-.091.359-.113,0-.07-.07-.077-.12-.127-.021-.021-.035-.056.035-.028a.888.888,0,0,0,.492.007c.1-.021.352-.134.373-.26a.92.92,0,0,1-.274-.056c-.113-.049-.183-.091-.063-.063a1.128,1.128,0,0,0,.555,0,.354.354,0,0,0,.274-.316s-.225-.049-.3-.077a.3.3,0,0,1-.105-.049.91.91,0,0,0,.6-.042.45.45,0,0,0,.3-.394.168.168,0,0,0-.007-.063,2.37,2.37,0,0,1-.457.063.88.88,0,0,1-.253-.021,2.107,2.107,0,0,0,.823-.183.663.663,0,0,0,.288-.5,2.828,2.828,0,0,1-.506.134,3.235,3.235,0,0,1-.366.021c-.049,0-.077-.021.028-.021a2.286,2.286,0,0,0,.752-.211.867.867,0,0,0,.387-.562c.014-.134,0-.113-.105-.049a3.212,3.212,0,0,1-.731.316c-.246.056-.3.063-.3.063s-.134.021-.007-.014m-9.858.626c-.028.014-.113.063-.113.063s-.042-.091-.056-.12-.007-.035.007-.035.063-.014.1-.014h.014c.014.028.035.07.049.105h0m3.361,1.969a.93.93,0,0,1-.38.316,1.349,1.349,0,0,1-.338.084c-.063.007-.007.084-.007.084l.063.091s-.007.028-.105.056-.218.049-.316.077.028.113.084.141.042.063.014.091a.855.855,0,0,1-.2.113c-.056.021-.049.049.007.07s.218.056.218.056,0,.007-.1.077a.84.84,0,0,1-.38.127,4.053,4.053,0,0,1-.513,0,2.185,2.185,0,0,1-.253-.014s-.007-.077-.021-.183a1.007,1.007,0,0,0-.134-.345c-.049-.07-.162-.218-.162-.218a.474.474,0,0,1,.007-.07.282.282,0,0,0-.021-.141.623.623,0,0,0-.155-.169s-.007-.07-.007-.141a2.424,2.424,0,0,0-.091-.464,4.66,4.66,0,0,0-.345-.612,1.788,1.788,0,0,1-.176-.57.635.635,0,0,1-.007-.288.484.484,0,0,1,.021-.056.574.574,0,0,0,.155.134,2.107,2.107,0,0,0,.823.183,1.738,1.738,0,0,1-.26.021,2.37,2.37,0,0,1-.457-.063.168.168,0,0,0-.007.063c0,.049.014.246.3.394a.863.863,0,0,0,.6.042.453.453,0,0,1-.105.049c-.084.028-.3.077-.3.077a.362.362,0,0,0,.274.316,1.128,1.128,0,0,0,.555,0c.12-.021.049.014-.063.063a.92.92,0,0,1-.274.056c.021.127.281.239.373.26a.957.957,0,0,0,.492-.007c.07-.028.056.007.035.028-.042.042-.12.056-.12.127,0,.021,0,.091.359.113a.6.6,0,0,0,.541-.232c.063-.056.056-.028.042-.007s-.077.091-.134.176-.028.155.211.148c.176-.007.3-.19.345-.288v.007c0,.007.007.007.007.014-.021.035-.063.134-.105.211m2.911-7.8c-.035-.063-.049-.091-.049-.091a.824.824,0,0,1,.218.155.382.382,0,0,1,.091.183.538.538,0,0,1-.014.2.273.273,0,0,0,0,.155.174.174,0,0,0,.028.042,1.034,1.034,0,0,0-.12.035c-.056.021-.134.042-.176.007s-.049-.056-.028-.084a.236.236,0,0,0,.134-.218.769.769,0,0,0-.084-.387m-.745.45a.6.6,0,0,0,.021-.316,3.537,3.537,0,0,1-.056-.394.618.618,0,0,1,.246.155.5.5,0,0,1,.176.33c0,.063-.035.148-.042.211a.239.239,0,0,0,.021.12.392.392,0,0,0-.1.056.189.189,0,0,1-.155.049.434.434,0,0,1-.162-.056.384.384,0,0,0-.07-.028.246.246,0,0,0,.12-.127m-.7-.555a.618.618,0,0,1,.246-.155c-.007.148-.035.26-.049.394a.536.536,0,0,0,.021.316.286.286,0,0,0,.113.127.382.382,0,0,0-.07.028.313.313,0,0,1-.162.056.2.2,0,0,1-.155-.049.593.593,0,0,0-.1-.056.383.383,0,0,0,.021-.12c-.007-.063-.042-.148-.042-.211a.5.5,0,0,1,.176-.33m-.513.8c-.042.035-.113.014-.176-.007a1.033,1.033,0,0,0-.12-.035.174.174,0,0,0,.028-.042.329.329,0,0,0,.007-.155.738.738,0,0,1-.014-.2.382.382,0,0,1,.091-.183.824.824,0,0,1,.218-.155s-.014.028-.049.091a.762.762,0,0,0-.1.394.247.247,0,0,0,.134.218c.028.021.014.042-.021.077m1.92,1.385c-.141.077-.225.063-.218.12s.134.1.134.1a1.682,1.682,0,0,1-.232.2,1.21,1.21,0,0,1-.218.105s-.042.007-.021.07a.236.236,0,0,0,.1.127.119.119,0,0,0,.049.021,2.936,2.936,0,0,1-.253.246.5.5,0,0,1-.183.105c-.063.028-.028.134-.021.176a.217.217,0,0,0,.1.12c.035.007.042.035,0,.1s-.134.176-.183.246h0c-.049-.07-.148-.2-.183-.246s-.028-.084,0-.1a.192.192,0,0,0,.1-.12c.014-.049.049-.155-.014-.176a.852.852,0,0,1-.183-.105c-.077-.063-.253-.246-.253-.246a.419.419,0,0,0,.049-.021.24.24,0,0,0,.1-.127c.021-.063-.014-.07-.014-.07a1.21,1.21,0,0,1-.218-.105,1.683,1.683,0,0,1-.232-.2s.127-.042.134-.1-.077-.042-.218-.12a.469.469,0,0,1-.19-.176.46.46,0,0,0,.246-.218.347.347,0,0,0,.035-.155h.007a2.893,2.893,0,0,0,.851.12,2.847,2.847,0,0,0,.844-.12h.007a.272.272,0,0,0,.035.155.448.448,0,0,0,.246.218.606.606,0,0,1-.2.176" transform="translate(-159.754 -49.831)"/><path class="b" d="M210.539,208.216a.931.931,0,0,0-.366-.113,1.123,1.123,0,0,0-.415.049.422.422,0,0,1-.246.007.339.339,0,0,1-.232-.26.238.238,0,0,0,0,.281.307.307,0,0,0,.19.127c.225.042.443-.091.626-.105a.5.5,0,0,1,.316.1.084.084,0,0,0,.1,0c.07-.028.084-.056.028-.084" transform="translate(-194.522 -94.084)"/><path class="b" d="M284.693,207.9a.339.339,0,0,1-.232.26.491.491,0,0,1-.246-.007,1.293,1.293,0,0,0-.415-.049.931.931,0,0,0-.366.113c-.056.035-.042.056.021.091a.094.094,0,0,0,.105,0,.5.5,0,0,1,.316-.1c.183.014.408.148.626.105a.327.327,0,0,0,.19-.127.247.247,0,0,0,0-.288" transform="translate(-263.472 -94.084)"/><path class="a" d="M231.2,236.564a1.32,1.32,0,0,1,.2-.724l-.555-.64a1.733,1.733,0,0,1-1.448,0,1.708,1.708,0,0,1-1.448,0l-.555.64a1.32,1.32,0,0,1,.2.724,4.136,4.136,0,0,1-.134.991,1.738,1.738,0,0,0,.021.907,1.141,1.141,0,0,0,.731.745,4.425,4.425,0,0,1,.928.457,1.445,1.445,0,0,1,.26.26,1.781,1.781,0,0,1,.26-.26,3.94,3.94,0,0,1,.928-.457,1.139,1.139,0,0,0,.731-.745,1.738,1.738,0,0,0,.021-.907,3.428,3.428,0,0,1-.148-.991" transform="translate(-211.411 -119.465)"/><path class="a" d="M194.946,305.2a2.57,2.57,0,0,1-.239.1.394.394,0,0,1-.07.014,1.774,1.774,0,0,1-.211.162.706.706,0,0,1-.309.105c-.141.014-.527.014-.7.007a.4.4,0,0,0-.352.12.2.2,0,0,0,0,.3.142.142,0,0,0,.232-.014.164.164,0,0,0,0-.162c-.014-.035.028-.042.077-.049s.127.007.2.014a1.485,1.485,0,0,1,.267.084c.056.028.021.035-.014.028a.742.742,0,0,1-.155-.049.518.518,0,0,0-.176-.042c-.042,0-.028.021-.021.035s.035.056.042.07a.23.23,0,0,1-.014.084l.021.042a.4.4,0,0,0,.035-.063c.007-.021,0-.063.007-.084s.049-.021.077.014a.287.287,0,0,1,.077.155.246.246,0,0,1-.014.141.159.159,0,0,1,.042.049.374.374,0,0,1-.007.1s.021.014.049-.028a1.068,1.068,0,0,0,.056-.155c.007-.028.028-.084.063-.042a.381.381,0,0,1,.063.112.151.151,0,0,1,.007.042,1.175,1.175,0,0,0,.105-.12.8.8,0,0,1,.155-.169c.077-.063.2-.183.267-.225s.225-.127.274-.162.056-.035.07-.12a.941.941,0,0,1,.07-.225l.021-.063" transform="translate(-179.428 -184.543)"/><path class="a" d="M213.122,303.559a.224.224,0,0,1-.049-.007c-.028-.007-.1-.028-.12-.035a.056.056,0,0,0-.07.014c-.021.021-.183.12-.183.12h.267a.244.244,0,0,0,.155-.091" transform="translate(-197.745 -182.972)"/><path class="a" d="M216.271,299.416v-.028l-.035-.077a.625.625,0,0,0-.084.07c-.049.056-.105.127-.134.162-.042.056-.105.112-.056.021s.07-.127.113-.19.077-.084.07-.091a.8.8,0,0,0-.148-.021.574.574,0,0,1-.232-.084c-.049-.028-.141-.077-.141-.077s-.19.077-.26.1-.113.028-.042.063.127.042.162.063a.538.538,0,0,0,.2.056c.063,0,.169,0,.127.049a.662.662,0,0,0-.134.26,1,1,0,0,0-.049.3,1.04,1.04,0,0,0,.007.113,1.552,1.552,0,0,1,.288-.218,2.734,2.734,0,0,1,.323-.19c.042-.021.056-.021.049-.07s-.028-.19-.028-.211" transform="translate(-200.149 -178.872)"/><path class="a" d="M221.447,288.092l-.042-.021H221.4a.725.725,0,0,0-.2.183c-.049.084-.105.091-.049,0a.922.922,0,0,1,.141-.183c.014-.014.035-.028.042-.035a3.088,3.088,0,0,1-.323-.183.713.713,0,0,1-.07.112.407.407,0,0,1-.141.084.614.614,0,0,0,.105-.141l.035-.105a1.154,1.154,0,0,1-.211-.2.772.772,0,0,1-.183.323,1.2,1.2,0,0,1-.492.274s-.113.014-.021.035a.656.656,0,0,0,.337.035,1.82,1.82,0,0,0,.218-.049c.021-.007.091,0,0,.035a1.244,1.244,0,0,1-.38.056c-.077-.007-.19-.021-.077.035a.445.445,0,0,0,.232.084c.07,0,.1.021.169.021a.529.529,0,0,0,.134-.021c.049-.007.077.007.077.028a.408.408,0,0,0-.063.211,1.4,1.4,0,0,0,.021.26.856.856,0,0,0,.063.141c.021.035.028.07.049-.007s.063-.19.077-.267.028-.077.035-.12.049-.07.028,0-.042.162-.056.225-.049.183.007.091.281-.338.316-.387.063-.084.091-.12a1.321,1.321,0,0,0,.141-.141,1.383,1.383,0,0,1,.176-.176c-.042-.021-.105-.049-.176-.077" transform="translate(-204.523 -168.181)"/><path class="a" d="M173.239,255.7c0-.014-.028-.063-.035-.091s-.035-.014-.035-.014a.347.347,0,0,1-.1.042c-.042.014-.049-.007-.056-.028s-.014-.091-.021-.141-.014-.042-.035-.035-.07.028-.105.042-.028.035-.014.056a1.308,1.308,0,0,1,.07.141c.021.028,0,.042-.021.056s-.056.014-.1.028-.042.021-.035.042.035.077.049.105.028.007.028.007a.808.808,0,0,1,.084-.063c.042-.021.042-.014.049.014s.056.183.063.211.021.028.042.021l.07-.021c.021-.007.035-.056.035-.056s-.084-.155-.112-.2,0-.049.021-.049a.487.487,0,0,0,.113-.021c.056-.007.049-.035.042-.049" transform="translate(-160.604 -138.272)"/><path class="a" d="M190.16,314.752c-.007-.035,0-.077-.028-.105a.352.352,0,0,1-.077-.134c-.014-.049.014-.07.007-.091s-.042-.028-.077,0a.16.16,0,0,0-.084.141.205.205,0,0,0,.148.218c.12.035.12.007.113-.028" transform="translate(-176.548 -193.096)"/><path class="a" d="M194.742,318.739a.025.025,0,0,0-.035.007c-.014.021-.007.035.021.084a.241.241,0,0,0,.084.084c.035.021.014-.021.007-.035s0-.028-.007-.042a.091.091,0,0,1-.014-.056c0-.035-.056-.042-.056-.042" transform="translate(-181.01 -197.126)"/><path class="a" d="M191.874,319.882c.021-.035.042-.042.091-.063a1.3,1.3,0,0,1,.183-.042.134.134,0,0,0,.1-.134.118.118,0,0,0-.1-.1c-.042-.007-.077-.007-.091.014a.14.14,0,0,1-.084.063.309.309,0,0,0-.084.042c-.028.007-.007.028-.028.049s-.056,0-.091-.014a.3.3,0,0,0-.084-.021c-.042,0-.155-.007-.155-.007H191.5c-.021,0-.028.007-.035.028a.176.176,0,0,0,.028.127c.028.035.113.049.169.063a1.271,1.271,0,0,0,.134.035c.049,0,.056-.007.077-.042" transform="translate(-178.002 -197.875)"/><path class="a" d="M196,323.062c.042-.028.021-.084.007-.12s-.077-.042-.105-.042a.106.106,0,0,0-.07.014.3.3,0,0,1-.091.056c-.049.014-.084.035-.155.056a.411.411,0,0,0-.113.091c-.028.021-.084,0-.084,0s-.042-.014-.056,0,0,.035.028.063.077.028.134.042.07.007.091-.014.042-.049.077-.07a.722.722,0,0,1,.169-.035.354.354,0,0,0,.169-.042" transform="translate(-181.588 -200.998)"/><path class="a" d="M204.677,320.076c.021.021.042.042.056.014s.049-.091.028-.127-.042-.063-.042-.063-.035.1-.049.127-.014.028.007.049" transform="translate(-190.27 -198.209)"/><path class="a" d="M200.727,316.327a.307.307,0,0,0-.042-.127.569.569,0,0,1-.035.1.18.18,0,0,1-.049.07.525.525,0,0,0,.077.014c.021,0,.049,0,.049-.056" transform="translate(-186.495 -194.77)"/><path class="a" d="M196.863,316.732a.27.27,0,0,0,.12-.056.1.1,0,0,0,.021-.112.19.19,0,0,0-.077-.063h-.035a.438.438,0,0,1-.042.084c-.021.028-.049.049-.049.084s0,.07.063.063" transform="translate(-182.962 -195.048)"/><path class="a" d="M198.477,314.312a.106.106,0,0,0-.028-.077l-.035-.035a.542.542,0,0,0-.007.07.111.111,0,0,0-.007.028s.021.021.035.021.035.021.042-.007" transform="translate(-184.45 -192.91)"/><path class="a" d="M175.963,265.172s.07,0,.042-.26a1.683,1.683,0,0,0-.274-.675,3.428,3.428,0,0,1-.267-.577,1.586,1.586,0,0,1-.077-.436.273.273,0,0,1,.042-.155s.021-.028,0-.042-.042,0-.07.028a.378.378,0,0,0-.07.113.159.159,0,0,0-.014.049.474.474,0,0,0-.141-.007c-.084.007-.134.014-.134.035s.014.035.077.063a.334.334,0,0,1,.134.077,1.356,1.356,0,0,1,.141.316,3.711,3.711,0,0,1,.1.534,2.093,2.093,0,0,0,.176.626c.035.063.2.366.338.309" transform="translate(-162.695 -145.33)"/><path class="a" d="M190.355,299.924c-.063.035-.056.281-.028.408a1,1,0,0,0,.19.33c.035.042.049.042.07.028s.028-.014.028-.014a.4.4,0,0,0,.091-.049c.042-.035.021-.112.021-.176a1.129,1.129,0,0,0-.155-.366c-.113-.169-.162-.2-.218-.162" transform="translate(-176.925 -179.626)"/><path class="a" d="M188.222,295.341a.147.147,0,0,0-.148-.141.13.13,0,0,0-.091.028c-.077.07-.035.253.084.253a.173.173,0,0,0,.12-.035.129.129,0,0,0,.035-.105" transform="translate(-174.729 -175.246)"/><path class="a" d="M202.288,327.281a.316.316,0,0,1-.1-.049.586.586,0,0,1-.134-.127c-.014-.035-.014-.035-.056-.021a.576.576,0,0,1-.155.014c-.049,0,.007.056.042.105a.549.549,0,0,1,.021.225.2.2,0,0,1-.007.042.04.04,0,0,0,.014.049c.014.007.021-.007.056-.042s.1-.141.1-.141a.506.506,0,0,1,.063.014.4.4,0,0,0,.183-.007c.028-.021.007-.056-.028-.063" transform="translate(-187.634 -204.88)"/><path class="a" d="M204.632,331.839c-.021-.007-.035-.007-.042.007a.21.21,0,0,0-.028.056.047.047,0,0,0,.007.042.1.1,0,0,0,.035.021.192.192,0,0,0,.035.028c.021.007.021-.021.021-.042s.014-.056.014-.084-.021-.021-.042-.028" transform="translate(-190.176 -209.305)"/><path class="a" d="M189.046,205.624a1.7,1.7,0,0,0,.239.534c.084.141.105.2.091.2s-.049-.063-.1-.12-.134-.2-.211-.316a3.715,3.715,0,0,1-.2-.387c-.014-.021-.021-.035-.056-.007a.636.636,0,0,0-.021.506,1.791,1.791,0,0,0,.274.4.793.793,0,0,1,.12.183c-.014.007-.035-.014-.1-.091s-.176-.19-.253-.281a2.646,2.646,0,0,1-.169-.267c-.014-.021-.021-.014-.035-.007s-.063.077-.049.232a.727.727,0,0,0,.232.443c.1.105.2.2.183.211s-.12-.077-.19-.141-.246-.232-.281-.281-.091-.021-.091.162.211.373.3.478.19.162.183.183-.091-.035-.148-.07-.267-.176-.3-.2-.063.028-.007.2a.766.766,0,0,0,.3.38c.091.063.239.141.225.162s-.07-.007-.155-.049a1.745,1.745,0,0,0-.26-.1c-.07-.021-.07.035-.07.035a.384.384,0,0,0,.091.267.605.605,0,0,0,.352.19c.12.021.134.028.134.042s-.014.021-.042.021-.134.014-.232.014-.155.021-.155.07,0,.105.148.2a.961.961,0,0,0,.387.127c.07.014.07.021.056.042s-.049.021-.155.028a.3.3,0,0,0-.2.084.176.176,0,0,0,.1.176.573.573,0,0,0,.387.07c.176-.014.218-.014.225.014s-.049.035-.141.056a.391.391,0,0,0-.2.056c-.049.042-.014.127.07.19a.734.734,0,0,0,.387.056c.091-.007.225-.035.232-.014s-.063.056-.155.091-.12.056-.134.091,0,.07.105.113a.5.5,0,0,0,.352,0c.084-.035.127-.056.141-.035s0,.028-.014.049a.426.426,0,0,1-.176.1c-.091.021-.1.021-.134.1s.049.134.211.141a1.077,1.077,0,0,0,.457-.1c.07-.042.1-.049.105-.035s.007.021-.028.049a.82.82,0,0,1-.2.12.081.081,0,0,0-.063.091c0,.035-.014.113.134.148a.59.59,0,0,0,.478-.105.424.424,0,0,0,.1-.091,1.051,1.051,0,0,1,.014-.345.537.537,0,0,1-.148-.035.249.249,0,0,1-.141-.162c-.021-.042-.049-.042-.084-.035a.215.215,0,0,1-.12.021.334.334,0,0,1-.232-.12.29.29,0,0,1-.063-.225c0-.042-.07-.014-.105-.014a.457.457,0,0,1-.232-.077.289.289,0,0,1-.105-.19c-.007-.035-.049-.056-.077-.07a.408.408,0,0,1-.141-.077.356.356,0,0,1-.091-.19c0-.035-.042-.035-.176-.105a.243.243,0,0,1-.113-.267c.007-.056.07-.105.07-.12s-.042-.028-.091-.056a.247.247,0,0,1-.155-.232c0-.162.105-.183.105-.183a.31.31,0,0,1-.063-.035c-.042-.028-.162-.105-.162-.2a.169.169,0,0,1,.077-.162.86.86,0,0,1,.12-.049.2.2,0,0,1-.077-.113.262.262,0,0,1,.021-.239.238.238,0,0,1,.2-.07c.049,0,.091.028.113.014s.021-.028,0-.063a.257.257,0,0,1-.007-.162.188.188,0,0,1,.141-.141.35.35,0,0,1,.3.07c.042.021.021-.035.021-.07a1.322,1.322,0,0,0-.183-.288,3.033,3.033,0,0,1-.246-.443,3.966,3.966,0,0,1-.2-.584c-.014-.07-.042-.035-.042-.035s-.028.014-.1.183a.935.935,0,0,0-.077.457" transform="translate(-175.167 -91.365)"/><path class="a" d="M199.158,224.175a.3.3,0,0,1-.246-.155c-.077-.113-.19-.134-.387-.134a.312.312,0,0,1-.337-.225c-.049-.134.007-.288.211-.387a.433.433,0,0,0,.3-.38c.007-.169-.2-.38-.408-.619a2.933,2.933,0,0,1-.373-.577.3.3,0,0,0-.063.162c0,.077.028.162,0,.183s-.042-.035-.162-.084-.218-.063-.3.028,0,.239.07.309.127.127.105.148-.12-.042-.155-.063a.326.326,0,0,0-.232-.1c-.12.014-.155.042-.169.141s.105.183.183.225.105.07.084.084-.035,0-.07-.014a.344.344,0,0,0-.19,0,.129.129,0,0,0-.07.211.675.675,0,0,0,.316.148c.035.007.056-.007.063.028s-.077.028-.183.035a.141.141,0,0,0-.12.176c.014.077.183.162.281.176s.127,0,.134.028-.014.035-.063.056-.155.028-.176.113a.151.151,0,0,0,.056.19.325.325,0,0,0,.246.056c.035-.007.084-.049.12-.014s-.035.07-.1.113-.063.134.049.19a.334.334,0,0,0,.267.021c.042-.014.105-.084.134-.042s-.091.063-.148.127a.158.158,0,0,0,.07.232.35.35,0,0,0,.309-.007.068.068,0,0,1,.091-.014c.021.021-.014.084-.035.134a.189.189,0,0,0,.091.267c.155.063.3-.077.33-.1a.069.069,0,0,1,.077-.021c.021.014.014.035-.007.063a.152.152,0,0,0,.056.218.267.267,0,0,0,.2.042c.021-.091.056-.183.084-.316h-.021c-.014,0-.021.021-.021.028s.007.014-.007.014-.014.007-.035.021-.035.028-.049.021.042-.035.056-.049.042-.042.042-.063.014-.028.035-.049l.021-.021a2.752,2.752,0,0,0,.049-.316c.014-.084.014-.162.021-.239Z" transform="translate(-183.07 -106.914)"/><path class="a" d="M179.654,204.634a1.787,1.787,0,0,0,.408.534s-.028-.084-.042-.141a.341.341,0,0,1,0-.127,2.639,2.639,0,0,1-.169-.246,1.48,1.48,0,0,1-.169-.422s.105.253.183.387a1.744,1.744,0,0,0,.169.239s.035-.12.056-.127.042.014.056.035.035.021.035.021-.028-.056-.07-.127a.714.714,0,0,1-.063-.091,2.574,2.574,0,0,1-.267-.478c-.07-.19-.218-.661-.246-.8s-.049-.063-.077.042a1.2,1.2,0,0,0-.042.464,2.292,2.292,0,0,0,.239.837" transform="translate(-166.794 -89.728)"/><path class="a" d="M176.417,217.534c.063.049.155.113.155.113a.419.419,0,0,1-.021-.077c-.007-.042-.014-.127-.014-.127s-.077-.063-.127-.113a1.868,1.868,0,0,1-.246-.26c-.127-.162-.028-.063.077.049s.3.281.3.281v-.035a.172.172,0,0,1,.028-.084c.021-.021.007-.028-.105-.113a3.173,3.173,0,0,1-.52-.612c-.12-.2-.246-.457-.246-.457a1.388,1.388,0,0,0,.176.823,1.775,1.775,0,0,0,.541.612" transform="translate(-163.339 -101.708)"/><path class="a" d="M187.03,267.629a.144.144,0,0,0,.091-.183l-.155.056a1.832,1.832,0,0,1-.323.084c-.07,0-.07-.007-.07-.021s.056,0,.155-.021a1.414,1.414,0,0,0,.316-.134c.028-.021.028-.028-.021-.028a.25.25,0,0,1-.105-.042c-.014-.014-.063.007-.183.035a2.753,2.753,0,0,1-.548.07,3.466,3.466,0,0,1-.394-.035c-.028-.007-.063.014.028.162a.817.817,0,0,0,.626.232,1.8,1.8,0,0,0,.584-.176" transform="translate(-172.701 -149.342)"/><path class="a" d="M181.537,260.1a.55.55,0,0,0,.309-.063s0-.014-.028-.056a.257.257,0,0,1-.021-.127s-.056.007-.148.021a.978.978,0,0,1-.323.007c-.12-.021-.07-.035.028-.021a1.028,1.028,0,0,0,.345-.042c.063-.021.035-.042-.007-.056a1.064,1.064,0,0,1-.148-.084,2.624,2.624,0,0,1-.534.007,2.156,2.156,0,0,1-.471-.105c-.049-.007-.049.014-.049.014s-.014.021.077.162a.733.733,0,0,0,.408.274,2,2,0,0,0,.563.07" transform="translate(-167.798 -142.13)"/><path class="a" d="M177.2,249.563a.448.448,0,0,1-.021-.063.087.087,0,0,1,.028-.084,1.819,1.819,0,0,0-.225-.035,1.927,1.927,0,0,1-.281-.056c-.105-.021-.176-.056-.169-.063s.035.007.1.028.323.049.429.063.176.028.19.014a.38.38,0,0,1,.084-.028.79.79,0,0,0-.105-.021.327.327,0,0,1-.141-.056c-.028-.021-.042-.028-.176-.042a2.343,2.343,0,0,1-.5-.148,2.112,2.112,0,0,1-.485-.239c-.049-.042-.049-.014-.035.042a.535.535,0,0,0,.134.267.911.911,0,0,0,.506.323,2.035,2.035,0,0,0,.668.1" transform="translate(-163.518 -132.119)"/><path class="a" d="M174.051,239.685a1.955,1.955,0,0,0,.675.281c.014-.021-.014-.084,0-.127s.049-.049.113-.049.021-.014.007-.014a.59.59,0,0,1-.134-.028,3.247,3.247,0,0,1-.38-.105c-.155-.056-.2-.1-.2-.113s.07.035.211.091a1.851,1.851,0,0,0,.4.091c.091.021.014-.021-.028-.042a.618.618,0,0,1-.105-.12,1.71,1.71,0,0,1-.267-.07,2.029,2.029,0,0,1-.436-.183,1.7,1.7,0,0,1-.141-.1c-.091-.07-.19-.134-.225-.162-.056-.042-.042-.007-.035.014a.859.859,0,0,0,.134.267,1.359,1.359,0,0,0,.408.366" transform="translate(-161.303 -123.015)"/><path class="a" d="M174.7,229.71a1.722,1.722,0,0,0,.555.3c.042.014.035-.007.028-.028a.806.806,0,0,1-.014-.1l-.211-.12a3.381,3.381,0,0,1-.309-.2c-.077-.056-.035-.049-.007-.028s.141.084.246.155.281.169.281.169a.1.1,0,0,1,.028-.063c.021-.021.084-.014.084-.014a.617.617,0,0,1-.049-.056c-.014-.028-.105-.056-.211-.105a2.464,2.464,0,0,1-.422-.3,5.328,5.328,0,0,1-.415-.422c-.014-.021-.028-.021-.028.007a.459.459,0,0,0,.014.183,1.28,1.28,0,0,0,.429.619" transform="translate(-161.998 -113.595)"/><path class="a" d="M192.417,185.448a1,1,0,0,0,.091.155c.035.063.056.105.056.105a.144.144,0,0,0,0-.063.375.375,0,0,1,0-.155.551.551,0,0,0,.014-.1.246.246,0,0,0-.021-.084c-.007-.035-.049-.2-.07-.309a2.444,2.444,0,0,1-.042-.422c0-.141.021-.07.021,0a2.727,2.727,0,0,0,.028.338,3.89,3.89,0,0,0,.091.415s.007-.035.021-.091.056-.12.084-.183.021-.077.021-.077-.1-.464-.12-.682-.063-.795-.063-.795a1.579,1.579,0,0,0-.267.872,3.17,3.17,0,0,0,.042.619,1.721,1.721,0,0,0,.113.457" transform="translate(-178.741 -71.4)"/><path class="a" d="M185.624,192.5c.007-.105.028-.183.1-.211a1.41,1.41,0,0,1-.113-.253,2.958,2.958,0,0,1-.084-.337c-.035-.246-.063-.506.007-.084a2.038,2.038,0,0,0,.162.57l.105.176a.711.711,0,0,1-.014-.211,1.428,1.428,0,0,1,.042-.288,2.991,2.991,0,0,1-.211-.57,3.8,3.8,0,0,1-.134-.766c-.007-.162-.014-.225-.014-.225s-.134.1-.176.612a3.162,3.162,0,0,0,.155,1.181c.07.183.176.408.176.408" transform="translate(-172.257 -77.722)"/><path class="a" d="M194.438,272.337l-.084-.056c-.063-.042-.042-.162-.042-.162a.342.342,0,0,1-.063.042.6.6,0,0,1-.162.091,1.442,1.442,0,0,1-.134.056c-.042.014-.028-.007.007-.021a.66.66,0,0,1,.127-.063,1.488,1.488,0,0,0,.253-.183.757.757,0,0,0-.112-.007.485.485,0,0,1-.155-.035,1.482,1.482,0,0,1-.352.183,2.36,2.36,0,0,1-.52.155.273.273,0,0,0,.162.19.859.859,0,0,0,.57.007,1.972,1.972,0,0,0,.506-.2" transform="translate(-179.616 -153.677)"/><path class="a" d="M201.962,277.691a.256.256,0,0,0-.042-.2.3.3,0,0,0-.056.049.933.933,0,0,1-.218.169c-.12.056-.162.056-.049-.007a1.818,1.818,0,0,0,.281-.232l-.042-.014c-.042-.014-.12.014-.436.2a1.2,1.2,0,0,1-.5.2.645.645,0,0,0,.52.155c.38-.021.52-.2.541-.323" transform="translate(-186.774 -158.75)"/><path class="a" d="M213.535,278.9a.56.56,0,0,1-.1.1.883.883,0,0,1-.211.063.661.661,0,0,1-.035.056.874.874,0,0,1-.162.176.41.41,0,0,1-.176.07c-.007-.014.063-.035.127-.077a.927.927,0,0,0,.169-.162c.042-.049-.021-.042-.021-.042s-.077,0-.155-.007-.056,0-.077.035a.918.918,0,0,1-.105.134c-.063.077-.134.148-.2.225-.042.049-.014.063-.014.063s.021.035.19.049a.51.51,0,0,0,.338-.07.961.961,0,0,0,.232-.2.66.66,0,0,0,.2-.415" transform="translate(-197.623 -160.092)"/><path class="a" d="M223.443,281.216a.811.811,0,0,1-.063.077.687.687,0,0,1,.056-.134.391.391,0,0,1,.042-.056,1.734,1.734,0,0,1-.07-.2,1.819,1.819,0,0,1-.148.352c-.091.141-.169.19-.113.232a.245.245,0,0,0,.26-.007.3.3,0,0,0,.155-.218,1.043,1.043,0,0,1-.056-.091.13.13,0,0,0-.063.049" transform="translate(-207.44 -161.952)"/><path class="a" d="M287.456,207.664a.766.766,0,0,0,.3-.38c.049-.176.035-.232-.007-.2s-.246.162-.3.2-.141.091-.148.07.1-.084.183-.183.288-.288.3-.478-.056-.211-.091-.162-.211.211-.281.281-.176.162-.19.141.084-.105.183-.211a.727.727,0,0,0,.232-.443c.014-.155-.021-.211-.042-.232s-.021-.014-.035.007a2.649,2.649,0,0,1-.169.267,3.382,3.382,0,0,1-.253.281c-.07.07-.091.1-.1.091s.063-.113.12-.183a1.728,1.728,0,0,0,.274-.4.632.632,0,0,0-.021-.506c-.035-.028-.042-.014-.056.007a3.717,3.717,0,0,1-.2.387c-.077.105-.169.253-.211.316s-.084.134-.1.12.007-.063.091-.2a1.663,1.663,0,0,0,.239-.527,1.118,1.118,0,0,0-.07-.457c-.063-.169-.1-.183-.1-.183s-.028-.035-.042.035a2.76,2.76,0,0,1-.2.584,2.947,2.947,0,0,1-.246.443,1.322,1.322,0,0,0-.183.288c0,.042-.021.1.021.07a.427.427,0,0,1,.3-.07c.127.042.127.105.141.141a.255.255,0,0,1-.007.162c-.021.035-.014.049,0,.063s.063-.014.112-.014a.238.238,0,0,1,.2.07.243.243,0,0,1,.021.239.2.2,0,0,1-.077.113.351.351,0,0,1,.12.049.178.178,0,0,1,.077.162c0,.091-.12.176-.162.2a.31.31,0,0,1-.063.035s.105.021.105.183a.238.238,0,0,1-.155.232c-.042.028-.091.035-.091.056s.063.07.07.12a.243.243,0,0,1-.113.267c-.134.07-.169.07-.176.105a.3.3,0,0,1-.091.19.409.409,0,0,1-.141.077c-.028.014-.07.035-.077.07a.238.238,0,0,1-.105.19.457.457,0,0,1-.232.077c-.035,0-.105-.035-.105.014a.3.3,0,0,1-.063.225.334.334,0,0,1-.232.12.523.523,0,0,1-.12-.021c-.035-.014-.063-.014-.084.035a.3.3,0,0,1-.141.162.6.6,0,0,1-.148.035,1.291,1.291,0,0,1,.014.345.315.315,0,0,0,.1.091.585.585,0,0,0,.478.105c.148-.035.134-.112.134-.148a.081.081,0,0,0-.063-.091.82.82,0,0,1-.2-.12c-.035-.028-.035-.035-.028-.049s.035-.007.105.035a1.051,1.051,0,0,0,.457.1c.162-.007.246-.063.211-.141s-.042-.07-.134-.1a.344.344,0,0,1-.176-.1c-.021-.021-.035-.035-.021-.049s.056,0,.141.035a.6.6,0,0,0,.352,0c.105-.042.12-.077.105-.113s-.042-.056-.134-.091-.162-.07-.155-.091.141.007.232.014a.734.734,0,0,0,.387-.056c.084-.063.127-.148.07-.19a.412.412,0,0,0-.2-.056c-.091-.014-.148-.021-.141-.056s.049-.028.225-.014a.573.573,0,0,0,.387-.07c.091-.063.113-.148.1-.176a.281.281,0,0,0-.2-.084c-.113-.014-.141-.007-.155-.028s-.014-.028.056-.042a.961.961,0,0,0,.387-.127c.148-.1.148-.155.148-.2s-.049-.07-.155-.07-.211-.014-.232-.014-.042,0-.042-.021.014-.021.134-.042a.605.605,0,0,0,.352-.19.348.348,0,0,0,.091-.267s0-.056-.07-.035a1.745,1.745,0,0,0-.26.1c-.084.042-.148.07-.155.049s.134-.1.218-.169" transform="translate(-265.054 -91.458)"/><path class="a" d="M284.287,222.72a.344.344,0,0,0-.19,0c-.035.014-.049.028-.07.014s.014-.049.084-.084.19-.127.183-.225-.049-.134-.169-.141a.326.326,0,0,0-.232.1c-.035.021-.134.091-.155.063s.035-.077.105-.148.141-.225.07-.309-.176-.077-.3-.028-.134.113-.162.084,0-.105,0-.183a.328.328,0,0,0-.063-.162,2.933,2.933,0,0,1-.373.577c-.211.239-.415.45-.408.619a.433.433,0,0,0,.3.38c.2.1.26.253.211.387a.312.312,0,0,1-.338.225c-.2-.007-.309.021-.387.134a.317.317,0,0,1-.246.155H282.1a1.435,1.435,0,0,0,.021.239c.014.127.035.225.049.316l.021.021c.028.021.035.035.035.049s.028.042.042.063.063.042.056.049-.028-.007-.049-.021-.021-.021-.035-.021-.007-.007-.007-.014,0-.028-.021-.028h-.021c.028.134.063.225.084.316a.267.267,0,0,0,.2-.042.155.155,0,0,0,.049-.218c-.021-.028-.028-.049-.007-.063s.049-.007.077.021a.326.326,0,0,0,.33.1.186.186,0,0,0,.091-.267c-.021-.056-.056-.113-.035-.134a.068.068,0,0,1,.091.014.35.35,0,0,0,.309.007c.105-.063.127-.169.07-.232s-.176-.077-.148-.127.091.028.134.042a.367.367,0,0,0,.267-.021c.112-.063.112-.148.049-.19s-.134-.077-.1-.113.084.007.12.014a.3.3,0,0,0,.246-.056.153.153,0,0,0,.056-.19c-.021-.084-.12-.091-.176-.113s-.07-.028-.063-.056.042-.014.134-.028.267-.1.281-.176-.014-.176-.12-.176-.183-.007-.183-.035.021-.021.063-.028a.61.61,0,0,0,.316-.148c.112-.105.014-.183-.049-.211" transform="translate(-262.265 -106.914)"/><path class="a" d="M321.512,205.3a1.677,1.677,0,0,0,.408-.534,2.5,2.5,0,0,0,.246-.83,1.181,1.181,0,0,0-.042-.464c-.028-.105-.056-.176-.077-.042s-.176.612-.246.8a2.574,2.574,0,0,1-.267.478.711.711,0,0,0-.063.091c-.042.07-.07.127-.07.127s.014,0,.035-.021.035-.042.063-.035.056.127.056.127a1.745,1.745,0,0,0,.169-.239c.077-.134.183-.387.183-.387a1.48,1.48,0,0,1-.169.422c-.113.169-.169.246-.169.246a.653.653,0,0,1,0,.127.943.943,0,0,0-.056.134" transform="translate(-298.802 -89.862)"/><path class="a" d="M324.2,216s-.127.267-.246.457a3.405,3.405,0,0,1-.52.612c-.113.084-.12.091-.105.112a.112.112,0,0,1,.028.084v.035s.2-.169.3-.281.2-.211.077-.049a1.273,1.273,0,0,1-.246.26c-.049.042-.127.113-.127.113s-.007.084-.014.127a.421.421,0,0,1-.021.077s.091-.063.155-.113a1.63,1.63,0,0,0,.534-.619A1.339,1.339,0,0,0,324.2,216" transform="translate(-300.59 -101.615)"/><path class="a" d="M313.335,184.372a1.579,1.579,0,0,0-.267-.872s-.042.577-.063.795-.12.682-.12.682-.007.014.014.077.063.134.084.183a.66.66,0,0,1,.028.091,3.89,3.89,0,0,0,.091-.415,2.731,2.731,0,0,0,.028-.338c0-.07.021-.141.021,0a3.647,3.647,0,0,1-.035.422,3.153,3.153,0,0,1-.07.309.723.723,0,0,0-.021.084.552.552,0,0,0,.014.1.558.558,0,0,1,0,.155.145.145,0,0,0,0,.063s.021-.042.056-.105c.021-.042.056-.091.091-.155a1.712,1.712,0,0,0,.112-.464,3.183,3.183,0,0,0,.035-.612" transform="translate(-290.884 -71.4)"/><path class="a" d="M318.98,191.993a3.137,3.137,0,0,0,.155-1.181c-.042-.506-.176-.612-.176-.612s0,.063-.014.225a3.421,3.421,0,0,1-.134.766,3.67,3.67,0,0,1-.211.57,1.429,1.429,0,0,1,.042.288.681.681,0,0,1-.014.211l.105-.176a1.759,1.759,0,0,0,.162-.57c.077-.422.042-.162.007.084a2.107,2.107,0,0,1-.077.337,1.411,1.411,0,0,1-.112.253c.07.021.091.105.1.211a3.4,3.4,0,0,0,.169-.408" transform="translate(-296.198 -77.629)"/><path class="a" d="M307.77,267.311a2.217,2.217,0,0,1-.394.035,2.752,2.752,0,0,1-.548-.07c-.12-.028-.169-.049-.183-.035a.215.215,0,0,1-.105.042c-.049.007-.049.007-.021.028a1.282,1.282,0,0,0,.316.134c.105.021.162.007.155.021s0,.021-.07.021a1.374,1.374,0,0,1-.323-.084c-.07-.028-.155-.056-.155-.056a.154.154,0,0,0,.091.183,1.654,1.654,0,0,0,.57.169c.218,0,.541-.077.626-.232.105-.141.07-.162.042-.155" transform="translate(-284.89 -149.249)"/><path class="a" d="M313.215,259.581a4.086,4.086,0,0,1-.471.105,2.626,2.626,0,0,1-.534-.007s-.112.07-.148.084-.063.035-.007.056a1.028,1.028,0,0,0,.345.042c.1-.014.148,0,.028.021a.979.979,0,0,1-.323-.007l-.148-.021a.218.218,0,0,1-.028.127.229.229,0,0,0-.028.056.483.483,0,0,0,.309.063,2.185,2.185,0,0,0,.577-.07.71.71,0,0,0,.408-.274c.091-.141.077-.162.077-.162s0-.021-.056-.014" transform="translate(-289.969 -142.13)"/><path class="a" d="M316.613,248.789a2.111,2.111,0,0,1-.485.239,1.986,1.986,0,0,1-.5.148c-.141.014-.148.021-.183.042a.327.327,0,0,1-.141.056.788.788,0,0,0-.105.021.291.291,0,0,1,.084.028c.021.014.084,0,.19-.014s.373-.042.436-.063.091-.042.1-.028-.07.042-.169.063a2.154,2.154,0,0,1-.281.056c-.169.021-.225.035-.225.035a.087.087,0,0,1,.028.084.449.449,0,0,1-.021.063,2.068,2.068,0,0,0,.675-.1.952.952,0,0,0,.506-.33.414.414,0,0,0,.134-.267c.007-.042.007-.07-.042-.035" transform="translate(-293.037 -132.084)"/><path class="a" d="M320,239.011c-.035.028-.134.1-.225.162a1.7,1.7,0,0,1-.141.1,2.028,2.028,0,0,1-.436.183c-.162.049-.267.07-.267.07a.618.618,0,0,1-.105.12c-.042.028-.12.063-.028.042a2.512,2.512,0,0,0,.4-.1c.141-.056.211-.105.218-.091s-.042.056-.2.112a3.249,3.249,0,0,1-.38.105.522.522,0,0,1-.134.028c-.014,0-.063.014.007.014s.1.007.112.049-.021.105,0,.127a1.73,1.73,0,0,0,.675-.281,1.221,1.221,0,0,0,.4-.366.942.942,0,0,0,.134-.267c0-.021.021-.049-.035-.007" transform="translate(-296.268 -122.987)"/><path class="a" d="M321.577,229.663a.138.138,0,0,1,.028.063s.169-.1.281-.169.225-.134.246-.155.07-.028-.007.028-.2.141-.309.2l-.211.12a.8.8,0,0,1-.014.1c-.007.021-.014.049.028.028a1.992,1.992,0,0,0,.555-.3,1.215,1.215,0,0,0,.429-.626.568.568,0,0,0,.021-.183c0-.028-.014-.035-.028-.007s-.281.309-.415.422a2.464,2.464,0,0,1-.422.3.914.914,0,0,0-.211.105.616.616,0,0,1-.049.056.153.153,0,0,1,.077.021" transform="translate(-298.895 -113.464)"/><path class="a" d="M301.366,272a.55.55,0,0,1-.155.035.757.757,0,0,0-.112.007,1.487,1.487,0,0,0,.253.183.66.66,0,0,1,.127.063c.035.021.042.035.007.021a1.442,1.442,0,0,1-.134-.056,1.652,1.652,0,0,1-.162-.091.635.635,0,0,0-.063-.042s.021.12-.042.162l-.084.056a1.843,1.843,0,0,0,.506.2.832.832,0,0,0,.563-.007.273.273,0,0,0,.162-.19,1.97,1.97,0,0,1-.52-.155,1.491,1.491,0,0,1-.345-.183" transform="translate(-279.836 -153.677)"/><path class="a" d="M295.87,277.328l-.042.014a1.479,1.479,0,0,0,.281.232c.112.063.07.063-.049.007a.8.8,0,0,1-.218-.169c-.042-.035-.056-.049-.056-.049a.27.27,0,0,0-.042.2c.021.12.162.3.541.316a.67.67,0,0,0,.527-.155,1.2,1.2,0,0,1-.5-.2c-.323-.183-.4-.218-.443-.2" transform="translate(-274.945 -158.626)"/><path class="a" d="M286.143,279.145a.649.649,0,0,1-.105-.134c-.021-.035-.007-.042-.077-.035s-.155.007-.155.007-.063-.007-.021.042a.74.74,0,0,0,.169.162c.063.042.134.063.127.077s-.112-.021-.176-.07a.875.875,0,0,1-.162-.176.212.212,0,0,1-.035-.056.639.639,0,0,1-.211-.063.384.384,0,0,1-.1-.1.6.6,0,0,0,.19.408.962.962,0,0,0,.232.2.51.51,0,0,0,.337.07c.169-.021.19-.049.19-.049s.028-.014-.007-.063a2.9,2.9,0,0,0-.2-.218" transform="translate(-265.33 -159.999)"/><path class="a" d="M282.841,280.9a1,1,0,0,1-.07.2.391.391,0,0,1,.042.056.686.686,0,0,1,.056.134.809.809,0,0,1-.063-.077.419.419,0,0,0-.056-.056c-.014.035-.035.063-.049.091a.278.278,0,0,0,.155.218.244.244,0,0,0,.26.007c.049-.035-.028-.091-.113-.232a1.214,1.214,0,0,1-.162-.345" transform="translate(-262.823 -161.952)"/><path class="a" d="M283.377,204.3a.077.077,0,0,1,.077.07.072.072,0,0,1-.077.07.071.071,0,1,1,0-.141" transform="translate(-263.38 -90.738)"/><path class="a" d="M269.013,200.372a.5.5,0,0,0,.127.056.673.673,0,0,0,.429-.035,1.25,1.25,0,0,1,.373-.148c.077-.007.12.028.19.028a.055.055,0,0,0,.049-.021c.014-.028.007-.105-.1-.169a.555.555,0,0,0-.415-.014.992.992,0,0,0-.288.141c-.056.042-.127.105-.141.091s.035-.042.063-.07a.2.2,0,0,1,.042-.035.71.71,0,0,1-.464-.141.283.283,0,0,0,.134.316" transform="translate(-249.965 -86.774)"/><path class="a" d="M259.852,202.956a.405.405,0,0,0-.337.007,1.7,1.7,0,0,0-.19.084.162.162,0,0,1-.063.162.118.118,0,0,1-.176-.028.573.573,0,0,1-.028-.077.924.924,0,0,1-.288.1.9.9,0,0,1-.387-.007s-.105.1-.176.162a1.816,1.816,0,0,1-.155.113.069.069,0,0,0,.042.035c.035.014.049.021.021.056a1.656,1.656,0,0,1-.274.253.99.99,0,0,1-.183.1.22.22,0,0,0,.084.084c.049.021.063.056.042.091s-.2.232-.274.3a.31.31,0,0,1-.162.084c-.035.007-.091.042-.028.12a.374.374,0,0,0,.38.056.787.787,0,0,0,.309-.232s-.035.267-.035.387a1.417,1.417,0,0,0,.035.337.507.507,0,0,0,.042.105.5.5,0,0,0,.176-.246,1.122,1.122,0,0,0,.091-.337c0-.049,0-.084.049-.056a.316.316,0,0,0,.105.049h.028a1.388,1.388,0,0,1-.028-.232.789.789,0,0,1,.077-.352c.042-.042.049.014.056.042a.177.177,0,0,0,.112.134.61.61,0,0,1,.176-.394c.021-.021.035-.056.113-.021a.548.548,0,0,0,.366.028c.112-.042.19-.155.169-.169a.492.492,0,0,1-.3.042c-.127-.042-.19-.084-.112-.162s.105-.084.26-.211a.525.525,0,0,1,.4-.169.209.209,0,0,1,.169.113c.014.014.07.063.07-.049a.422.422,0,0,0-.176-.3" transform="translate(-239.202 -89.457)"/><path class="a" d="M270.911,231.941a.836.836,0,0,1-.07-.141.911.911,0,0,1-.035.1.957.957,0,0,1-.105.183s.063-.014.134-.035a.363.363,0,0,0,.12-.063.093.093,0,0,1-.042-.042" transform="translate(-251.666 -116.304)"/><path class="a" d="M257.871,228a.6.6,0,0,1-.141.2.244.244,0,0,1-.169.084.441.441,0,0,0,.084-.056.645.645,0,0,0,.141-.2.623.623,0,0,1-.359.07s-.014.035-.035.091a1.351,1.351,0,0,1-.127.218c-.035.049-.007.056-.007.056a.948.948,0,0,0,.246.084,1.082,1.082,0,0,0,.429.028s-.007-.021-.049-.176a1.716,1.716,0,0,1-.014-.408" transform="translate(-239.161 -112.771)"/><path class="a" d="M226.177,204.3a.077.077,0,0,1,.077.07.072.072,0,0,1-.077.07.071.071,0,1,1,0-.141" transform="translate(-210.202 -90.738)"/><path class="a" d="M224.232,200.306c.07,0,.113-.035.19-.028a1.082,1.082,0,0,1,.373.148.594.594,0,0,0,.429.035,1,1,0,0,0,.127-.056.308.308,0,0,0,.141-.316.71.71,0,0,1-.464.141.2.2,0,0,1,.042.035c.028.028.077.056.063.07s-.084-.049-.141-.091a.832.832,0,0,0-.288-.141.591.591,0,0,0-.415.014c-.105.063-.12.134-.1.169q0,.032.042.021" transform="translate(-208.419 -86.807)"/><path class="a" d="M218.458,204.568a.319.319,0,0,1-.162-.084,3.135,3.135,0,0,1-.274-.3c-.021-.035-.014-.07.042-.091a.22.22,0,0,0,.084-.084.8.8,0,0,1-.183-.1,2.61,2.61,0,0,1-.274-.246c-.021-.042-.014-.042.021-.056a.069.069,0,0,0,.042-.035,1.075,1.075,0,0,1-.155-.112c-.077-.063-.176-.162-.176-.162a.8.8,0,0,1-.387.007.924.924,0,0,1-.288-.1.572.572,0,0,1-.028.077.113.113,0,0,1-.176.028.179.179,0,0,1-.063-.162.867.867,0,0,0-.19-.084.405.405,0,0,0-.338-.007.336.336,0,0,0-.155.3c0,.105.056.063.07.049a.209.209,0,0,1,.169-.113.5.5,0,0,1,.4.169c.148.127.183.134.26.211s.014.12-.113.162a.5.5,0,0,1-.3-.042c-.028.014.056.127.169.169a.548.548,0,0,0,.366-.028c.077-.028.091,0,.113.021a.647.647,0,0,1,.176.394.177.177,0,0,0,.113-.134c.007-.021.014-.077.056-.042a.813.813,0,0,1,.077.352,1.389,1.389,0,0,1-.028.232h.028a.248.248,0,0,0,.1-.049c.049-.028.049,0,.049.056a1.073,1.073,0,0,0,.091.338.5.5,0,0,0,.176.246.507.507,0,0,0,.042-.105,1.416,1.416,0,0,0,.035-.338c0-.127-.035-.387-.035-.387a.8.8,0,0,0,.309.232.4.4,0,0,0,.38-.056c.056-.084-.007-.12-.042-.127" transform="translate(-200.627 -89.55)"/><path class="a" d="M237.605,231.8s-.049.105-.07.141-.035.042-.035.042a.379.379,0,0,0,.113.063c.07.021.134.035.134.035a.956.956,0,0,1-.105-.183c-.028-.077-.035-.1-.035-.1" transform="translate(-220.801 -116.304)"/><path class="a" d="M245.241,228.3c-.021-.056-.035-.091-.035-.091a.685.685,0,0,1-.359-.07.645.645,0,0,0,.141.2c.07.049.084.056.084.056s-.07.014-.169-.084a.6.6,0,0,1-.141-.2,1.716,1.716,0,0,1-.014.408c-.042.155-.049.176-.049.176a1.082,1.082,0,0,0,.429-.028.948.948,0,0,0,.246-.084s.028-.007-.007-.056a1.353,1.353,0,0,1-.127-.218" transform="translate(-227.495 -112.864)"/><path class="a" d="M240.531,298.505a.226.226,0,0,0,.183-.07c.042-.056.063-.141.091-.183a.155.155,0,1,1,.007.1.581.581,0,0,0-.035.3c.021.12.1.141.141.12a.365.365,0,0,0,.134-.141l.042-.084c.028-.056.056-.155.07-.148s.014.07,0,.12a1.7,1.7,0,0,0-.07.3c0,.077.007.225.084.232s.12-.063.169-.225.056-.211.07-.211.021.113.021.162a.7.7,0,0,0,.007.105.578.578,0,0,0,.063.218c.042.035.07.028.07.028s.028.007.07-.028a.985.985,0,0,0,.07-.323c0-.049,0-.162.021-.162s.028.049.07.211.084.232.169.225.091-.148.084-.232a1.85,1.85,0,0,0-.07-.3c-.021-.091.007-.084.07.035.021.035.035.077.056.112a.306.306,0,0,0,.113.12c.042.014.12,0,.141-.12a1.77,1.77,0,0,0-.07-.457.386.386,0,0,1,.035.056c.035.049.049.134.091.183a.184.184,0,0,0,.183.07c.049-.014.056-.105.021-.267s-.176-.246-.281-.38a1.322,1.322,0,0,1-.176-.359,1.264,1.264,0,0,0-.345.239c-.211.218-.26.274-.26.274a3.675,3.675,0,0,0-.26-.274,1.47,1.47,0,0,0-.345-.246,1.787,1.787,0,0,1-.2.345c-.049.056-.113.105-.155.162a.539.539,0,0,0-.105.232c-.035.162-.028.253.021.267" transform="translate(-223.578 -177.384)"/><path class="a" d="M239.012,312.434c.063-.056.091-.084.091-.084s.042-.035.035.035a.968.968,0,0,0-.021.281c.014.063.021.12.1.07a.6.6,0,0,0,.134-.112c.035-.042.077-.056.07.007a1.006,1.006,0,0,0-.021.281c.014.127.077.141.155.035a1.733,1.733,0,0,0,.155-.26c.021-.049.07-.1.07,0,0,.211.049.513.281.6.232-.084.281-.387.281-.6,0-.1.049-.049.07,0a1.148,1.148,0,0,0,.155.26c.077.105.141.091.155-.035a1.006,1.006,0,0,0-.021-.281c-.007-.063.028-.042.07-.007a.372.372,0,0,0,.134.112c.077.049.084-.007.1-.07a.968.968,0,0,0-.021-.281c-.014-.07.035-.035.035-.035s.028.028.091.084a.245.245,0,0,0,.148.056.545.545,0,0,0-.049-.352c-.091-.134-.127-.176-.127-.176a.232.232,0,0,1-.091-.021.286.286,0,0,1-.077-.042v.127s.113.105.141.141.077.084,0,.035a1.244,1.244,0,0,1-.141-.105s-.014.112-.049.141a.093.093,0,0,1-.1.021l-.021-.007-.007.042a.818.818,0,0,1,.077.183c.007.049-.007.049-.035-.021a2.04,2.04,0,0,0-.12-.2c-.028-.049-.07-.077-.063-.021a.491.491,0,0,1-.042.211c-.021.042-.035.049-.035.049s.042.155.049.183,0,.063-.021.021-.091-.183-.091-.183a.346.346,0,0,1-.12-.028.615.615,0,0,1-.07-.127.658.658,0,0,1-.07.169.371.371,0,0,1-.105.084s-.007.225-.007.267-.007.056-.021.056-.021-.014-.021-.056-.007-.267-.007-.267a.507.507,0,0,1-.105-.084,1.1,1.1,0,0,1-.07-.169,1.026,1.026,0,0,1-.063.127c-.028.028-.12.028-.12.028s-.07.148-.091.183-.028.007-.021-.021.049-.183.049-.183a.278.278,0,0,1-.035-.049.624.624,0,0,1-.042-.211c0-.063-.035-.028-.063.021s-.091.134-.12.2-.049.07-.035.021a1,1,0,0,1,.077-.183l-.007-.042-.021.007a.111.111,0,0,1-.1-.021c-.035-.028-.049-.141-.049-.141s-.063.049-.141.105-.021,0,0-.035.141-.141.141-.141V311.9a.286.286,0,0,1-.077.042.608.608,0,0,1-.091.021s-.035.042-.127.176a.545.545,0,0,0-.049.352.232.232,0,0,0,.141-.056" transform="translate(-222.067 -190.772)"/><path class="a" d="M228.7,320.617c.056-.035.105-.07.225-.155a.486.486,0,0,0,.169-.176h-.042c-.021,0-.042-.035-.042-.063s0-.1.007-.183A.383.383,0,0,0,229,319.9a.827.827,0,0,1-.134.091c-.084.042-.113.021-.113.021l-.021-.084s-.035.077-.084.162a1.1,1.1,0,0,1-.281.253,1.484,1.484,0,0,1-.281.176c-.077.028-.035.063-.035.063a.582.582,0,0,0,.281.12.426.426,0,0,0,.366-.084" transform="translate(-212.003 -198.209)"/><path class="a" d="M234.562,324.259a.13.13,0,0,1-.134-.112,2.343,2.343,0,0,1,.007-.246.745.745,0,0,0-.049.056.157.157,0,0,1-.091.042.254.254,0,0,1-.035.07.411.411,0,0,1-.134.141,1.709,1.709,0,0,0-.2.141,1.223,1.223,0,0,1-.183.134.3.3,0,0,0-.155.2c-.021.105-.007.134.077.134a1.071,1.071,0,0,0,.218-.028,1.894,1.894,0,0,0,.45-.267,1.022,1.022,0,0,0,.232-.267" transform="translate(-217.153 -201.928)"/><path class="a" d="M240.041,325.587a.476.476,0,0,1-.077-.148c-.021-.077-.056-.239-.056-.239s-.021.049-.063.141a.235.235,0,0,1-.12.12.331.331,0,0,1-.063.12,1.027,1.027,0,0,1-.246.211.969.969,0,0,0-.281.225.235.235,0,0,0-.042.232c.028.042.077-.007.141-.035a2.614,2.614,0,0,0,.485-.19.8.8,0,0,0,.323-.436" transform="translate(-222.266 -203.137)"/><path class="a" d="M246.193,331.72a.87.87,0,0,0,.077-.352s-.021-.014-.056-.042a.786.786,0,0,1-.1-.127s-.042.084-.084.162a.592.592,0,0,1-.155.19,1.348,1.348,0,0,0-.267.26.409.409,0,0,0,.014.33c.035.063.084.042.134-.007s.07-.063.155-.141a2.067,2.067,0,0,0,.281-.274" transform="translate(-228.313 -208.715)"/><path class="a" d="M269.512,320.519a1.483,1.483,0,0,1-.281-.176,1.1,1.1,0,0,1-.281-.253c-.049-.084-.084-.162-.084-.162l-.021.084s-.035.021-.113-.021a.556.556,0,0,1-.134-.091.382.382,0,0,0-.014.141.872.872,0,0,1,.007.183.057.057,0,0,1-.049.063H268.5a.486.486,0,0,0,.169.176c.127.084.176.12.232.155a.434.434,0,0,0,.359.084.511.511,0,0,0,.281-.12s.056-.035-.028-.063" transform="translate(-249.621 -198.209)"/><path class="a" d="M264.93,324.384a1.369,1.369,0,0,1-.183-.134c-.056-.042-.134-.1-.2-.141a.411.411,0,0,1-.134-.141.255.255,0,0,1-.035-.07.157.157,0,0,1-.091-.042.741.741,0,0,0-.049-.056,1.405,1.405,0,0,1,0,.246c-.014.077-.056.105-.134.113a.932.932,0,0,0,.232.26,2.359,2.359,0,0,0,.45.267.563.563,0,0,0,.218.028c.077.007.1-.028.077-.134a.285.285,0,0,0-.148-.2" transform="translate(-245.53 -201.835)"/><path class="a" d="M259.626,325.791a.89.89,0,0,1-.246-.211.224.224,0,0,1-.063-.12.2.2,0,0,1-.12-.12c-.042-.091-.063-.141-.063-.141s-.042.155-.056.239a.476.476,0,0,1-.077.148.786.786,0,0,0,.33.436,2.611,2.611,0,0,0,.485.19c.063.035.105.077.141.035a.219.219,0,0,0-.042-.232,1,1,0,0,0-.288-.225" transform="translate(-240.789 -203.137)"/><path class="a" d="M256.7,331.552a.751.751,0,0,1-.162-.19c-.042-.077-.084-.162-.084-.162a.786.786,0,0,1-.1.127c-.035.028-.056.042-.056.042a1.046,1.046,0,0,0,.077.352,2.124,2.124,0,0,0,.281.281c.091.077.105.091.162.141s.1.07.134.007a.441.441,0,0,0,.014-.33c-.049-.1-.176-.176-.267-.267" transform="translate(-238.279 -208.715)"/><path class="a" d="M252.352,338.905a.081.081,0,1,0-.155,0,1.454,1.454,0,0,1-.2.176.753.753,0,0,0,.077.281.732.732,0,0,0,.2.218.648.648,0,0,0,.2-.218.753.753,0,0,0,.077-.281,1.454,1.454,0,0,1-.2-.176" transform="translate(-234.281 -215.78)"/><path class="d" d="M323.091,307.935a.175.175,0,0,1-.077-.035.059.059,0,0,0-.042.028.343.343,0,0,1-.091.077s-.1.028-.113.091.035.091.084.084a.349.349,0,0,0,.211-.091.482.482,0,0,0,.07-.12c.007-.014.014-.021-.042-.035" transform="translate(-300.071 -187.053)"/><path class="d" d="M323.948,295.029a.624.624,0,0,0-.323-.429s-.07.246-.091.33-.021.077.042.091.253.056.3.07.1.035.077-.063" transform="translate(-300.773 -174.688)"/><path class="d" d="M310.571,293.027c.042.007.042-.014.056-.07s.091-.359.091-.359a.9.9,0,0,0-.373.077.546.546,0,0,0-.246.239.675.675,0,0,0,.162.042,3.153,3.153,0,0,1,.309.07" transform="translate(-288.296 -172.827)"/><path class="d" d="M309,304.221l-.1-.021a.855.855,0,0,0,.12.267.346.346,0,0,0,.309.141.309.309,0,0,0,.288-.148.7.7,0,0,1,.049-.113s-.274-.035-.387-.063-.211-.049-.281-.063" transform="translate(-287.18 -183.613)"/><path class="c" d="M233.561,238.885a1.247,1.247,0,0,1,.176-.8l-.478-.555a31.082,31.082,0,0,0-2.644,0l-.478.555a1.247,1.247,0,0,1,.176.8,7.46,7.46,0,0,0-.183,1.371,1.352,1.352,0,0,0,.429.759,2.38,2.38,0,0,0,.7.38,2.063,2.063,0,0,1,.513.3,1.99,1.99,0,0,1,.162.141,1.988,1.988,0,0,1,.162-.141,2.062,2.062,0,0,1,.513-.3,2.644,2.644,0,0,0,.7-.38,1.352,1.352,0,0,0,.429-.759,6.962,6.962,0,0,0-.183-1.371" transform="translate(-213.944 -121.603)"/><path class="c" d="M262.039,221.7a.945.945,0,0,1-.239.155v.014a.524.524,0,0,0,.134-.049.648.648,0,0,0,.19-.162.045.045,0,0,0,0-.056,1.17,1.17,0,0,1-.084.1" transform="translate(-243.392 -106.821)"/><path class="c" d="M268.842,224.831c0,.049-.014.366-.014.366s-.007.113-.028.127c.014,0,.035.007.042-.042s.07-.464.07-.464l-.035-.014c-.007-.007-.035-.021-.035.028" transform="translate(-249.9 -109.791)"/><path class="c" d="M271.88,210.836a.516.516,0,0,0-.141.1.257.257,0,0,1-.1.049c-.035.014-.021-.063,0-.127a.652.652,0,0,1,.155-.2c.056-.063,0-.042-.028-.014a1.168,1.168,0,0,0-.155.2,1.37,1.37,0,0,0-.112.373l.084-.056c.042-.028.091-.056.176-.12a1.042,1.042,0,0,0,.176-.155c.035-.049-.021-.056-.056-.049" transform="translate(-252.41 -96.605)"/><path class="c" d="M245.353,221.7a.428.428,0,0,1-.077-.1.045.045,0,0,0,0,.056.773.773,0,0,0,.19.162.648.648,0,0,0,.134.049v-.014a.839.839,0,0,1-.246-.155" transform="translate(-228.021 -106.821)"/><path class="c" d="M241.577,225.176s-.014-.316-.014-.366-.028-.035-.028-.035l-.035.014s.063.408.07.464.035.042.042.042c-.035-.007-.035-.105-.035-.12" transform="translate(-224.52 -109.771)"/><path class="c" d="M234.254,210.575c-.028-.028-.084-.042-.028.014a.782.782,0,0,1,.155.2c.021.063.035.148,0,.127a.217.217,0,0,1-.1-.049,1.056,1.056,0,0,0-.141-.1c-.028-.007-.084,0-.042.049a1.041,1.041,0,0,0,.176.155c.084.063.127.084.176.12l.084.056a1.371,1.371,0,0,0-.113-.373c-.084-.112-.148-.176-.169-.2" transform="translate(-217.625 -96.548)"/><path class="c" d="M255.428,312.13c.007,0,.007-.021.007-.056a1.754,1.754,0,0,1,.014-.176c.007-.049-.014-.049-.028-.042s-.021.042-.021.063.007.155.007.183.014.028.021.028" transform="translate(-237.442 -190.728)"/><path class="c" d="M266.862,305.009c.035.077.042.063.028,0a.543.543,0,0,0-.07-.176.879.879,0,0,0-.12-.134.591.591,0,0,0,.056.1,1.952,1.952,0,0,0,.105.211" transform="translate(-247.948 -184.078)"/><path class="c" d="M263.6,307.862a.817.817,0,0,0,.1.183,1.024,1.024,0,0,0-.056-.2.453.453,0,0,0-.07-.141c-.007,0,.007.049.007.049a.816.816,0,0,0,.021.112" transform="translate(-245.04 -186.867)"/><path class="c" d="M259.442,310.942c.014.035.035.077.042.07s-.021-.077-.021-.1a.635.635,0,0,0-.028-.112c-.021-.049-.035-.028-.035-.007a.861.861,0,0,0,.028.113l.014.035" transform="translate(-241.161 -189.723)"/><path class="c" d="M242.323,305.009a1.434,1.434,0,0,1,.113-.211.592.592,0,0,0,.056-.1.609.609,0,0,0-.12.134.543.543,0,0,0-.07.176c-.028.063-.014.077.021,0" transform="translate(-225.251 -184.078)"/><path class="c" d="M246.386,308.234c.014-.049.021-.084.021-.084s.014-.049.007-.049-.042.028-.07.113a.913.913,0,0,0-.056.2.605.605,0,0,0,.1-.183" transform="translate(-228.97 -187.239)"/><path class="c" d="M251.123,310.942l.014-.035a.861.861,0,0,0,.028-.113c0-.021-.007-.042-.035.007a.317.317,0,0,0-.028.112.31.31,0,0,0-.021.1c.007.007.021-.035.042-.07" transform="translate(-233.426 -189.723)"/><path class="c" d="M234.555,324.821l-.035-.021a.659.659,0,0,1-.056.063.89.89,0,0,1-.091.077.356.356,0,0,1-.12.1c-.056.028-.077.042-.07.049s.049-.014.049-.014a.275.275,0,0,0,.084-.042.722.722,0,0,0,.127-.1,1.542,1.542,0,0,0,.113-.113" transform="translate(-217.716 -202.765)"/><path class="c" d="M238.659,329.134c.028-.028.056-.049.042-.063s-.035-.014-.056.007-.091.084-.127.113a1.041,1.041,0,0,1-.091.07.829.829,0,0,1-.134.077c-.035.021,0,.021,0,.021a.318.318,0,0,1,.056-.021,1.056,1.056,0,0,0,.105-.042.729.729,0,0,0,.07-.042.57.57,0,0,0,.134-.12" transform="translate(-221.524 -206.726)"/><path class="c" d="M243.58,333.092c.021-.042,0-.035-.042-.014s-.12.105-.169.141a.526.526,0,0,1-.127.063c-.042.021-.042.028-.042.042s.021.007.035,0l.077-.042a.153.153,0,0,1,.042-.007c.021,0,.056-.028.105-.07a.372.372,0,0,0,.12-.112" transform="translate(-226.1 -210.445)"/><path class="c" d="M247.773,336.327a.6.6,0,0,0-.2.176c-.028.056-.049.091-.035.105s.042-.007.049-.028.042-.056.042-.056a1.484,1.484,0,0,1,.141-.127.365.365,0,0,0,.12-.134.076.076,0,0,0,0-.063.426.426,0,0,1-.12.127" transform="translate(-230.131 -213.363)"/><path class="c" d="M272.5,325.039a.446.446,0,0,1-.12-.1c-.021-.035-.056-.042-.091-.077a.659.659,0,0,1-.056-.063l-.035.021a1.016,1.016,0,0,0,.105.113.659.659,0,0,0,.127.1.275.275,0,0,0,.084.042s.042.021.049.014-.007-.021-.063-.049" transform="translate(-253.061 -202.765)"/><path class="c" d="M267.758,329.438l-.134-.077c-.028-.021-.056-.042-.091-.07s-.1-.091-.127-.112-.042-.021-.056-.007.014.035.042.063.091.084.134.12a.732.732,0,0,0,.07.042,1.056,1.056,0,0,0,.105.042.32.32,0,0,1,.056.021s.028-.007,0-.021" transform="translate(-248.549 -206.819)"/><path class="c" d="M263.341,333.318a1.059,1.059,0,0,1-.127-.063c-.049-.035-.134-.127-.169-.141s-.063-.028-.042.014a.372.372,0,0,0,.12.113.294.294,0,0,0,.105.07.153.153,0,0,1,.042.007s.056.035.07.042.035.007.035,0,0-.021-.035-.042" transform="translate(-244.505 -210.481)"/><path class="c" d="M259.044,336.234a.483.483,0,0,1-.127-.134.076.076,0,0,0,0,.063.348.348,0,0,0,.112.134.922.922,0,0,1,.141.127s.028.035.042.056.042.042.049.028-.007-.049-.035-.105a.477.477,0,0,0-.183-.169" transform="translate(-240.706 -213.27)"/><path class="c" d="M255.369,341.636c.007.042,0,.148.028.148s.021-.105.028-.148a1.276,1.276,0,0,0,.007-.141h-.07a.532.532,0,0,0,.007.141" transform="translate(-237.404 -218.286)"/><path class="d" d="M234.668,240.236a1.409,1.409,0,0,1,.141-.83l-.429-.478a29.451,29.451,0,0,0-2.573,0l-.429.478a1.475,1.475,0,0,1,.141.83,7.607,7.607,0,0,0-.155,1.287.2.2,0,0,0,.007.063h.394a.138.138,0,0,1,.063-.042l.056-.028s.007-.077.056-.1a.272.272,0,0,1,.084-.014.073.073,0,0,0,.056-.028.413.413,0,0,0,.113-.162.456.456,0,0,0,.042-.162.738.738,0,0,1,.021-.134.037.037,0,0,0-.049-.014c-.042.014-.049-.028-.049-.063a.287.287,0,0,1,.021-.155c.021-.035.028-.049.028-.049l-.014-.063s-.246.049-.3-.141-.049-.288-.056-.309-.014-.035-.049-.028a.185.185,0,0,1-.155-.12c-.049-.1-.056-.141-.042-.183s.042-.028.049-.014.077.105.1.084.014-.028-.021-.105a.183.183,0,0,1-.021-.141.426.426,0,0,0-.014-.105c0-.021.021-.035.049-.028a.391.391,0,0,1,.056.042c.014.014.014.028.035.021s.007-.084.007-.105.028-.042.063-.021a.1.1,0,0,1,.049.077c0,.028,0,.049.014.049s.028-.035.028-.063.014-.063.042-.028a.18.18,0,0,1,.021.127.749.749,0,0,1-.007.105.971.971,0,0,0-.021.183.434.434,0,0,0,.035.176c.028.077.056.169.113.169h.077a.507.507,0,0,1,.113-.155.5.5,0,0,1,.169-.042c.049-.007.07-.021.07-.035s-.014-.014-.077-.028-.113-.021-.113-.07.007-.084-.028-.091a.252.252,0,0,1-.176-.1.121.121,0,0,1-.021-.113c.007-.035.049-.105.077-.042a.172.172,0,0,0,.07.091c.021.014.056.021.042-.028s-.028-.077-.021-.105a.067.067,0,0,1,.056-.056c.028-.007.105-.028.148-.042s.042-.014.042-.014.007-.028.056-.042a.52.52,0,0,1,.127-.021.189.189,0,0,0,.12-.021.231.231,0,0,1,.127-.028.172.172,0,0,1,.084.028c.021.014.014.042.014.063s0,.035.042.035a.239.239,0,0,1,.1.014c.035.014.077.028.049.063s-.028.077-.049.07-.014.021-.021.028-.014.021.007.035.021.028.049.049.07.056.028.1a.492.492,0,0,1-.12.077s-.042.021.007.049.07.091.091.1.035.028.049.035.007.049.007.049a.312.312,0,0,1-.063.035.331.331,0,0,1-.112.028c-.035,0-.056,0-.042.035a.908.908,0,0,1,.042.084c.007.021.014.049.014.049a.533.533,0,0,0,.113.014,1.212,1.212,0,0,0,.19-.014,1.074,1.074,0,0,1,.26-.007c.113.014.127.007.155.021a.187.187,0,0,1,.056.028,1.314,1.314,0,0,0,.239-.021c.084-.021.105-.07.091-.105s-.014-.07-.162-.091-.211-.014-.33-.035-.3-.084-.338-.232a.2.2,0,0,1,.148-.239c.063-.028.19-.077.253-.1a.577.577,0,0,1,.288-.035c.113.014.183.049.225.021s.084-.007.077.035a.254.254,0,0,1-.183.169.772.772,0,0,1-.373.021c-.084-.021-.148-.056-.2-.035a.1.1,0,0,0-.056.162c.056.077.345.1.422.105s.359-.014.443.127a.245.245,0,0,1-.077.337,1.726,1.726,0,0,1-.246.07l-.07.007a.45.45,0,0,1,.035.105c0,.028-.007.091.028.113a.231.231,0,0,0,.148.035.127.127,0,0,1,.141.091c0,.056.021.127.028.239a1.542,1.542,0,0,1,0,.2.633.633,0,0,1-.021.084c-.014.042-.091.19-.091.19h.422c0-.021.007-.042.007-.063a9.878,9.878,0,0,0-.155-1.259" transform="translate(-215.093 -122.905)"/><path class="e" d="M232,280a1.233,1.233,0,0,0,.506.626c.359.218.513.19.851.408s.316.253.323.253-.014-.035.323-.253.492-.19.851-.408a1.165,1.165,0,0,0,.506-.626Z" transform="translate(-215.688 -161.115)"/><path class="a" d="M235.817,248.712a.13.13,0,0,0,.127.049c.056-.007.07.035.084.084a.946.946,0,0,0,.049.26c.042.105.183.105.183.105a.846.846,0,0,1,.042-.169c.007-.007.021-.056-.028-.056s-.049-.021-.077-.07a1,1,0,0,1-.105-.26.679.679,0,0,1,.028-.253c.014-.042.014-.077,0-.084a.111.111,0,0,0-.049,0s.014.035,0,.042-.028-.021-.035-.049-.021-.021-.042-.021-.021.021-.007.042a.089.089,0,0,1,.007.056.316.316,0,0,0-.063-.042c-.021-.007-.063.007-.063.035a.153.153,0,0,0,.056.12.114.114,0,0,1,.028.127c-.014.028-.07.028-.077.014a.036.036,0,0,0-.056,0c-.021.014-.035.028,0,.07" transform="translate(-219.216 -131.633)"/><path class="a" d="M235.056,251.863l-.028-.028a.225.225,0,0,1-.021-.035s-.007.007-.007.035.028.049.028.049Z" transform="translate(-218.477 -134.898)"/><path class="a" d="M236.349,247.543c.021-.007.035-.014.021-.035a.152.152,0,0,0-.042-.049.034.034,0,0,0-.028,0s.014.035.021.056.014.042.028.028" transform="translate(-219.685 -130.859)"/><path class="a" d="M238.407,246.663c0,.021,0,.028.021.021a.04.04,0,0,0,.014-.049.1.1,0,0,0-.028-.028l-.014-.007s.007.049.007.063" transform="translate(-221.638 -130.063)"/><path class="a" d="M240.444,247.342a.153.153,0,0,0-.007-.042.094.094,0,0,1-.007.035c-.007.014-.007.007,0,.021s.007.007.014-.014" transform="translate(-223.52 -130.714)"/><path class="a" d="M243.623,246.659c.028.07.105-.042.176-.127s.063-.021.056.049a.357.357,0,0,0,.049.2c.028.049.049.021.063-.014a1.068,1.068,0,0,1,.042-.141c.021-.035.042-.007.049.028a.352.352,0,0,0,.07.134c.035.042.049-.014.063-.063s.021-.12.035-.155.042-.007.042-.007.021.021.07.063.049-.028.056-.056-.007-.112.007-.12.056.014.112.049.056-.028.049-.063a.314.314,0,0,0-.091-.148c-.049-.042-.056-.091-.042-.112s.07,0,.113-.007.056-.007.084-.014a.037.037,0,0,0,.028-.035.411.411,0,0,0-.056-.07c-.042-.035-.063-.063-.112-.07a.271.271,0,0,0-.113,0l-.007-.014a.015.015,0,0,0-.028,0,.325.325,0,0,1-.049.049c-.021.014-.028.028-.042.021s.007-.021.007-.021a.191.191,0,0,0,.049-.063c.021-.049.028-.091.014-.113s-.07,0-.1,0-.042.007-.042-.007.028-.007.063-.014a.091.091,0,0,0,.063-.077c.014-.035.021-.028.042-.007s.042.014.042,0a.91.91,0,0,1,.042-.084c.021-.035.035-.084.014-.113s-.084-.028-.113-.007a.117.117,0,0,0-.049.091c-.007.049-.021.021-.021.007s-.021-.042-.014-.063a.074.074,0,0,0,0-.042.076.076,0,0,0-.049-.056.387.387,0,0,0-.155.014.051.051,0,0,0-.042.056.525.525,0,0,0-.077.007c-.042.007-.084.021-.12.028s-.049.014-.049.035a.249.249,0,0,0,.007.049.186.186,0,0,1,.049.007c.014.007.007.028-.014.035s-.028.007-.028.035.007.028.028.028a.245.245,0,0,1,.105.021.081.081,0,0,1,.049.084.154.154,0,0,1-.1.056c-.035,0-.042.007-.042.028s.042.021.042.021a.637.637,0,0,1,.112.014.16.16,0,0,1,.12.056c.035.028.007.035-.007.049s-.042.028-.063.042-.042.028-.063.035a.672.672,0,0,0-.183.042.282.282,0,0,0-.141.176l.063-.028c.049-.028.105-.056.162-.084s.056.014.028.063.028.042.042.028a.346.346,0,0,1,.091-.056c.049-.028.035.014.035.014a.426.426,0,0,0-.021.105c-.007.077.077.007.112-.042s.056,0,.028.056-.077.1-.113.1-.049-.035-.056-.049.007-.07-.007-.084-.07,0-.113.028-.049.007-.056-.014.014-.028.007-.042-.028,0-.042.007-.049.028-.127.063-.063.056-.063.113c-.028.021-.014.028.021.1" transform="translate(-226.46 -129.004)"/><path class="a" d="M252.87,244.891l.042-.021.063-.014c.028-.007.028-.021.021-.035s-.021-.021-.056-.021a.281.281,0,0,0-.091.028l-.049.014a.208.208,0,0,1,.021.028c.014.028.035.035.049.021" transform="translate(-235.025 -128.39)"/><path class="a" d="M255.835,246.951a.143.143,0,0,0,.035-.007.319.319,0,0,1,.056-.021c.028-.007.035-.014.056-.042s-.021-.035-.063-.042-.07.007-.077.021a.186.186,0,0,1-.021.07c-.028.021-.007.021.014.021" transform="translate(-237.821 -130.281)"/><path class="a" d="M254.266,249.1c-.049,0-.1.07-.12.084s-.007.021-.007.021a.319.319,0,0,1,.021.056.361.361,0,0,1,.007.07h.035c.028,0,.042-.014.07-.035a.154.154,0,0,1,.084-.035.246.246,0,0,0,.091-.035c.042-.021-.021-.056-.063-.091a.21.21,0,0,0-.12-.035" transform="translate(-236.266 -132.388)"/><path class="a" d="M243.708,248.418c.035-.007.049-.021.049-.042s-.021-.042-.063-.035c-.113.007-.225-.028-.246-.141a.121.121,0,0,0,.035.148.264.264,0,0,0,.225.07" transform="translate(-226.32 -131.551)"/><path class="a" d="M239.19,267.493l.021.021h.176c.028-.007.028-.035.028-.056s.021-.084.042-.2a1.07,1.07,0,0,1,.084-.246c.014-.049-.021-.063-.028-.091a.928.928,0,0,1-.035-.105c-.007-.028-.049-.021-.07-.021s-.028.035-.028.07-.021.134-.035.225a.55.55,0,0,1-.148.232.1.1,0,0,1-.07.035.178.178,0,0,0-.084.014.093.093,0,0,0-.042.07c0,.028.042.042.042.042a.155.155,0,0,0,.042-.035.1.1,0,0,1,.07-.021c.028-.007.028.007.021.021s-.007.014.014.049" transform="translate(-222.195 -148.833)"/><path class="a" d="M237.528,276.593c-.014.007-.021.021-.028.028h.113a.053.053,0,0,0-.014-.028c-.007-.014-.042-.007-.07,0" transform="translate(-220.801 -157.94)"/><path class="a" d="M239.542,276.386a.188.188,0,0,0-.042.035h.127a.033.033,0,0,0-.007-.042c-.028-.021-.056,0-.077.007" transform="translate(-222.66 -157.74)"/><path class="a" d="M254.37,275.9c-.014,0-.028.014-.042.028a.061.061,0,0,0-.028.049v.007h.049v-.007c0-.014.007-.028.028-.049s.007-.028-.007-.028" transform="translate(-236.42 -157.303)"/><path class="a" d="M255.591,276.328c0-.014-.007-.028-.021-.028s-.028.021-.049.035l-.021.021h.077a.053.053,0,0,0,.014-.028" transform="translate(-237.535 -157.675)"/><path class="a" d="M256.461,266.748c.035-.028.028-.035.035-.063s0-.035-.014-.049a.219.219,0,0,0-.12-.035.568.568,0,0,0-.19.035.251.251,0,0,0-.056.162c0,.049.007.056.021.056s.035-.035.035-.035.049.063.077.105.014.063,0,.1a.419.419,0,0,1-.1.148c-.042.021-.07,0-.112-.007a.1.1,0,0,0-.1.035.027.027,0,0,0,.014.049.071.071,0,0,1,.056.021c.014.014.007.049,0,.07h.225c.035-.014.063-.07.077-.1a.388.388,0,0,1,.084-.1c.021-.021.028-.035.028-.084a.265.265,0,0,0-.028-.113.241.241,0,0,1-.028-.112c.007-.028.056-.056.091-.084" transform="translate(-237.934 -148.657)"/><path class="a" d="M244.141,259.728c.021.035.014.042-.021.049a.322.322,0,0,1-.12.007c-.049-.007-.049,0-.049.028a.226.226,0,0,1-.035.12c-.028.042-.063.021-.091.007s-.035-.014-.042.014a.3.3,0,0,1-.049.091c-.021.042-.042.042-.056.042s-.035-.028-.049-.028-.042-.035-.07-.077-.035.007-.056.042-.035.063-.063.056-.07-.063-.084-.1-.028-.07-.056-.07-.077.063-.105.077a.041.041,0,0,1-.056-.007c-.014-.021-.035.007-.049.056a.071.071,0,0,0,.028.1c.028.014.077-.021.113-.049a.121.121,0,0,1,.084-.014c.035,0,.035.056.049.141s.063.1.063.1.021.014.056-.049.042-.127.077-.127.042.007.077.056.07.091.091.049.042-.1.063-.112.049-.028.021.014-.035.077.014.063.253-.1.33-.112c0,0,.091-.014.2-.021s.134-.014.176-.014.042-.007.049-.035-.021-.021-.1-.021a.744.744,0,0,0-.19.021c-.056.007-.084.007-.07-.007s.028-.021.091-.035.2-.014.26-.021.049.021.042.063a1.138,1.138,0,0,0,.007.155.224.224,0,0,0,.042.113c.035.056.162.1.2.12s.028,0,.028-.035.028-.035.063-.014a.384.384,0,0,0,.127.042c.042.007.042.014.042.035s.007.063.007.105a.087.087,0,0,1-.014.077c-.021.028-.091.1-.091.1a.507.507,0,0,0-.1.014c-.07.014-.091.049-.1.077s.014.035.014.049v.035h.014c.007-.007.014-.021.028-.035a.13.13,0,0,1,.127-.021.042.042,0,0,1,.021.056h.162l.084-.169a.265.265,0,0,0,.028-.113c0-.049.007-.253,0-.267a.414.414,0,0,1,0-.1c0-.056,0-.1-.105-.113a.246.246,0,0,1-.176-.091c-.035-.035-.028-.12-.056-.218s-.1-.113-.218-.141a1.224,1.224,0,0,0-.309-.021,1.888,1.888,0,0,1-.267.014c-.077-.007-.063.014-.042.049" transform="translate(-225.987 -142.207)"/><path class="a" d="M266.321,276.539q-.021.011-.021.021h.105a.042.042,0,0,0-.007-.028c-.014-.021-.049-.014-.077.007" transform="translate(-247.576 -157.879)"/><path class="a" d="M268.935,276.582a.154.154,0,0,0-.035.028h.113V276.6a.06.06,0,0,0-.077-.014" transform="translate(-249.993 -157.929)"/><path class="a" d="M231.3,277.6c.007.035.014.07.021.1h3.4a.623.623,0,0,0,.021-.1Z" transform="translate(-215.037 -158.884)"/><path class="a" d="M262.133,248.743a2.513,2.513,0,0,0,.612.105c.162.035.148.155.1.218s-.274.07-.316.077a.356.356,0,0,1,.056.063s.021,0,.091-.007a.47.47,0,0,0,.267-.091.167.167,0,0,0,.007-.253.521.521,0,0,0-.309-.091c-.12-.014-.218-.021-.352-.042s-.2-.077-.2-.155a.15.15,0,0,1,.127-.134.356.356,0,0,1,.211-.007.6.6,0,0,0,.309.014.215.215,0,0,0,.183-.12.513.513,0,0,1-.091.014c-.077,0-.134-.035-.267-.035a.548.548,0,0,0-.253.07c-.063.021-.239.042-.288.148s.014.148.12.225" transform="translate(-243.578 -131.644)"/><path class="c" d="M250.363,246.4a.063.063,0,1,1-.063.063.063.063,0,0,1,.063-.063" transform="translate(-232.701 -129.877)"/><path class="c" d="M268.2,248.781a.9.9,0,0,0-.2.014.1.1,0,0,0,.049.014.509.509,0,0,1,.162.014.215.215,0,0,0,.141-.021,1.531,1.531,0,0,0-.155-.021" transform="translate(-249.156 -132.09)"/><path class="a" d="M308.391,293.145c.07.014.626.127.675.134s.084.021.1.007a.171.171,0,0,1,.07-.042.08.08,0,0,0,.049-.07s.014-.049.021-.091.035-.063.084-.007a.393.393,0,0,1,.077.225c.014.084.141.1.19.112s.07-.007.105-.056a.619.619,0,0,0,.049-.2c.007-.063,0-.056-.063-.07s-.352-.084-.408-.091-.042-.049-.035-.084.12-.408.12-.408a.835.835,0,0,0-.337-.1s-.084.38-.1.436-.049.056-.113.049l-.492-.112-.035.084a.652.652,0,0,0-.049.225c.007.049.021.049.091.063" transform="translate(-286.623 -172.643)"/><path class="a" d="M293.8,303.078c-.056-.035-.1-.049-.134.021a.622.622,0,0,1-.105.246.434.434,0,0,1-.288.141c-.105-.007-.169-.035-.141-.155s.183-.155.225-.218a.141.141,0,0,0-.028-.183.167.167,0,0,0-.155-.042.322.322,0,0,0-.12.162.449.449,0,0,1-.127.218.57.57,0,0,1-.394.084.294.294,0,0,1-.246-.211,3.113,3.113,0,0,0-.141-.394c-.028-.028-.063-.042-.127,0a.187.187,0,0,0-.07.155.221.221,0,0,0,.063.183.8.8,0,0,1,.148.218c.021.077.091.19-.007.2a.212.212,0,0,1-.211-.063c-.07-.07-.359-.26-.436-.323a1.127,1.127,0,0,0-.113-.084.7.7,0,0,1-.394-.148,2.174,2.174,0,0,1,.091.267.637.637,0,0,1,.014.112s.288.148.4.2.337.183.45.253.2.176.4.134.591-.162.717-.2a2.661,2.661,0,0,0,.612-.218c.134-.091.141-.084.169-.176a.154.154,0,0,0-.056-.183" transform="translate(-270.539 -182.239)"/><path class="a" d="M319.535,285.217c.021,0,.028-.007.1-.014s.042.056.028.077-.035.077-.056.12.007.056.028.063a.576.576,0,0,1,.1.028c.056.014.042-.028.042-.042s.007-.127.007-.162.042-.028.056-.021.049.028.077.042.042,0,.042-.014a.284.284,0,0,0,.028-.084c.014-.042-.014-.035-.042-.035h-.105c-.042,0-.014-.042-.014-.042s.028-.049.056-.091.014-.042-.007-.049-.1-.021-.127-.028-.028,0-.028.014v.12c0,.028,0,.049-.042.049a.12.12,0,0,1-.091-.056c-.028-.035-.042-.021-.049-.007a1.27,1.27,0,0,1-.035.134c0,.007.014,0,.035,0" transform="translate(-297.035 -165.727)"/><path class="a" d="M282.667,299.331c-.042-.042.063-.049.127-.049a.538.538,0,0,0,.2-.056,1.572,1.572,0,0,1,.162-.063c.07-.035.028-.042-.042-.063s-.26-.1-.26-.1-.091.049-.141.077a.574.574,0,0,1-.232.084c-.112.014-.148.021-.148.021s.028.028.07.091a1.941,1.941,0,0,1,.112.19c.056.091-.007.035-.056-.021a1.055,1.055,0,0,0-.134-.162.623.623,0,0,0-.084-.07l-.035.077v.028c0,.028-.021.148-.028.2s.014.049.049.07.12.063.323.19a1.552,1.552,0,0,1,.288.218,1.038,1.038,0,0,0,.007-.113.836.836,0,0,0-.049-.3.825.825,0,0,0-.134-.246" transform="translate(-262.34 -178.779)"/><path class="a" d="M269.184,288.63a.664.664,0,0,0,.134.021c.07,0,.1-.021.169-.021a.444.444,0,0,0,.232-.084c.113-.063.007-.042-.077-.035a1.244,1.244,0,0,1-.38-.056c-.091-.035-.021-.042,0-.035a1.416,1.416,0,0,0,.218.049.526.526,0,0,0,.337-.035c.091-.021-.021-.035-.021-.035a1.2,1.2,0,0,1-.492-.274.772.772,0,0,1-.183-.323,1.445,1.445,0,0,1-.211.2.372.372,0,0,0,.035.105.615.615,0,0,0,.105.141.58.58,0,0,1-.141-.084.716.716,0,0,1-.07-.112,1.883,1.883,0,0,1-.323.183.186.186,0,0,1,.042.035.92.92,0,0,1,.141.183c.056.091.007.084-.049,0a.642.642,0,0,0-.2-.183h-.007l-.042.021c-.07.028-.134.056-.2.084a1.384,1.384,0,0,1,.176.176,1.32,1.32,0,0,0,.141.141c.028.035.056.077.091.12a4.281,4.281,0,0,1,.316.387c.056.091.021-.021.007-.091s-.035-.155-.056-.225.021-.042.028,0,.021.042.035.12.063.19.077.267.028.042.049.007a.854.854,0,0,0,.063-.141,1,1,0,0,0,.021-.26.441.441,0,0,0-.063-.211c.014-.028.049-.042.1-.035" transform="translate(-249.342 -168.366)"/><path class="a" d="M293.369,303.639c-.021.007-.084.028-.12.035a.225.225,0,0,1-.049.007.219.219,0,0,0,.155.084h.267a1.311,1.311,0,0,1-.183-.12.083.083,0,0,0-.07-.007" transform="translate(-272.584 -183.087)"/><path class="a" d="M322.646,302.1a.355.355,0,0,1-.014.105c-.007.028-.028.063.007.077a.255.255,0,0,0,.077.021c.021-.007.014-.042,0-.07a.323.323,0,0,0-.049-.1Z" transform="translate(-299.935 -181.661)"/><path class="a" d="M329.523,304.836c.007.021.028.028.049.035s.035.007.035-.021a.133.133,0,0,0-.021-.1c-.021-.028-.035-.056-.049-.007s-.028.07-.014.091" transform="translate(-306.348 -184.094)"/><path class="a" d="M306.4,299.683a.326.326,0,0,1,.063.021,1.044,1.044,0,0,1,.007-.12c.014-.049.028-.084.014-.084s-.028.014-.042.035-.049.028-.063.084.007.056.021.063" transform="translate(-284.832 -179.244)"/><path class="c" d="M214.555,271.836a.35.35,0,0,1-.12.056s-.035,0-.035.014.035,0,.077-.007a.338.338,0,0,0,.113-.063c.021-.014.049-.035.042-.056s-.028.014-.077.056" transform="translate(-199.325 -153.464)"/><path class="c" d="M220.49,275.906a.774.774,0,0,1-.1.077.187.187,0,0,1-.056.028.078.078,0,0,0-.035.028s.007.007.035,0a.6.6,0,0,0,.148-.1c.028-.028.042-.035.028-.042s-.014-.007-.021.007" transform="translate(-204.81 -157.295)"/><path class="c" d="M195.7,228.184c.014.021.035.049.042.035s0-.021-.021-.042a.122.122,0,0,0-.035-.035.256.256,0,0,0-.049-.063c-.021-.021-.042-.028-.014.014a.376.376,0,0,1,.077.091" transform="translate(-181.854 -112.828)"/><path class="c" d="M194.156,233.17a.512.512,0,0,0,.063.056c.021.021.035.049.049.035s-.035-.042-.049-.063a.27.27,0,0,0-.063-.063.414.414,0,0,0-.056-.035.339.339,0,0,0,.056.07" transform="translate(-180.452 -117.513)"/><path class="c" d="M193.74,239.148c.035.035.084.049.091.035s0-.028-.035-.042a.472.472,0,0,1-.1-.063.494.494,0,0,1-.063-.049.107.107,0,0,0-.042-.028c-.007.007.049.063.063.07a.706.706,0,0,1,.084.077" transform="translate(-179.98 -122.998)"/><path class="c" d="M194.962,246.223c0-.014,0-.021-.028-.021a.542.542,0,0,1-.07-.007s-.056-.021-.063-.014.049.035.07.035a.168.168,0,0,1,.063.021c.014,0,.028,0,.028-.014" transform="translate(-181.103 -129.672)"/><path class="c" d="M196.12,252.781a1.13,1.13,0,0,0-.12-.007c0,.007.028.021.063.035a.369.369,0,0,0,.127.014c.042,0,.049-.007.042-.028s-.049-.014-.112-.014" transform="translate(-182.219 -135.801)"/><path class="c" d="M200.23,259.461c-.007-.007-.028,0-.063.007a.369.369,0,0,1-.12.014h-.105s-.042,0-.042.007a.5.5,0,0,0,.127.014.483.483,0,0,0,.162-.014c.035,0,.049-.014.042-.028" transform="translate(-185.845 -142.018)"/><path class="c" d="M204.506,263.921a.243.243,0,0,1-.091.021.793.793,0,0,0-.1.014s-.035.007-.028.014.014,0,.042-.007a.45.45,0,0,1,.1,0,.459.459,0,0,0,.113-.021c.028-.007.063-.021.049-.042s-.049.007-.084.021" transform="translate(-189.923 -146.14)"/><path class="c" d="M210.475,267.576a1.222,1.222,0,0,1-.105.077.156.156,0,0,1-.049.028c-.035.014-.028.021-.028.035s.028-.014.042-.021a1.287,1.287,0,0,0,.113-.07c.028-.028.07-.042.063-.063s-.014-.007-.035.014" transform="translate(-195.506 -149.542)"/><path class="c" d="M202.561,219.537a.936.936,0,0,0,.077.1c.063.084.028.007.014-.014a2.384,2.384,0,0,0-.148-.2c-.035-.035-.035-.021-.021.007s.077.105.077.105" transform="translate(-188.239 -104.779)"/><path class="c" d="M199.178,224.153c.007-.007-.014-.021-.049-.063s-.113-.148-.113-.148-.021-.042-.028-.042.028.077.056.105a1.351,1.351,0,0,1,.091.12c.021.021.035.035.042.028" transform="translate(-184.996 -108.959)"/><path class="c" d="M200.681,238.23c0-.021-.077-.021-.113-.028l-.1-.021s-.07-.014-.07-.007.014.021.056.028.1.028.148.035.077.014.077-.007" transform="translate(-186.309 -122.228)"/><path class="c" d="M201.375,232.408a.537.537,0,0,0,.112.077c.028.014.049.035.063.021s-.014-.028-.056-.049a.648.648,0,0,1-.063-.035.208.208,0,0,0-.042-.021c-.028-.014-.063-.028-.014.007" transform="translate(-187.192 -116.849)"/><path class="c" d="M206.589,227.819a.242.242,0,0,0-.056-.042s-.042-.035-.042-.021.042.049.063.07.07.084.091.07-.028-.056-.056-.077" transform="translate(-191.971 -112.541)"/><path class="c" d="M202.719,244.453s-.042.014-.07.021-.028.021.021.021a.71.71,0,0,0,.12-.021c.049-.007.063-.014.056-.028s-.035-.014-.049-.007a.382.382,0,0,0-.077.014" transform="translate(-188.382 -128.05)"/><path class="c" d="M204.9,249.242c0,.007.035,0,.063-.007s.077-.035.113-.042.028-.014.028-.035-.035-.007-.07.007a.346.346,0,0,0-.091.056s-.035.007-.042.021" transform="translate(-190.493 -132.431)"/><path class="c" d="M209.782,253.252c.035-.021.042-.035.028-.049s-.021-.007-.049.014l-.084.063a.468.468,0,0,1-.049.021c-.021.014-.049.028-.042.042s.049,0,.077-.021a.9.9,0,0,1,.12-.07" transform="translate(-194.848 -136.195)"/><path class="c" d="M213.618,257.191a.762.762,0,0,1,.077-.042c.021-.014.035-.056.014-.063s-.028.021-.063.042-.155.105-.155.105l-.028.014c-.028.014-.021.021.007.021a.208.208,0,0,0,.077-.028.494.494,0,0,0,.07-.049" transform="translate(-198.438 -139.81)"/><path class="c" d="M220.063,261.266a1.185,1.185,0,0,0,.1-.07c.021-.021.049-.042.035-.056s-.035.007-.063.028a1.076,1.076,0,0,0-.091.091s-.007,0-.042.028,0,.021.014.014a.148.148,0,0,1,.049-.035" transform="translate(-204.517 -143.577)"/><path class="c" d="M294.282,271.845a.3.3,0,0,1-.12-.056c-.049-.042-.07-.084-.077-.063s.021.042.042.056a.427.427,0,0,0,.112.063c.042.007.077.021.077.007s-.035-.007-.035-.007" transform="translate(-273.407 -153.417)"/><path class="c" d="M288.41,276.011l-.056-.028s-.084-.063-.1-.077-.014-.021-.028-.007,0,.021.028.042a.6.6,0,0,0,.148.1c.028.007.035,0,.035,0s0-.014-.028-.028" transform="translate(-267.956 -157.295)"/><path class="c" d="M314.074,228.091a.965.965,0,0,1,.07-.1c.035-.042.007-.035-.014-.014a.536.536,0,0,0-.049.063l-.035.035c-.021.028-.035.035-.021.042s.035-.007.049-.028" transform="translate(-291.94 -112.735)"/><path class="c" d="M315.167,233.362c.014.014.028-.014.049-.035l.056-.056c.021-.021.063-.07.063-.07a.415.415,0,0,0-.056.035.27.27,0,0,0-.063.063c-.014.021-.063.049-.049.063" transform="translate(-293.004 -117.605)"/><path class="c" d="M314.915,239.076c-.007-.007-.028.007-.042.028a.5.5,0,0,1-.063.049c-.021.014-.07.049-.1.063s-.042.028-.035.042.056,0,.091-.035a.518.518,0,0,1,.077-.07c.021-.014.077-.07.07-.077" transform="translate(-292.549 -123.066)"/><path class="c" d="M314.7,246.1a.542.542,0,0,1-.07.007c-.028,0-.028.007-.028.021s.014.021.021.014a.662.662,0,0,1,.063-.021c.021-.007.07-.028.07-.035s-.056.014-.056.014" transform="translate(-292.48 -129.579)"/><path class="c" d="M312.512,252.817c-.063,0-.112,0-.112.021s.007.028.042.028a.63.63,0,0,0,.127-.014c.028-.014.063-.028.063-.035s-.056,0-.12,0" transform="translate(-290.434 -135.838)"/><path class="c" d="M307.364,259.483h-.105a.776.776,0,0,1-.127-.014c-.035-.007-.056-.014-.063-.007s0,.028.042.028a.484.484,0,0,0,.162.014.507.507,0,0,0,.127-.014c.007-.007-.035-.007-.035-.007" transform="translate(-285.476 -142.018)"/><path class="c" d="M303.332,263.856a.793.793,0,0,0-.1-.014.243.243,0,0,1-.091-.021c-.035-.014-.07-.042-.084-.021s.021.035.049.042a.4.4,0,0,0,.113.021h.105c.028.007.042.014.042.007s-.035-.014-.035-.014" transform="translate(-281.746 -146.047)"/><path class="c" d="M298.48,267.682a.156.156,0,0,1-.049-.028,1.222,1.222,0,0,1-.105-.077c-.021-.021-.028-.035-.035-.014s.035.035.063.063a.412.412,0,0,0,.112.07c.021.007.035.028.042.021s0-.021-.028-.035" transform="translate(-277.315 -149.542)"/><path class="c" d="M306.424,219.669c.063-.084.077-.1.077-.1l.084-.113c.014-.021.014-.042-.021-.007a2.385,2.385,0,0,0-.148.2c-.021.021-.056.105.007.021" transform="translate(-284.845 -104.806)"/><path class="c" d="M310.172,223.891c-.007-.007-.028.042-.028.042s-.077.1-.112.148-.056.056-.049.07.021,0,.042-.028.063-.084.091-.12a.223.223,0,0,0,.056-.113" transform="translate(-288.185 -108.95)"/><path class="c" d="M307.3,238.23c0,.021.035.014.084.007s.105-.028.148-.035.056-.014.056-.028-.077.007-.077.007l-.1.021c-.035.007-.113,0-.113.028" transform="translate(-285.693 -122.228)"/><path class="c" d="M307.713,232.37a.2.2,0,0,1-.042.021.648.648,0,0,1-.063.035c-.042.021-.07.028-.056.049s.035-.007.063-.021a.536.536,0,0,0,.112-.077c.042-.028.007-.014-.014-.007" transform="translate(-285.923 -116.825)"/><path class="c" d="M303.025,227.9c.021.014.063-.049.091-.07s.07-.056.063-.07-.042.021-.042.021a.242.242,0,0,0-.056.042c-.035.021-.077.063-.056.077" transform="translate(-281.714 -112.541)"/><path class="c" d="M306.046,244.249a.71.71,0,0,0,.12.021c.049,0,.049-.014.021-.021s-.07-.021-.07-.021-.056-.014-.077-.021-.042-.014-.056.007.014.028.063.035" transform="translate(-284.467 -127.832)"/><path class="c" d="M304.062,249.121a.347.347,0,0,0-.091-.056c-.042-.014-.07-.028-.07-.007s0,.021.028.035.084.035.105.042.063.021.063.007-.035-.021-.035-.021" transform="translate(-282.532 -132.338)"/><path class="c" d="M298.9,253.3a.183.183,0,0,0-.049-.021l-.084-.063c-.028-.021-.042-.028-.056-.014s-.007.028.028.049.1.049.127.07a.093.093,0,0,0,.077.021c.007-.014-.021-.035-.042-.042" transform="translate(-277.701 -136.195)"/><path class="c" d="M294.549,257.244c-.035-.014-.028-.014-.028-.014s-.12-.077-.155-.105-.042-.049-.063-.042-.007.049.014.063a.765.765,0,0,1,.077.042.315.315,0,0,0,.063.042.1.1,0,0,0,.077.028c.035.007.049,0,.014-.014" transform="translate(-273.603 -139.807)"/><path class="c" d="M288.847,261.387c-.035-.028-.042-.028-.042-.028a1.074,1.074,0,0,0-.091-.091c-.028-.021-.042-.042-.063-.028s.014.035.035.056a.252.252,0,0,0,.1.07c.028.014.042.021.049.035s.049.014.014-.014" transform="translate(-268.351 -143.67)"/><path class="a" d="M244.365,199.591a2.038,2.038,0,0,1-.7-.091,1.439,1.439,0,0,1-.169.035,2.2,2.2,0,0,0,.865.141,2.316,2.316,0,0,0,.865-.141,1.439,1.439,0,0,0-.169-.035,2.014,2.014,0,0,1-.7.091" transform="translate(-226.379 -86.275)"/><path class="a" d="M243.483,192.776c-.021-.014-.134-.1-.162-.113s-.007-.056,0-.07a1.061,1.061,0,0,1,.2-.07c.07-.021.056-.035.056-.035s-.042-.049-.3-.077-.7-.021-.7-.021-.45-.007-.7.021-.3.077-.3.077-.014.014.056.035a1.061,1.061,0,0,1,.2.07c.007.014.028.056,0,.07a1.325,1.325,0,0,0-.162.113c-.021.014-.021.042.007.042a.571.571,0,0,0,.12-.014,4.723,4.723,0,0,1,.773-.07,4.867,4.867,0,0,1,.773.07c.084.021.091.021.12.014s.028-.028.007-.042" transform="translate(-224.597 -79.664)"/><path class="a" d="M240.512,194.7l-.113.091.141.056.148-.105Z" transform="translate(-223.497 -81.813)"/><path class="a" d="M267.376,194.7l-.176.042.148.105.134-.056Z" transform="translate(-248.413 -81.813)"/><path class="a" d="M248.323,198.842a4.456,4.456,0,0,0-1.223,0,1.869,1.869,0,0,0,.612.063,1.663,1.663,0,0,0,.612-.063" transform="translate(-229.726 -85.624)"/><path class="d" d="M247.121,267.488c-.021-.035-.028-.028-.049-.007s-.049-.049-.049-.1.021-.183.021-.183a1.387,1.387,0,0,0-.176.042.863.863,0,0,1-.176.035.39.39,0,0,1-.105.021.685.685,0,0,0-.127-.007c-.042,0-.042.007-.084.056a.389.389,0,0,0-.091.155.78.78,0,0,0-.056.26.68.68,0,0,1-.028.134h.534a.483.483,0,0,0,.021-.056.181.181,0,0,1,.063-.063c.021-.007.042-.007.049-.035a.126.126,0,0,1,.063-.056.179.179,0,0,1,.12.007.057.057,0,0,0,.07-.035c.014-.014.021-.042.042-.07a.056.056,0,0,0,.007-.056.09.09,0,0,1-.049-.042" transform="translate(-228.889 -149.215)"/><path class="d" d="M262.761,269.362c-.007-.028-.007-.035-.021-.042a.433.433,0,0,1-.077-.021c-.028-.014-.021.063-.021.063a.717.717,0,0,1-.134,0,.443.443,0,0,1-.183-.091.407.407,0,0,1-.063-.07.329.329,0,0,1-.042.035.161.161,0,0,0-.042.1c-.007.042.049.1.056.141a.335.335,0,0,1-.077.169.77.77,0,0,0-.056.105h.26a.126.126,0,0,1,.1-.077.123.123,0,0,1,.007-.035c.007-.021.035-.049.1-.077a.4.4,0,0,1,.141-.028.372.372,0,0,0,.049-.063c.028-.021.014-.077.007-.105" transform="translate(-243.671 -151.074)"/><path class="a" d="M253.241,160.938l.134-.014-.014-.12.141.021.007-.112-.148.014.028-.127h-.169l.028.127-.148-.014v.112l.148-.014Z" transform="translate(-235.304 -50.11)"/><path class="a" d="M252.971,165.862H252.8v-.155c-.014,0-.035-.007-.056-.007a.137.137,0,0,0-.049.007v.155h-.183a.2.2,0,0,0-.007.063v.028h.478v-.028a.1.1,0,0,0-.007-.063" transform="translate(-234.746 -54.852)"/><path class="d" d="M252.925,170.048a.252.252,0,0,0,.232-.148H252.7a.234.234,0,0,0,.225.148" transform="translate(-234.932 -58.756)"/><path class="d" d="M257.3,166.1v.105h.12a.2.2,0,0,0-.12-.105" transform="translate(-239.209 -55.223)"/><path class="d" d="M252.92,166.1a.248.248,0,0,0-.12.105h.12Z" transform="translate(-235.025 -55.223)"/><path class="c" d="M253.177,192.963c-.042-.021-.141-.063-.141-.063a1.6,1.6,0,0,1-.148.07c-.049.028-.042.021-.063.056a.044.044,0,0,0,.021.063c.021.007.183.091.183.091s.162-.077.2-.091.028-.035.021-.063-.028-.042-.07-.063" transform="translate(-235.043 -80.139)"/><path class="c" d="M260.641,193.1a.14.14,0,0,1,.141.134.135.135,0,0,1-.141.134.134.134,0,1,1,0-.267" transform="translate(-242.184 -80.325)"/><path class="c" d="M247.241,193.1a.14.14,0,0,1,.141.134.135.135,0,0,1-.141.134.134.134,0,1,1,0-.267" transform="translate(-229.726 -80.325)"/><path class="a" d="M253.6,193.47l.162.084.155-.084-.162-.07Z" transform="translate(-235.769 -80.604)"/><path class="a" d="M261.384,193.5a.081.081,0,0,1,.084.084.085.085,0,0,1-.084.084.081.081,0,0,1-.084-.084.086.086,0,0,1,.084-.084" transform="translate(-242.927 -80.697)"/><path class="a" d="M247.984,193.5a.081.081,0,0,1,.084.084.085.085,0,0,1-.084.084.084.084,0,1,1,0-.169" transform="translate(-230.47 -80.697)"/><path class="a" d="M244.249,185.983a.2.2,0,0,0,.084.007s.014-.063-.021-.091-.063-.049-.084-.07l-.028-.028v.091a.1.1,0,0,0,.049.091" transform="translate(-227.03 -73.538)"/><path class="a" d="M245.628,189.1a.031.031,0,0,1,.028.021.028.028,0,0,1-.056,0c0-.014.014-.021.028-.021" transform="translate(-228.331 -76.606)"/><path class="a" d="M242.835,188.7a.521.521,0,0,0-.035.042.076.076,0,0,1,.049.021.172.172,0,0,0,.084.028.037.037,0,0,0,.035-.049c-.007-.021-.021-.035-.063-.056s-.063,0-.07.014" transform="translate(-225.728 -76.209)"/><path class="a" d="M240.238,190.191a.362.362,0,0,1-.2-.091.15.15,0,0,1-.134.134l.007.007a.627.627,0,0,0,.148.049.313.313,0,0,0,.113-.007.373.373,0,0,0,.134-.042c.056-.035.035-.12.035-.12a.1.1,0,0,1-.1.07" transform="translate(-223.032 -77.536)"/><path class="a" d="M237.65,189.536a.579.579,0,0,0-.112-.042c-.021,0-.056-.007-.049.035a.086.086,0,0,0,.091.063.176.176,0,0,0,.091-.028c.014-.007.014-.014-.021-.028" transform="translate(-220.789 -76.972)"/><path class="a" d="M234.539,187.535a.24.24,0,0,0-.077-.035.212.212,0,0,0-.014.113.067.067,0,0,0,.084.049c.035,0,.091-.021.077-.049a.176.176,0,0,0-.07-.077" transform="translate(-217.96 -75.119)"/><path class="a" d="M235.928,190.4c.014,0,.028.007.028.021s-.014.021-.028.021-.028-.007-.028-.021.014-.021.028-.021" transform="translate(-219.313 -77.815)"/><path class="a" d="M234.525,174.558a.5.5,0,0,1,.091-.408.667.667,0,0,1,.3-.225.577.577,0,0,1,.063-.077,1.789,1.789,0,0,1,.183-.148s-.148.035-.225.063v.007a.1.1,0,0,1-.1.1.08.08,0,0,1-.056-.021,1.068,1.068,0,0,0-.232.127.132.132,0,0,1,.014.056.1.1,0,0,1-.1.1.075.075,0,0,1-.042-.014c-.007.007-.007.014-.014.021a1.027,1.027,0,0,0-.07.162.1.1,0,0,1,.042.091.089.089,0,0,1-.084.1v.063c.007.035.014.056.07.07s.134.12.134.12.056-.07.021-.183" transform="translate(-217.826 -62.289)"/><path class="a" d="M241.441,174.427a.037.037,0,0,0,.007-.056.055.055,0,0,0-.07.007.037.037,0,0,0-.007.056.083.083,0,0,0,.07-.007" transform="translate(-224.39 -62.903)"/><path class="a" d="M236.109,177.7c.021-.021.028-.056.007-.07s-.049-.014-.077.007-.028.056-.007.07.049.014.077-.007" transform="translate(-219.424 -65.932)"/><path class="a" d="M233.356,182.5a.055.055,0,0,1,.056.056.056.056,0,1,1-.056-.056" transform="translate(-216.896 -70.47)"/><path class="a" d="M241.652,171.934a.6.6,0,0,0-.169.07h0a.1.1,0,0,1,.105.084.109.109,0,0,1-.112.1.1.1,0,0,1-.1-.1.063.063,0,0,1,.007-.035.739.739,0,0,1-.077.049.757.757,0,0,0-.316.352.647.647,0,0,0-.084.457.268.268,0,0,0,.183.134.1.1,0,0,1-.021-.035c0-.021.007-.028.007-.07a.35.35,0,0,0,0-.091.046.046,0,0,1,.049.021c.021.021.042.049.063.07s.07.063.07.063a.186.186,0,0,0,.028-.091c0-.049-.035-.1-.042-.19a.655.655,0,0,1,.12-.352.957.957,0,0,1,.288-.239.081.081,0,0,0,.056-.077c0-.021.007-.035.007-.084.028-.049-.014-.042-.063-.035" transform="translate(-223.954 -60.643)"/><path class="a" d="M248.435,173.405a.062.062,0,0,0,.063-.056.054.054,0,0,0-.056-.049.053.053,0,1,0-.007.105" transform="translate(-230.92 -61.917)"/><path class="a" d="M252.256,188.662a.139.139,0,0,0,.12-.007.05.05,0,0,0,0-.077.087.087,0,0,0-.091-.007.831.831,0,0,0-.084.056s.007.014.056.035" transform="translate(-234.467 -76.105)"/><path class="a" d="M247.158,189.77a.078.078,0,0,1-.077.042.176.176,0,0,1-.134-.035c-.028-.035-.056-.077-.056-.077h-.056a.334.334,0,0,1-.042.1.179.179,0,0,1-.148,0c-.035-.028-.07-.063-.077-.056s0,.035.035.063a.154.154,0,0,0,.127.056h.352s.07.007.091-.035.021-.07.014-.077-.014-.007-.028.021" transform="translate(-229.229 -77.164)"/><path class="a" d="M246.838,188.381c.049.028.084.014.1-.014s.021-.035.021-.035a.619.619,0,0,1-.07-.035c-.021-.014-.042-.028-.063-.021a.041.041,0,0,0-.028.007.108.108,0,0,0,.042.1" transform="translate(-229.442 -75.838)"/><path class="a" d="M256.763,188.458a.046.046,0,0,0,.007.077.134.134,0,0,0,.12.007.15.15,0,0,0,.056-.042.833.833,0,0,0-.084-.056.123.123,0,0,0-.1.014" transform="translate(-238.693 -75.993)"/><path class="a" d="M256.593,189.7a.157.157,0,0,1-.148,0,.334.334,0,0,1-.042-.1h-.056a.337.337,0,0,1-.056.077.176.176,0,0,1-.134.035c-.049,0-.063-.014-.077-.042s-.021-.042-.035-.035-.007.035.014.077.091.035.091.035h.352a.155.155,0,0,0,.127-.056c.035-.035.042-.063.035-.063a.3.3,0,0,1-.07.07" transform="translate(-238.037 -77.071)"/><path class="a" d="M262.67,188.4a.619.619,0,0,1-.07.035s0,.014.021.035a.071.071,0,0,0,.1.014.108.108,0,0,0,.042-.1s0-.007-.028-.007-.042.007-.063.021" transform="translate(-244.136 -75.931)"/><path class="a" d="M265.7,185.791V185.7l-.028.028c-.021.021-.049.042-.084.07s-.021.091-.021.091a.2.2,0,0,0,.084-.007c.035-.007.049-.056.049-.091" transform="translate(-246.888 -73.445)"/><path class="a" d="M265.356,189.121c0-.014-.014-.021-.028-.021a.031.031,0,0,0-.028.021c0,.014.014.021.028.021s.028-.007.028-.021" transform="translate(-246.646 -76.606)"/><path class="a" d="M266.535,188.651a.2.2,0,0,0,.084-.028.183.183,0,0,1,.049-.021.329.329,0,0,1-.035-.042c-.014-.014-.021-.035-.07-.021a.086.086,0,0,0-.063.056c0,.028.007.056.035.056" transform="translate(-247.762 -76.08)"/><path class="a" d="M265.878,190.1a.39.39,0,0,1-.2.091c-.091-.007-.1-.07-.1-.07s-.014.084.035.12a.333.333,0,0,0,.134.042.3.3,0,0,0,.113.007.508.508,0,0,0,.148-.049h.007a.173.173,0,0,1-.134-.141" transform="translate(-246.9 -77.536)"/><path class="a" d="M271.6,189.494a.579.579,0,0,0-.112.042c-.035.014-.042.021-.014.028a.176.176,0,0,0,.091.028.086.086,0,0,0,.091-.063c0-.042-.028-.035-.056-.035" transform="translate(-252.367 -76.972)"/><path class="a" d="M274.848,187.535a.267.267,0,0,0-.077.077c-.014.028.042.049.077.049a.076.076,0,0,0,.084-.049.212.212,0,0,0-.014-.113.182.182,0,0,0-.07.035" transform="translate(-255.449 -75.119)"/><path class="a" d="M274.928,190.4c.014,0,.028.007.028.021s-.014.021-.028.021-.028-.007-.028-.021.014-.021.028-.021" transform="translate(-255.571 -77.815)"/><path class="a" d="M265.78,174.489a.113.113,0,0,1,.042-.091,1.029,1.029,0,0,0-.07-.162c0-.007-.007-.014-.014-.021a.1.1,0,0,1-.042.014.1.1,0,0,1-.1-.1.165.165,0,0,1,.014-.056.835.835,0,0,0-.232-.127.08.08,0,0,1-.056.021.1.1,0,0,1-.1-.1v-.007c-.084-.028-.225-.063-.225-.063a1.236,1.236,0,0,1,.183.148.507.507,0,0,1,.07.077.668.668,0,0,1,.3.225.5.5,0,0,1,.091.408.268.268,0,0,0,.014.19.469.469,0,0,1,.134-.12c.056-.014.07-.035.07-.07v-.063a.114.114,0,0,1-.084-.105" transform="translate(-246.367 -62.382)"/><path class="a" d="M268.877,174.455a.065.065,0,0,0,.07.007.037.037,0,0,0-.007-.056.065.065,0,0,0-.07-.007c-.014.014-.014.035.007.056" transform="translate(-249.956 -62.931)"/><path class="a" d="M274.139,177.741a.064.064,0,0,0,.077.007.047.047,0,0,0-.007-.07.064.064,0,0,0-.077-.007.047.047,0,0,0,.007.07" transform="translate(-254.845 -65.971)"/><path class="a" d="M276.756,182.5a.056.056,0,0,1,0,.113.055.055,0,0,1-.056-.056.06.06,0,0,1,.056-.056" transform="translate(-257.245 -70.47)"/><path class="a" d="M258.342,172.158a.081.081,0,0,0,.056.077.957.957,0,0,1,.288.239.6.6,0,0,1,.12.352c-.007.084-.042.141-.042.19a.186.186,0,0,0,.028.091.514.514,0,0,0,.063-.063c.021-.021.042-.049.063-.07a.076.076,0,0,1,.049-.021.351.351,0,0,0,0,.091c.007.042.014.049.007.07a.048.048,0,0,1-.021.035s.148-.021.183-.134a.608.608,0,0,0-.084-.457.792.792,0,0,0-.316-.352c-.028-.021-.056-.035-.077-.049a.053.053,0,0,1,.007.035.1.1,0,0,1-.1.1.114.114,0,0,1-.112-.1c0-.049.042-.084.105-.084h0a.779.779,0,0,0-.169-.07c-.049-.007-.091-.014-.091.042a.168.168,0,0,1,.042.077" transform="translate(-240.138 -60.74)"/><path class="a" d="M255.056,185.7a.358.358,0,0,1-.028.077.09.09,0,0,0-.028.07.057.057,0,0,0,.113,0,.072.072,0,0,0-.028-.07.358.358,0,0,1-.028-.077" transform="translate(-237.07 -73.445)"/><path class="a" d="M255.428,188.9a.028.028,0,1,1-.028.028.03.03,0,0,1,.028-.028" transform="translate(-237.442 -76.42)"/><path class="a" d="M252.593,173.348a.875.875,0,0,0,.07-.091.044.044,0,1,1,.07,0,.877.877,0,0,0,.07.091.28.28,0,0,0,.113-.176,1.072,1.072,0,0,0-.028-.443c-.021-.155-.035-.429-.035-.429a.3.3,0,0,1-.309,0s-.014.267-.035.429a1.065,1.065,0,0,0-.028.443.315.315,0,0,0,.112.176" transform="translate(-234.713 -60.987)"/><path class="a" d="M261.7,173.349a.062.062,0,0,0,.063.056.055.055,0,0,0,.056-.056.054.054,0,0,0-.056-.049c-.042,0-.063.021-.063.049" transform="translate(-243.299 -61.917)"/><path class="c" d="M242.22,180.8a.113.113,0,1,1,0,.225.117.117,0,0,1-.12-.113.128.128,0,0,1,.12-.113" transform="translate(-225.077 -68.89)"/><path class="c" d="M244.357,176.583a.121.121,0,0,0-.155.028.1.1,0,0,0,.014.141.121.121,0,0,0,.155-.028.089.089,0,0,0-.014-.141" transform="translate(-227.011 -64.954)"/><path class="a" d="M242.77,181.4a.069.069,0,0,1,.07.063.065.065,0,0,1-.07.063.069.069,0,0,1-.07-.063.075.075,0,0,1,.07-.063" transform="translate(-225.635 -69.448)"/><path class="a" d="M244.815,176.976a.081.081,0,0,0-.084.035c-.014.028,0,.056.042.063.07.007.113-.084.042-.1" transform="translate(-227.518 -65.333)"/><path class="c" d="M254.127,181a.12.12,0,1,1-.127.12.13.13,0,0,1,.127-.12" transform="translate(-236.141 -69.076)"/><path class="c" d="M254.22,177.1a.113.113,0,1,1-.12.113.117.117,0,0,1,.12-.113" transform="translate(-236.234 -65.45)"/><path class="c" d="M254.312,173.3a.113.113,0,1,1-.112.113.111.111,0,0,1,.112-.113" transform="translate(-236.327 -61.917)"/><path class="c" d="M266.413,180.8a.113.113,0,1,0,0,.225.117.117,0,0,0,.12-.113.128.128,0,0,0-.12-.113" transform="translate(-247.576 -68.89)"/><path class="c" d="M264.6,176.611a.12.12,0,0,0-.155-.028.09.09,0,0,0-.014.141.12.12,0,0,0,.155.028.1.1,0,0,0,.014-.141" transform="translate(-245.815 -64.954)"/><path class="a" d="M266.97,181.4a.069.069,0,0,1,.07.063.065.065,0,0,1-.07.063.069.069,0,0,1-.07-.063.075.075,0,0,1,.07-.063" transform="translate(-248.134 -69.448)"/><path class="a" d="M265.263,176.976c-.063.021-.028.113.042.1.042-.007.056-.035.042-.063a.086.086,0,0,0-.084-.035" transform="translate(-246.581 -65.333)"/><path class="a" d="M254.963,181.5a.063.063,0,1,1-.063.063.063.063,0,0,1,.063-.063" transform="translate(-236.977 -69.541)"/><path class="a" d="M254.963,177.6a.063.063,0,1,1-.063.063.063.063,0,0,1,.063-.063" transform="translate(-236.977 -65.915)"/><path class="a" d="M255.056,173.9a.056.056,0,1,1-.056.056.055.055,0,0,1,.056-.056" transform="translate(-237.07 -62.475)"/><path class="c" d="M309.805,298.8a.1.1,0,0,1,.105.1.105.105,0,0,1-.211,0,.107.107,0,0,1,.105-.1" transform="translate(-287.924 -178.593)"/><path class="c" d="M313.905,299.8a.105.105,0,1,1-.105.105.108.108,0,0,1,.105-.105" transform="translate(-291.736 -179.523)"/><path class="c" d="M325.805,302.3a.105.105,0,1,1-.105.105.108.108,0,0,1,.105-.105" transform="translate(-302.799 -181.847)"/><path class="c" d="M318.005,300.8a.105.105,0,1,1-.105.105.1.1,0,0,1,.105-.105" transform="translate(-295.548 -180.452)"/><path class="c" d="M319.105,297.2a.105.105,0,1,1-.105.105.1.1,0,0,1,.105-.105" transform="translate(-296.57 -177.105)"/><path class="c" d="M320.105,293.6a.105.105,0,1,1-.105.105.108.108,0,0,1,.105-.105" transform="translate(-297.5 -173.759)"/><path class="a" d="M310.649,299.4a.049.049,0,1,1-.049.049.053.053,0,0,1,.049-.049" transform="translate(-288.761 -179.151)"/><path class="a" d="M314.749,300.4a.049.049,0,1,1-.049.049.048.048,0,0,1,.049-.049" transform="translate(-292.573 -180.08)"/><path class="a" d="M326.649,302.9a.049.049,0,1,1-.049.049.048.048,0,0,1,.049-.049" transform="translate(-303.636 -182.405)"/><path class="a" d="M318.849,301.4a.049.049,0,1,1-.049.049.048.048,0,0,1,.049-.049" transform="translate(-296.384 -181.01)"/><path class="a" d="M319.935,297.8a.049.049,0,1,1-.049.049c-.007-.028.021-.049.049-.049" transform="translate(-297.393 -177.663)"/><path class="a" d="M320.949,294.2a.049.049,0,1,1-.049.049.053.053,0,0,1,.049-.049" transform="translate(-298.337 -174.316)"/></g></svg>