<svg xmlns="http://www.w3.org/2000/svg" width="74.838" height="53.389" viewBox="0 0 74.838 53.389"><g transform="translate(-23.377 -82.202)"><g transform="translate(23.377 82.202)"><rect width="1.536" height="1.972" transform="translate(51.901 30.473) rotate(54.331)"/><rect width="2.42" height="1.536" transform="translate(3.272 36.311)"/><rect width="2.42" height="1.536" transform="translate(0 22.934)"/><path d="M108.977,114.209a14.284,14.284,0,0,0-28.066,3.757,14.132,14.132,0,0,0,1.036,5.352H41.419v1.536h9.654v2.786H45.527v1.536h5.546v7.519H44.44v1.536h6.634v2.66h-3.7v1.536h3.7v11.346h49.307v-22.5a14.228,14.228,0,0,0,6.441-5.015l-1.249-.894a12.707,12.707,0,0,1-5.192,4.243v-6.293H83.622a12.6,12.6,0,0,1-1.176-5.352,12.748,12.748,0,0,1,25.083-3.215l-2.7-1.538-.76,1.335,4.893,2.788,2.833-4.972-1.335-.761ZM97.225,124.854l-6.9,4.95.9,1.248,7.623-5.47v25.849l-16-12.476-.944,1.211,15.478,12.07H54.074l15.478-12.07-.944-1.211-16,12.476V125.582l20.682,14.841a4.176,4.176,0,0,0,4.872,0l8.446-6.061-.9-1.248-8.445,6.061a2.641,2.641,0,0,1-3.081,0L54.229,124.854Z" transform="translate(-36.958 -100.384)"/><path d="M280.742,128.665l-1.221-.932a17.6,17.6,0,0,0-3.636,10.769h1.536A16.077,16.077,0,0,1,280.742,128.665Z" transform="translate(-235.413 -120.74)"/><path d="M314.735,101.175l-.817-1.3a17.875,17.875,0,0,0-2.929,2.3l1.07,1.1A16.325,16.325,0,0,1,314.735,101.175Z" transform="translate(-265.124 -97.161)"/><path d="M353.009,83.738a16.18,16.18,0,0,1,8.623,2.478l.817-1.3a17.793,17.793,0,0,0-16.43-1.285l.6,1.412A16.121,16.121,0,0,1,353.009,83.738Z" transform="translate(-294.773 -82.202)"/><path d="M459.836,108.765a17.917,17.917,0,0,0-1.562-1.4l-.957,1.2a16.4,16.4,0,0,1,1.427,1.282Z" transform="translate(-388.977 -103.498)"/><path d="M346.414,128.683v8.283a2.35,2.35,0,0,0-1.442,1.442h-5.926v1.536h5.926a2.341,2.341,0,1,0,2.978-2.978v-8.283Zm.768,11.3a.806.806,0,1,1,.806-.806A.807.807,0,0,1,347.182,139.983Z" transform="translate(-288.871 -121.544)"/><path d="M463.418,228.556l1.329.769a14.272,14.272,0,0,0,.94-1.956l-1.431-.558A12.739,12.739,0,0,1,463.418,228.556Z" transform="translate(-394.141 -204.601)"/></g></g></svg>