<svg xmlns="http://www.w3.org/2000/svg" width="58.451" height="56.071" viewBox="0 0 58.451 56.071"><g transform="translate(-35.974 -44.932)"><path d="M60.638,52.069A10.077,10.077,0,0,0,63.875,48.6a7.45,7.45,0,0,0,2.133,2.51,12.828,12.828,0,0,0-2.024,3.014q-.115-.223-.248-.451a.9.9,0,1,0-1.554.908,8.017,8.017,0,0,1,.945,2.456.9.9,0,0,0,.878.762h.011a.9.9,0,0,0,.885-.74,10.476,10.476,0,0,1,3.143-5.447.9.9,0,0,0-.206-1.5c-2.538-1.166-3.132-4.4-3.137-4.428a.9.9,0,0,0-1.783.064c-.284,2.926-3.2,4.776-3.228,4.794a.9.9,0,0,0,.947,1.53Z" transform="translate(-20.198 0)"/><path d="M249.9,225.5a.9.9,0,0,0-.9.9V229.7a.9.9,0,0,0,1.8,0V226.4A.9.9,0,0,0,249.9,225.5Z" transform="translate(-184.731 -156.587)"/><path d="M93.937,173.652l-9.269-4.777a.9.9,0,0,0-.077-.048l-7.79-4.151a.9.9,0,0,0-.846,1.588l6.342,3.379L65.212,179.4l-17.061-9.75,6.351-3.384a.9.9,0,0,0-.846-1.588L46,168.758a.9.9,0,0,0-.2,1.645l17.6,10.05-7.509,4.015L38.746,174.5l4.222-2.176a.9.9,0,1,0-.825-1.6l-5.682,2.928a.9.9,0,0,0-.04,1.578l19,11.046a.9.9,0,0,0,.876.016l7.97-4.261v20.2l-17.08-9.761v-7.639a.9.9,0,0,0-1.8,0v8.162a.9.9,0,0,0,.453.781l18.634,10.649a.89.89,0,0,0,.692.327c.02,0,.04,0,.06,0s.04,0,.06,0a.89.89,0,0,0,.692-.327l18.634-10.649a.9.9,0,0,0,.453-.781v-8.043a.9.9,0,1,0-1.8,0v7.52l-17.08,9.761v-21.3l17.994-10.283,7.47,3.849L74.5,184.467l-4.311-2.3a.9.9,0,0,0-.849,1.587l4.753,2.541a.9.9,0,0,0,.877-.016l19-11.046a.9.9,0,0,0-.04-1.578Z" transform="translate(0 -103.747)"/><path d="M142.424,58.622c0,.029.012.056.02.084s.014.054.024.081.023.054.036.08.025.051.04.076.031.045.048.068a.9.9,0,0,0,.06.074c.007.007.011.016.018.023L156.831,73.36h0l.017.014a.9.9,0,0,0,.115.094l.008.006a.892.892,0,0,0,.138.074l.018.009,0,0,.027.008a.89.89,0,0,0,.108.032l.029.008.02,0a.9.9,0,0,0,.152.014h0a.894.894,0,0,0,.152-.015l.02,0,.029-.008a.908.908,0,0,0,.107-.032c.009,0,.018,0,.027-.008l0,0,.018-.009a.89.89,0,0,0,.138-.073l0,0,0,0,0,0a.922.922,0,0,0,.114-.093l.017-.015h0l14.16-14.252c.007-.007.012-.015.018-.023a.851.851,0,0,0,.06-.074c.017-.022.033-.044.048-.067s.027-.05.04-.076a.848.848,0,0,0,.036-.08c.01-.027.017-.054.024-.081s.015-.056.02-.084.007-.057.009-.086,0-.058,0-.088,0-.054-.007-.081a.855.855,0,0,0-.016-.1c0-.011,0-.022-.005-.033s-.011-.027-.016-.041a.847.847,0,0,0-.036-.093c-.011-.025-.024-.05-.038-.074a.867.867,0,0,0-.105-.147c-.01-.012-.018-.025-.029-.036L166.3,51.685a.9.9,0,0,0-.646-.273H149.286a.9.9,0,0,0-.646.273l-5.977,6.161c-.011.011-.018.024-.028.035a.865.865,0,0,0-.059.074c-.017.024-.032.048-.047.073s-.027.05-.039.076a.89.89,0,0,0-.035.091c0,.014-.012.027-.016.042s0,.022-.006.034a.911.911,0,0,0-.016.1c0,.027-.007.055-.007.082s0,.058,0,.088S142.419,58.594,142.424,58.622Zm15.046,11.707L154.2,62.27h6.529Zm-7.8-17.117h15.606L169.921,58l-4.577,1.242-2.478-4.721a.9.9,0,0,0-1.594.836l2.814,5.36a.9.9,0,0,0,1.032.45l3.506-.951-8.643,8.7,2.922-7.211a.9.9,0,0,0-.834-1.238h-9.2a.9.9,0,0,0-.834,1.238l2.921,7.211-8.643-8.7,3.506.951a.9.9,0,0,0,1.032-.45l2.814-5.36a.9.9,0,0,0-1.593-.836l-2.478,4.721L145.018,58Z" transform="translate(-92.3 -5.619)"/><path d="M378.337,98.555a10.076,10.076,0,0,0,3.237-3.468,7.45,7.45,0,0,0,2.134,2.51,12.832,12.832,0,0,0-2.024,3.014q-.115-.222-.248-.451a.9.9,0,1,0-1.554.908,8.016,8.016,0,0,1,.944,2.456.9.9,0,0,0,.878.762h.011a.9.9,0,0,0,.885-.74,10.477,10.477,0,0,1,3.143-5.447.9.9,0,0,0-.206-1.5c-2.538-1.166-3.132-4.4-3.137-4.427a.9.9,0,0,0-1.783.064c-.284,2.926-3.2,4.776-3.228,4.794a.9.9,0,0,0,.947,1.53Z" transform="translate(-295.698 -40.311)"/></g></svg>