<svg xmlns="http://www.w3.org/2000/svg" width="53" height="53" viewBox="0 0 53 53"><defs><style>.a{fill-rule:evenodd;}</style></defs><g transform="translate(-10 -10)"><path class="a" d="M36.5,63A26.5,26.5,0,1,0,10,36.5,26.5,26.5,0,0,0,36.5,63Zm0-10.873c-3.477,0-6.94,3.457-6.94,2.3A6.731,6.731,0,0,1,36.5,48.28a6.769,6.769,0,0,1,6.94,6.142C43.44,55.526,39.977,52.127,36.5,52.127ZM19.4,43.232a1.453,1.453,0,0,0,2.037.8l7.628-3.02s1.856,0,1.54-1.737a1.849,1.849,0,0,0-2.121-1.48L20.1,41.016A1.636,1.636,0,0,0,19.4,43.232Zm34.391,0a1.453,1.453,0,0,1-2.037.8l-7.627-3.02s-1.856,0-1.54-1.737a1.849,1.849,0,0,1,2.121-1.48l8.385,3.217A1.636,1.636,0,0,1,53.792,43.232Zm0,0"/></g></svg>