<svg xmlns="http://www.w3.org/2000/svg" width="100.789" height="84.881" viewBox="0 0 100.789 84.881"><defs><style>.a{fill:#bc8d66;}.b{fill:#cea282;}.c{fill:#f9c04a;}.d{fill:#ffda9f;}.e{fill:#83d689;}.f{fill:#b5f4b8;}.g{fill:#133260;}</style></defs><g transform="translate(0 -40.5)"><g transform="translate(0 40.5)"><g transform="translate(0.886 0.886)"><path class="a" d="M88.79,128.089H11.332A6.823,6.823,0,0,1,4.5,121.257V51.832A6.848,6.848,0,0,1,11.332,45H88.79a6.823,6.823,0,0,1,6.832,6.832v69.444A6.819,6.819,0,0,1,88.79,128.089Z" transform="translate(-4.5 -45)"/><path class="b" d="M9.562,121.257V51.832A6.823,6.823,0,0,1,16.394,45H11.412A6.819,6.819,0,0,0,4.6,51.832v69.444a6.823,6.823,0,0,0,6.832,6.832h4.962A6.853,6.853,0,0,1,9.562,121.257Z" transform="translate(-4.58 -45)"/><path class="c" d="M168.4,45V80.342a2.609,2.609,0,0,0,4.214,2.067l7.462-5.828a2.63,2.63,0,0,1,3.209,0l7.482,5.828a2.609,2.609,0,0,0,4.214-2.067V45Z" transform="translate(-136.129 -45)"/><g transform="translate(32.29)"><path class="d" d="M173.462,45H168.5V80.342a2.609,2.609,0,0,0,4.214,2.067l.748-.591Z" transform="translate(-168.5 -45)"/></g><path class="e" d="M259.1,260.534l-17.76-15.791a1.41,1.41,0,0,0-2.343,1.063v7.856c-19.965,1.122-36.268,15.279-39.694,34.555,9.215-9.51,23.45-16.618,39.694-17.681v8.6a1.41,1.41,0,0,0,2.343,1.063l17.76-15.791A2.594,2.594,0,0,0,259.1,260.534Z" transform="translate(-160.945 -205.128)"/><g transform="translate(78.048 39.258)"><path class="f" d="M421,260.534l-17.76-15.791a1.41,1.41,0,0,0-2.343,1.063v3.249l18.685,16.618,1.418-1.26A2.594,2.594,0,0,0,421,260.534Z" transform="translate(-400.9 -244.386)"/></g></g><path class="g" d="M56.8,374.6H39.706a.9.9,0,0,0-.906.906.891.891,0,0,0,.906.906H56.8a.906.906,0,0,0,0-1.811Z" transform="translate(-31.161 -308.818)"/><path class="g" d="M56.8,408.7H39.706a.906.906,0,0,0,0,1.811H56.8a.9.9,0,0,0,.906-.906A.916.916,0,0,0,56.8,408.7Z" transform="translate(-31.161 -336.204)"/><path class="g" d="M99.647,96.122l-6.734-5.986V48.218A7.731,7.731,0,0,0,85.2,40.5H7.718A7.706,7.706,0,0,0,0,48.218v69.444a7.731,7.731,0,0,0,7.718,7.718H85.176a7.731,7.731,0,0,0,7.718-7.718V107.345l6.734-5.986a3.481,3.481,0,0,0,1.162-2.6A3.62,3.62,0,0,0,99.647,96.122ZM34.062,42.272H58.851V76.728a1.666,1.666,0,0,1-.965,1.536,1.685,1.685,0,0,1-1.811-.2l-7.462-5.828a3.525,3.525,0,0,0-2.166-.748,3.567,3.567,0,0,0-2.166.748l-7.462,5.848a1.685,1.685,0,0,1-1.811.2,1.666,1.666,0,0,1-.965-1.536V42.272ZM7.718,123.588a5.932,5.932,0,0,1-5.926-5.926V48.218a5.932,5.932,0,0,1,5.926-5.926H32.251V76.748A3.505,3.505,0,0,0,37.922,79.5l7.462-5.828a1.687,1.687,0,0,1,2.107,0L54.953,79.5a3.473,3.473,0,0,0,3.682.394,3.46,3.46,0,0,0,1.969-3.15V42.291H85.136a5.932,5.932,0,0,1,5.926,5.926V88.542l-9.234-8.21a2.31,2.31,0,0,0-3.839,1.733v7.029c-19.748,1.477-35.834,15.515-39.536,34.5Zm83.4-5.946a5.932,5.932,0,0,1-5.926,5.926H41.426c9.471-9,22.643-14.688,36.6-15.83V115.4a2.31,2.31,0,0,0,3.839,1.733l9.234-8.21v8.722ZM98.446,100l-17.76,15.791a.5.5,0,0,1-.551.079.494.494,0,0,1-.3-.473v-8.6a.861.861,0,0,0-.276-.65.833.833,0,0,0-.669-.236c-14.452.945-28.175,6.694-38.138,15.87,4.371-17.346,19.689-29.908,38.237-30.952a.888.888,0,0,0,.847-.886V82.083a.489.489,0,0,1,.512-.512.532.532,0,0,1,.335.138L98.446,97.5a1.648,1.648,0,0,1,.571,1.26A1.669,1.669,0,0,1,98.446,100Z" transform="translate(0 -40.5)"/></g></g></svg>