<svg xmlns="http://www.w3.org/2000/svg" width="100.522" height="92.886" viewBox="0 0 100.522 92.886"><defs><style>.a{fill:#ffc742;}.b{fill:#275563;}.c{fill:#f7ead0;}.c,.f{opacity:0.5;}.d{fill:#908152;}.e,.i{fill:#fff;}.f,.g{fill:#d9f0ff;}.h,.i{opacity:0.7;}</style></defs><g transform="translate(0 0.01)"><g transform="translate(0 -0.01)"><path class="a" d="M100.968,49.871v52.368a3.889,3.889,0,0,1-3.889,3.889H89.611l-6.031,8.747a4.541,4.541,0,0,1-7.5-.026l-5.917-8.716H7.889A3.889,3.889,0,0,1,4,102.239V49.871A3.889,3.889,0,0,1,7.889,46H97.08a3.889,3.889,0,0,1,3.889,3.871Z" transform="translate(-2.236 -25.715)"/><path class="b" d="M53.773,92.747H35.644a1.764,1.764,0,0,1,0-3.527H53.773a1.764,1.764,0,0,1,0,3.527Z" transform="translate(-18.943 -49.88)"/><path class="b" d="M65.791,110.037H35.644a1.764,1.764,0,0,1,0-3.527H65.791a1.764,1.764,0,0,1,0,3.527Z" transform="translate(-18.943 -59.547)"/><path class="b" d="M65.791,127.327H35.644a1.764,1.764,0,1,1,0-3.527H65.791a1.764,1.764,0,1,1,0,3.527Z" transform="translate(-18.943 -69.214)"/><rect class="c" width="96.219" height="4.197" transform="translate(2.54 21.612)"/><path class="b" d="M77.6,116.364h0A6.3,6.3,0,0,1,72.4,113.6l-5.392-7.936H5.652A5.657,5.657,0,0,1,0,100V47.635A5.657,5.657,0,0,1,5.652,42H94.843a5.657,5.657,0,0,1,5.652,5.652V59.393a1.764,1.764,0,1,1-3.527,0V47.635a2.125,2.125,0,0,0-2.125-2.107H5.652a2.125,2.125,0,0,0-2.125,2.108V100a2.125,2.125,0,0,0,2.125,2.125H68.866L75.3,111.62a2.742,2.742,0,0,0,2.288,1.217h0a2.738,2.738,0,0,0,2.284-1.2l6.56-9.51h8.377A2.125,2.125,0,0,0,96.938,100V81.583a1.764,1.764,0,1,1,3.527,0V100a5.657,5.657,0,0,1-5.652,5.652H88.3l-5.507,7.984a6.3,6.3,0,0,1-5.2,2.725Z" transform="translate(0 -23.478)"/><ellipse class="d" cx="19.165" cy="19.201" rx="19.165" ry="19.201" transform="translate(53.77 6.3)"/><circle class="e" cx="19.201" cy="19.201" r="19.201" transform="translate(53.885 1.499)"/><path class="f" d="M161.3,38.867a19.2,19.2,0,1,1-37.4-6.1c1.587,8.875,9.748,16.855,18.217,16.855s16.2-6.419,18.209-16.855A19.1,19.1,0,0,1,161.3,38.867Z" transform="translate(-68.714 -18.318)"/><path class="g" d="M160.954,42.77a19.2,19.2,0,1,1-38.4,0,19.423,19.423,0,0,1,.165-2.5,19.2,19.2,0,0,0,38.07,0A19.433,19.433,0,0,1,160.954,42.77Z" transform="translate(-68.522 -22.511)"/><path class="b" d="M138.386,41.918a20.964,20.964,0,1,1,20.942-20.955A20.964,20.964,0,0,1,138.386,41.918Zm0-38.4A17.437,17.437,0,1,0,155.8,20.959,17.437,17.437,0,0,0,138.386,3.522Z" transform="translate(-65.64 0.01)"/><g class="h" transform="translate(6.291 27.485)"><path class="e" d="M15.593,85.266a1.323,1.323,0,0,1-1.323-1.323v-4.92a1.323,1.323,0,1,1,2.645,0v4.92A1.323,1.323,0,0,1,15.593,85.266Z" transform="translate(-14.27 -70.924)"/><path class="e" d="M15.593,67.621A1.323,1.323,0,0,1,14.27,66.3V63.653a1.323,1.323,0,1,1,2.645,0V66.3A1.323,1.323,0,0,1,15.593,67.621Z" transform="translate(-14.27 -62.33)"/></g><circle class="i" cx="1.556" cy="1.556" r="1.556" transform="translate(6.04 44.468)"/><path class="b" d="M154.1,41.436a1.42,1.42,0,0,1,.26-.882.82.82,0,0,1,.688-.353h2.526V37.609a.882.882,0,0,1,.379-.7,1.393,1.393,0,0,1,.882-.309,1.323,1.323,0,0,1,.882.309.908.908,0,0,1,.357.7v2.606H162.6a.882.882,0,0,1,.688.362,1.287,1.287,0,0,1,.309.882,1.261,1.261,0,0,1-.3.882.9.9,0,0,1-.7.339h-2.522v2.645a.882.882,0,0,1-.344.714,1.442,1.442,0,0,1-.917.269,1.5,1.5,0,0,1-.917-.269.842.842,0,0,1-.37-.714V42.679h-2.544a.838.838,0,0,1-.688-.326A1.358,1.358,0,0,1,154.1,41.436Z" transform="translate(-86.153 -20.459)"/><path class="b" d="M221.764,111.04A1.764,1.764,0,0,1,220,109.276v-3.223a1.764,1.764,0,0,1,3.527,0v3.223A1.764,1.764,0,0,1,221.764,111.04Z" transform="translate(-123.005 -58.306)"/><path class="b" d="M221.764,94.954A1.764,1.764,0,0,1,220,93.19v-.137a1.764,1.764,0,0,1,3.527,0v.137A1.764,1.764,0,0,1,221.764,94.954Z" transform="translate(-123.005 -51.037)"/></g></g></svg>