<svg xmlns="http://www.w3.org/2000/svg" width="79.228" height="50" viewBox="0 0 79.228 50"><defs><style>.a{fill:rgba(0,0,0,0.07);}.a,.b,.c{fill-rule:evenodd;}.b{fill:#fff;}.c{fill:#3086c8;}</style></defs><path class="a" d="M72.978,0H6.25A6.2,6.2,0,0,0,0,6.25v37.5A6.316,6.316,0,0,0,6.25,50H72.978a6.2,6.2,0,0,0,6.25-6.25V6.25A6.316,6.316,0,0,0,72.978,0Z"/><path class="b" d="M81.956,11a4.4,4.4,0,0,1,4.228,4.228v37.5a4.276,4.276,0,0,1-4.228,4.228H15.228A4.276,4.276,0,0,1,11,52.728v-37.5A4.4,4.4,0,0,1,15.228,11Z" transform="translate(-8.978 -8.978)"/><path class="c" d="M107.936,71.522v7.721c0,.551-.368.551-1.1.368-3.86-1.654-6.25-6.8-4.779-11.213a8.491,8.491,0,0,1,4.779-4.963c.919-.368,1.1-.184,1.1.368Zm4.228,0V63.8c0-.551,0-.551.551-.368a8.618,8.618,0,0,1,4.963,11.213A7.2,7.2,0,0,1,112.9,79.61c-.735.551-.735.184-.735-.368ZM127.054,57h-17.1A14.282,14.282,0,0,1,124.3,71.522a14.439,14.439,0,0,1-14.338,14.706h17.1a14.439,14.439,0,0,0,14.338-14.706A14.282,14.282,0,0,0,127.054,57Z" transform="translate(-82.936 -46.522)"/></svg>