<svg xmlns="http://www.w3.org/2000/svg" width="85.499" height="90.673" viewBox="0 0 85.499 90.673"><defs><style>.a{fill:#e7e7e7;}.b{fill:#ced0d0;}.c{fill:#426572;}.d{fill:#fff;}.e{fill:none;stroke:#fff;stroke-miterlimit:10;stroke-width:2px;}.f{fill:#a9ea9c;}.g{fill:#91cd86;}</style></defs><g transform="translate(0 -0.008)"><g transform="translate(0 0.007)"><path class="a" d="M83.772,38.255A34.724,34.724,0,0,0,73.1,34.014a16.711,16.711,0,1,0-18.512,0,35.136,35.136,0,0,0-7.455,2.572A16.864,16.864,0,0,0,30.424,21.417a16.692,16.692,0,0,0-9.256,30.592A34.4,34.4,0,0,0,10.5,56.25,9.713,9.713,0,0,0,6,63.835V80.546a5.157,5.157,0,0,0,5.141,5.141H49.707a5.157,5.157,0,0,0,5.141-5.141V67.691H83.132a5.157,5.157,0,0,0,5.141-5.141V45.839A9.173,9.173,0,0,0,83.772,38.255Z" transform="translate(-4.387 -2.48)"/><path class="b" d="M85.764,144.324v16.711a5.157,5.157,0,0,1-5.141,5.141H52.341v12.857a5.16,5.16,0,0,1-5.147,5.141H8.631a5.155,5.155,0,0,1-5.141-5.141v-7.028a36.918,36.918,0,0,0,6.77,1.69c8.713,1.567,18.84,2.542,25.335-3.47,3.056-2.825,4.918-6.937,8.5-9.054s7.971-1.771,12.072-2.287c10.011-1.255,18.77-7.971,24.306-16.394a47.9,47.9,0,0,0,2.577-4.421A9.509,9.509,0,0,1,85.764,144.324Z" transform="translate(-2.552 -100.965)"/><path class="c" d="M45.32,85.5H6.754A6.762,6.762,0,0,1,0,78.75V62.037a11.412,11.412,0,0,1,5.257-8.952,33.583,33.583,0,0,1,8.038-3.6A18.334,18.334,0,1,1,44,32.468q1.271-.511,2.728-.965a18.324,18.324,0,1,1,25.475,0,34.649,34.649,0,0,1,8,3.569,10.833,10.833,0,0,1,5.3,8.979V60.744a6.762,6.762,0,0,1-6.754,6.762H52.074V78.75A6.762,6.762,0,0,1,45.32,85.5ZM26.037,21.237a15.117,15.117,0,0,0-15.1,15.091,14.943,14.943,0,0,0,6.719,12.535l3.152,2.072-3.674.849a32.987,32.987,0,0,0-10.121,4l-.094.059a8.12,8.12,0,0,0-3.7,6.189V78.75a3.534,3.534,0,0,0,3.529,3.529H45.32a3.534,3.534,0,0,0,3.529-3.529V64.281h29.9a3.534,3.534,0,0,0,3.529-3.537v-16.7A7.657,7.657,0,0,0,78.667,37.9l-.094-.048-.086-.059a33.326,33.326,0,0,0-10.129-4.007l-3.674-.849,3.152-2.072a14.94,14.94,0,0,0,6.719-12.535,15.1,15.1,0,1,0-30.2,0,14.94,14.94,0,0,0,6.719,12.535l3.115,2.045-3.623.871a33.748,33.748,0,0,0-7.111,2.446l-2.069,1.04-.245-2.311A15.23,15.23,0,0,0,26.037,21.237Z" transform="translate(0 -0.007)"/><path class="d" d="M84.174,90.755a11.441,11.441,0,0,1,4.569-.6c1.035.075,1.032-1.537,0-1.613a12.631,12.631,0,0,0-5,.661c-.978.331-.559,1.881.43,1.556Z" transform="translate(-60.833 -64.723)"/><path class="d" d="M59.906,118.4a11.349,11.349,0,0,1-4.614-8.1,10.625,10.625,0,0,1,3.625-9.049c.771-.7-.374-1.836-1.14-1.14A12.7,12.7,0,0,0,59.092,119.8c.847.6,1.653-.806.806-1.392Z" transform="translate(-39.279 -73.054)"/><path class="e" d="M73.75,100.17" transform="translate(-53.929 -73.251)"/><path class="f" d="M104.843,177.623s23.336-11.667,23.336-29.171V125.125l-23.336-5.835L81.51,125.125v23.336C81.51,165.956,104.843,177.623,104.843,177.623Z" transform="translate(-59.604 -87.232)"/><path class="g" d="M128.179,186.56v9.753c0,17.5-23.336,29.171-23.336,29.171S81.51,213.822,81.51,196.316V186.56c0,17.5,23.333,29.171,23.333,29.171S128.179,204.064,128.179,186.56Z" transform="translate(-59.604 -136.423)"/><path class="c" d="M100.478,169.225l-.72-.374a63.138,63.138,0,0,1-12-8.237c-7.993-6.988-12.218-14.728-12.218-22.363V113.658l24.948-6.238,24.948,6.238v24.594c0,7.635-4.225,15.367-12.218,22.363a63.138,63.138,0,0,1-12.024,8.237ZM78.757,116.176v22.075c0,14.634,17.875,25.233,21.723,27.343,3.843-2.112,21.723-12.731,21.723-27.343V116.176l-21.723-5.432Z" transform="translate(-55.238 -78.552)"/></g></g></svg>