<svg xmlns="http://www.w3.org/2000/svg" width="135.72" height="44.95" viewBox="0 0 135.72 44.95"><defs><style>.a{fill:#fff;}</style></defs><g transform="translate(-3.4 -2.7)"><path class="a" d="M57.866,6.726A9.838,9.838,0,0,0,55.807,4.9C53.634,3.432,50.706,2.7,47,2.7H26.3V29.19c0,2.631-.572,4.552-1.739,5.765a5.931,5.931,0,0,1-4.529,1.83,6.117,6.117,0,0,1-4.575-1.83c-1.19-1.212-1.761-3.157-1.761-5.765V2.7H3.4V29.19a24.159,24.159,0,0,0,1.167,7.778A16.587,16.587,0,0,0,7.906,42.8a14.76,14.76,0,0,0,5.238,3.706,17.391,17.391,0,0,0,6.863,1.052,17.325,17.325,0,0,0,6.863-1.052A14.76,14.76,0,0,0,32.109,42.8a16.587,16.587,0,0,0,3.34-5.833,24.061,24.061,0,0,0,1.167-7.778V9.7H32.543V29.213a17.92,17.92,0,0,1-1.007,6.268,12.961,12.961,0,0,1-2.7,4.438,10.219,10.219,0,0,1-3.98,2.608,14.15,14.15,0,0,1-4.872.824,14.376,14.376,0,0,1-4.9-.824,10.3,10.3,0,0,1-4-2.608,12.414,12.414,0,0,1-2.7-4.438A17.92,17.92,0,0,1,7.38,29.213V7.138H9.645V29.19a15.62,15.62,0,0,0,.8,5.216,9.923,9.923,0,0,0,2.2,3.637,8.65,8.65,0,0,0,3.294,2.1,12.319,12.319,0,0,0,4.049.663,12.047,12.047,0,0,0,4-.663,8.471,8.471,0,0,0,3.271-2.1,9.923,9.923,0,0,0,2.2-3.637,15.43,15.43,0,0,0,.8-5.216V7.184H47c3.729,0,6.359.961,7.869,2.859a12.03,12.03,0,0,1,2.265,7.663V43.3h-2.2V17.729a8.715,8.715,0,0,0-1.807-5.9c-1.212-1.4-3.248-2.1-6.131-2.1H43.134v4.461h3.729a5.563,5.563,0,0,1,3.271.663c.526.435.8,1.4.8,2.859l-.046,29.852H61.16l.046-29.829C61.206,13.063,60.108,9.38,57.866,6.726Z" transform="translate(0 0)"/><path class="a" d="M283.942,50.434a6.588,6.588,0,0,1-4.827-1.67,6.423,6.423,0,0,1-1.716-4.8V33.3h3.614V43.731a4.537,4.537,0,0,0,.663,2.791,2.6,2.6,0,0,0,2.219.824,4.133,4.133,0,0,0,1.418-.206,2.031,2.031,0,0,0,.869-.595,4.413,4.413,0,0,0,.663-2.768V33.3h3.614V43.8a6.775,6.775,0,0,1-1.693,4.941A6.525,6.525,0,0,1,283.942,50.434Z" transform="translate(-211.322 -23.6)"/><path class="a" d="M351.325,43.525h-2.31V50.2H345.4V33.3h6.771a7.127,7.127,0,0,1,2.265.343,4.831,4.831,0,0,1,1.739,1.007,4.175,4.175,0,0,1,1.1,1.647,5.924,5.924,0,0,1,.389,2.288,4.489,4.489,0,0,1-.755,2.608,4.4,4.4,0,0,1-2.15,1.6l3.66,7.434H354.39Zm.206-7.137h-2.516v4.049h2.15c.343,0,.686-.023,1.052-.046a2.977,2.977,0,0,0,.938-.252,1.615,1.615,0,0,0,.663-.572,1.9,1.9,0,0,0,.252-1.029,2.534,2.534,0,0,0-.16-.984,1.49,1.49,0,0,0-.458-.641A2.8,2.8,0,0,0,351.531,36.388Z" transform="translate(-263.766 -23.6)"/><path class="a" d="M417.753,50.2H411.6V33.3h6.314a11.469,11.469,0,0,1,2.173.206,5.422,5.422,0,0,1,1.876.709,3.755,3.755,0,0,1,1.3,1.373,4.4,4.4,0,0,1,.48,2.15,3.986,3.986,0,0,1-.549,2.082,3.914,3.914,0,0,1-1.578,1.464,3.9,3.9,0,0,1,1.944,1.6,5.216,5.216,0,0,1,.549,2.493,4.167,4.167,0,0,1-1.647,3.66A7.955,7.955,0,0,1,417.753,50.2Zm.275-13.817h-2.791V39.8h2.882a2.842,2.842,0,0,0,.755-.091,1.838,1.838,0,0,0,.641-.3,1.54,1.54,0,0,0,.435-.5,1.412,1.412,0,0,0,.16-.709,1.656,1.656,0,0,0-.526-1.327A2.222,2.222,0,0,0,418.028,36.388Zm.069,6.5h-2.882v4.232h2.928a2.742,2.742,0,0,0,1.761-.48,2.051,2.051,0,0,0,.595-1.67,1.993,1.993,0,0,0-.572-1.578A2.816,2.816,0,0,0,418.1,42.885Z" transform="translate(-314.823 -23.6)"/><path class="a" d="M480.425,46.659h-4.8l-.984,3.546H471l4.9-16.9h4.278L485,50.2h-3.66Zm-3.98-3.088h3.18l-1.556-5.993Z" transform="translate(-360.635 -23.6)"/><path class="a" d="M542.354,39.11V50.2H538.9V33.3h3.66l6.108,10.591V33.3h3.454V50.2h-3.385Z" transform="translate(-413.002 -23.6)"/><path class="a" d="M363.846,122.293l7.846,12.078V122.293h3.386V120.6h-4.049a1.015,1.015,0,0,0-1.007,1.007V128.7l-4.964-7.618a.977.977,0,0,0-.846-.458h-2.905a1.015,1.015,0,0,0-1.007,1.007v15.944a1.015,1.015,0,0,0,1.007,1.007h3.042a1.015,1.015,0,0,0,1.007-1.007v-7.046l4.941,7.595a.977.977,0,0,0,.846.458h2.928a1.015,1.015,0,0,0,1.007-1.007V123.94h-1.67v12.97h-1.9l-7.846-12.055v12.032H361.97V122.293Z" transform="translate(-275.258 -90.93)"/><path class="a" d="M293.67,129.334a7,7,0,0,1-2.1,4.346,7.081,7.081,0,0,1-5.216,2.173A7.2,7.2,0,0,1,281,133.634a7.451,7.451,0,0,1-2.127-5.307,7.612,7.612,0,0,1,.984-3.774,7.475,7.475,0,0,1,6.474-3.729,7.125,7.125,0,0,1,5.216,2.2,7.309,7.309,0,0,1,2.1,4.323l.023.206h1.647l-.023-.252a8.866,8.866,0,0,0-2.608-5.421A8.676,8.676,0,0,0,286.3,119.2a8.979,8.979,0,0,0-4.575,1.235,9.221,9.221,0,0,0-3.317,3.317,9.3,9.3,0,0,0,1.373,11.026,9.06,9.06,0,0,0,15.509-5.4l.023-.252H293.67Z" transform="translate(-211.167 -89.85)"/><path class="a" d="M297.719,133.87a3.941,3.941,0,0,1,2.928,1.235,4.122,4.122,0,0,1,1.1,2.059l.046.183h1.67l-.046-.275a5.947,5.947,0,0,0-1.578-3.134,5.744,5.744,0,0,0-8.189-.046A5.884,5.884,0,0,0,292,138.17a5.621,5.621,0,0,0,2.082,4.575,5.794,5.794,0,0,0,3.706,1.327,5.429,5.429,0,0,0,4.049-1.716,5.619,5.619,0,0,0,1.578-3.18l.046-.275h-1.647l-.046.183a4.167,4.167,0,0,1-1.1,2.1,3.942,3.942,0,0,1-2.882,1.212,4.142,4.142,0,0,1-4.163-4.278,4.411,4.411,0,0,1,1.19-3.134A4.14,4.14,0,0,1,297.719,133.87Z" transform="translate(-222.582 -99.876)"/><path class="a" d="M429.906,120.6a1.015,1.015,0,0,0-1.007,1.007v15.944a1.015,1.015,0,0,0,1.007,1.007l9.585-.023V133.57l-5.216-.023v-2.173l4.118-.023V126.8l-4.118-.023v-1.19h5.216v-1.693h-6.885v4.575h4.14V129.7h-4.163v5.536h5.238v1.647h-7.274V122.293h8.9v-1.647Z" transform="translate(-328.165 -90.93)"/></g></svg>