<svg xmlns="http://www.w3.org/2000/svg" xmlns:xlink="http://www.w3.org/1999/xlink" width="200" height="70" viewBox="0 0 200 70"><defs><style>.a{fill:#fff;stroke:#707070;}.b{clip-path:url(#a);}.c{fill:#ea5b0c;}</style><clipPath id="a"><rect class="a" width="200" height="70" transform="translate(0.245 -0.249)"/></clipPath></defs><g class="b" transform="translate(-0.245 0.249)"><g transform="translate(0.198 14.834)"><path class="c" d="M-20.443,29.923l-6.419,14.052h2.342l1.6-3.6h5.464l1.561,3.6h2.342l-6.375-14.052Zm.781,5.334,1.388,3.209h-3.816l1.388-3.209c.087-.217.173-.477.26-.737s.173-.564.26-.867c.087.347.173.607.26.867a7.021,7.021,0,0,0,.26.737" transform="translate(81.766 -8.846)"/><rect class="c" width="5.074" height="14.052" transform="translate(61.888 3.513)"/><path class="c" d="M-17.713,34.856V20.8H-22.7v4.684h-3.947V20.8h-4.987V34.856h4.987V29.912H-22.7v4.944Z" transform="translate(77.346 -17.292)"/><path class="c" d="M-25.412,36.515a2.869,2.869,0,0,0,1.475-1.041,3.251,3.251,0,0,0,.52-1.865,4.585,4.585,0,0,0-.347-1.735,2.876,2.876,0,0,0-1-1.258,2.8,2.8,0,0,0-1.214-.52,9.378,9.378,0,0,0-2.212-.173h-3.47V43.975h3.47a10.754,10.754,0,0,0,2.819-.26,2.974,2.974,0,0,0,1.388-.824,3.345,3.345,0,0,0,.824-1.3,5.013,5.013,0,0,0,.3-1.6,3.669,3.669,0,0,0-.694-2.342,2.707,2.707,0,0,0-1.865-1.128m-4.033-4.684h.867a4.018,4.018,0,0,1,2.3.477,1.966,1.966,0,0,1,.607,1.6,1.739,1.739,0,0,1-.651,1.518,4.11,4.11,0,0,1-2.255.434h-.867V31.832Zm4.077,9.064a1.789,1.789,0,0,1-.651.737,2.222,2.222,0,0,1-.911.347,9.235,9.235,0,0,1-1.735.087h-.781V37.6h1.431a6.827,6.827,0,0,1,1.084.087,2.135,2.135,0,0,1,.737.26,1.7,1.7,0,0,1,.781.781,2.582,2.582,0,0,1,.26,1.171,1.977,1.977,0,0,1-.217,1" transform="translate(77.325 -8.846)"/><path class="c" d="M-1.843,29.923H-4.575l-4.944,5.811V29.923h-2.212V43.975h2.212V36.819l5.464,7.156h2.862l-6.072-7.806Z" transform="translate(95.78 -8.846)"/><path class="c" d="M22.4,20.8H16.758l-3.166,5.985V20.8h-4.9V34.856h4.9V29l3.339,5.855H23l-4.814-7.113Z" transform="translate(114.694 -17.292)"/><path class="c" d="M21.763,20.8,16.819,34.856h5.334l.434-1.778H26.36l.434,1.778h5.334L27.315,20.8Zm1.691,8.934a3.613,3.613,0,0,0,.173-.651c.043-.217.13-.434.173-.651.13-.564.26-1.084.39-1.648s.173-1.128.26-1.735h.087a11.4,11.4,0,0,0,.26,1.691,10.145,10.145,0,0,0,.39,1.648c.043.217.13.434.173.651s.13.434.173.651H23.455Z" transform="translate(122.222 -17.292)"/><path class="c" d="M36.7,27.917a4.362,4.362,0,0,0,.694-2.342v-.13a4.286,4.286,0,0,0-.434-1.952,3.831,3.831,0,0,0-1.214-1.561,4.167,4.167,0,0,0-1.865-.911,11.388,11.388,0,0,0-2.125-.217H25.465V34.856h4.9V30.216l2.429,4.641h5.595l-3.73-5.681A2.753,2.753,0,0,0,36.7,27.917m-4.64-.911a4.088,4.088,0,0,1-1.3.217h-.39V24.491h.39a4.088,4.088,0,0,1,1.3.217c.39.173.564.564.564,1.171a1.01,1.01,0,0,1-.564,1.128" transform="translate(130.23 -17.292)"/><path class="c" d="M51.159,20.8H45.607L40.663,34.856H46l.434-1.778H50.2l.434,1.778h5.378ZM47.3,29.739c.043-.217.13-.434.173-.651s.13-.434.173-.651c.13-.564.26-1.084.39-1.648s.173-1.128.26-1.735h.087a11.4,11.4,0,0,0,.26,1.691c.13.564.217,1.128.39,1.648.043.217.13.434.173.651s.13.434.173.651H47.3Z" transform="translate(144.306 -17.292)"/><path class="c" d="M41.869,25.575v.911a5.529,5.529,0,0,0,.043.867c0,.13.043.3.043.434s.043.3.043.434l-4.294-7.373h-4.9V34.9h4.814V29.262a2.473,2.473,0,0,0-.043-.564c0-.173-.043-.39-.043-.564a2.539,2.539,0,0,0-.087-.564l4.25,7.286H46.64V20.8H41.826v4.771Z" transform="translate(137.028 -17.292)"/><path class="c" d="M1.264,29.7a7.915,7.915,0,0,0,.217-1.735,7.682,7.682,0,0,0-.52-2.776A6.423,6.423,0,0,0-.557,22.843a6.562,6.562,0,0,0-2.255-1.475,8.018,8.018,0,0,0-2.6-.564h-.217A7.455,7.455,0,0,0-8.8,21.5a6.85,6.85,0,0,0-2.559,2.038A6.968,6.968,0,0,0-12.4,25.575a7.839,7.839,0,0,0-.347,2.212,7.455,7.455,0,0,0,.694,3.166,6.105,6.105,0,0,0,2.038,2.515,6.694,6.694,0,0,0,1.908,1,8.8,8.8,0,0,0,2.082.39h.3a7.648,7.648,0,0,0,3.6-.911A6.328,6.328,0,0,0,.57,31.3h0a4.408,4.408,0,0,0,.694-1.6m-4.6-1.822a2.667,2.667,0,0,1-.043.607,2.147,2.147,0,0,1-.173.564v.043a2.384,2.384,0,0,1-.867,1,2.453,2.453,0,0,1-1.214.347,2.2,2.2,0,0,1-.737-.13,2,2,0,0,1-.651-.39A2.583,2.583,0,0,1-7.626,29a3.258,3.258,0,0,1-.217-1.128,4.3,4.3,0,0,1,.087-.781,3.357,3.357,0,0,1,.3-.694,1.686,1.686,0,0,1,.824-.737,2.351,2.351,0,0,1,1.084-.26,2.265,2.265,0,0,1,.911.173,1.869,1.869,0,0,1,.737.564,4.118,4.118,0,0,1,.434.737,3.082,3.082,0,0,1,.173.867v.13Z" transform="translate(94.841 -17.292)"/><path class="c" d="M-9.038,39.661a8.493,8.493,0,0,0-.781-.911c-.26-.26-.477-.52-.737-.781l-8.153-8.023h-.564V44h2.038V34.239a6.042,6.042,0,0,0,.651.824,5.586,5.586,0,0,0,.694.737L-7.52,44h.564V29.946H-9.038Z" transform="translate(88.794 -8.825)"/><path class="c" d="M-14.445,30.757h1.388a8.357,8.357,0,0,0,1.041-.043,4.277,4.277,0,0,0,1.041-.13A3.93,3.93,0,0,0-8.46,29.2a4.747,4.747,0,0,0,1-2.732V25.9c0-1.952-.564-3.3-1.648-4.033a7.768,7.768,0,0,0-4.424-1.084h-5.942V34.834h4.987V30.757Zm.043-5.985h.737a2.179,2.179,0,0,1,1.041.26.93.93,0,0,1,.477.911.93.93,0,0,1-.477.911,2.573,2.573,0,0,1-1,.217H-14.4Z" transform="translate(88.606 -17.312)"/><path class="c" d="M.7,29.923-5.719,43.975h2.342l1.6-3.6H3.692l1.561,3.6H7.6L1.22,29.923Zm.781,5.334,1.388,3.209H-.948L.439,35.258c.087-.217.173-.477.26-.737a5.073,5.073,0,0,0,.217-.867c.087.347.173.607.26.867a4.45,4.45,0,0,1,.3.737" transform="translate(101.348 -8.846)"/><path class="c" d="M-4.908,25.4h3.686v9.455H3.765V25.4H7.5V20.8h-12.4Z" transform="translate(102.098 -17.292)"/><path class="c" d="M2.679,34.856H12V31.04H7.58V29.565h3.99v-3.6H7.58V24.621H12V20.8H2.679Z" transform="translate(109.126 -17.292)"/><path class="c" d="M-36.023,18.981A19.36,19.36,0,0,0-55.366,38.323,19.36,19.36,0,0,0-36.023,57.666,19.36,19.36,0,0,0-16.681,38.323,19.36,19.36,0,0,0-36.023,18.981m.954,31.183H-45.608V39.625h10.539Zm0-13.184H-45.608V26.44h10.539Zm2.646,13.184V39.625c5.291,0,7.893,2.342,7.893,5.291,0,2.906-2.6,5.248-7.893,5.248m0-13.184V26.44c5.291,0,7.893,2.342,7.893,5.291,0,2.906-2.6,5.248-7.893,5.248" transform="translate(55.366 -18.981)"/></g></g></svg>