<?xml version="1.0" encoding="utf-8"?>
<!-- Generator: Adobe Illustrator 24.2.1, SVG Export Plug-In . SVG Version: 6.00 Build 0)  -->
<svg version="1.1" id="Layer_1" xmlns="http://www.w3.org/2000/svg" xmlns:xlink="http://www.w3.org/1999/xlink" x="0px" y="0px"
	 viewBox="0 0 422.2 229.9" style="enable-background:new 0 0 422.2 229.9;" xml:space="preserve">
<style type="text/css">
	.st0{fill:#BDBDBD;}
	.st1{fill:url(#SVGID_1_);}
	.st2{fill:#808285;}
	.st3{fill:url(#SVGID_2_);}
	.st4{fill:#FFFFFF;}
</style>
<g>
	<g>
		<path class="st0" d="M347.5,46.9c-0.3-1.6-1.7-2.7-3.4-2.4c-1.6,0.3-2.7,1.8-2.4,3.4c0.4,2.7,1,11.3-2,14.7
			c-0.6,0.7-1.4,1.2-2.4,1.4l0.3-16.3c0-2.4-1.9-4.3-4.2-4.3c-2.4,0-4.3,2-4.2,4.3l0.8,30.9c-1-0.2-1.8-0.6-2.5-1.4
			c-3-3.4-2.4-12-2-14.7c0.3-1.6-0.8-3.1-2.4-3.4c-1.6-0.2-3.1,0.8-3.4,2.4c-0.2,1.3-1.9,13.3,3.3,19.5c1.8,2.1,4.2,3.3,7.1,3.5
			l0.3,13.5h6.4l0.5-28.1c2.8-0.2,5.2-1.4,6.9-3.5C349.4,60.3,347.7,48.3,347.5,46.9z"/>
		<path class="st0" d="M74.2,73.2c-0.2-1-1.1-1.7-2.1-1.6c-1,0.2-1.7,1.1-1.6,2.1c0.3,1.7,0.6,7.2-1.3,9.4c-0.4,0.5-0.9,0.8-1.5,0.9
			l0.2-10.4c0-1.5-1.2-2.7-2.7-2.7c-1.5,0-2.7,1.3-2.7,2.8l0.5,19.7c-0.6-0.1-1.2-0.4-1.6-0.9c-1.9-2.2-1.5-7.7-1.3-9.4
			c0.2-1-0.5-2-1.6-2.1c-1-0.2-2,0.5-2.1,1.6c-0.1,0.9-1.2,8.5,2.1,12.4c1.1,1.3,2.7,2.1,4.5,2.2l0.2,8.6h4.1l0.3-17.9
			c1.8-0.1,3.3-0.9,4.4-2.2C75.4,81.7,74.3,74,74.2,73.2z"/>
		<linearGradient id="SVGID_1_" gradientUnits="userSpaceOnUse" x1="211.1111" y1="46.5456" x2="211.1111" y2="163.905">
			<stop  offset="0" style="stop-color:#E5E5E5"/>
			<stop  offset="0.4215" style="stop-color:#F0F0EF"/>
			<stop  offset="1" style="stop-color:#FFFFFF"/>
		</linearGradient>
		<ellipse class="st1" cx="211.1" cy="155.2" rx="211.1" ry="74.7"/>
	</g>
	<g>
		<path class="st2" d="M175.3,76.9h-5.8c-4.8,0-8.7-3.9-8.7-8.7c0-1.2-1-2.2-2.2-2.2h-6.7c-1.8,0-3.2-1.5-3.2-3.2
			c0-1.8,1.5-3.2,3.2-3.2h6.7c4.8,0,8.7,3.9,8.7,8.7c0,1.2,1,2.2,2.2,2.2h5.8c1.8,0,3.2,1.5,3.2,3.2
			C178.5,75.4,177.1,76.9,175.3,76.9z"/>
		<linearGradient id="SVGID_2_" gradientUnits="userSpaceOnUse" x1="161.3609" y1="14.4206" x2="228.1458" y2="106.4248">
			<stop  offset="0" style="stop-color:#000000"/>
			<stop  offset="0.4684" style="stop-color:#2B2B2C"/>
			<stop  offset="1" style="stop-color:#414042"/>
		</linearGradient>
		<path class="st3" d="M194.3,0L194.3,0c-17.2,0-31.8,14.5-32.2,31.6C161.7,50,162,68.2,165,86.4c1.5,7.2,3.3,14.2,5.6,21.2
			c1,2.8,4.2,5,6.9,5c0.2,0,0.3,0,0.5,0c2.8,0,4-2.2,2.9-4.9l0,0c-0.7-1.9,0.2-3.3,2-3.3l0,0c1.8,0,3.9,1.5,4.7,3.4l0,0
			c1.2,2.7,4.5,4.8,7.3,4.8c0.2,0,0.3,0,0.5,0c2.8,0,3.8-2.1,2.6-4.8l0,0c-0.9-1.8,0-3.3,1.8-3.2l0,0c1.8,0,4,1.5,4.9,3.3l0,0
			c1.4,2.6,4.9,4.7,7.7,4.7c0.2,0,0.3,0,0.5,0c2.8,0,3.7-2,2.2-4.6l0,0c-1-1.8-0.2-3.2,1.6-3.1l0,0c1.8,0,4.1,1.5,5.1,3.2l0,0
			c1.5,2.5,5.3,4.5,8.1,4.5c0.1,0,0.2,0,0.3,0c2.9,0,3.6-2.1,1.9-4.7c-3.8-6.4-6.5-12.6-8.6-19.7c-4.1-18.6-2.4-37-0.3-55.8
			C225.5,14.8,212,0,194.3,0z"/>
		<g>
			<path class="st4" d="M168.2,38c3,2.1,8-1.7,5.6-10.1c-0.1-0.4-0.7-0.5-0.9-0.1C170.7,33.1,164.6,35.5,168.2,38z"/>
			<path class="st4" d="M181.9,26c-3.6,1.5,2.9,21.9,13,15.5c6.2-3.9,0.6-7.7-5.7-10.1C185.5,30,184.1,25.1,181.9,26z"/>
			<ellipse class="st4" cx="180.2" cy="48.2" rx="4.8" ry="7"/>
		</g>
		<path class="st2" d="M198.7,76.9h-5.8c-4.8,0-8.7-3.9-8.7-8.7c0-1.2-1-2.2-2.2-2.2h-6.7c-1.8,0-3.2-1.5-3.2-3.2
			c0-1.8,1.5-3.2,3.2-3.2h6.7c4.8,0,8.7,3.9,8.7,8.7c0,1.2,1,2.2,2.2,2.2h5.8c1.8,0,3.2,1.5,3.2,3.2C202,75.4,200.5,76.9,198.7,76.9
			z"/>
	</g>
</g>
</svg>
