<svg xmlns="http://www.w3.org/2000/svg" width="56" height="56" viewBox="0 0 56 56"><defs><style>.a{fill:#fff;}</style></defs><circle cx="28" cy="28" r="28"/><path class="a" d="M98.162,90.94a7.494,7.494,0,0,0-10.587,0L85.8,92.713,84.027,90.94A7.486,7.486,0,1,0,73.44,101.527l1.774,1.774L85.8,113.888,96.388,103.3l1.774-1.774A7.494,7.494,0,0,0,98.162,90.94Zm-5.3,12.361L85.8,110.359,78.742,103.3l-3.529-3.529a4.991,4.991,0,0,1,7.058-7.058L85.8,96.242l3.529-3.529a4.991,4.991,0,0,1,7.058,7.058Z" transform="translate(-57.801 -72.067)"/></svg>