<svg xmlns="http://www.w3.org/2000/svg" width="88.032" height="88.102" viewBox="0 0 88.032 88.102"><defs><style>.a{fill:#f0c38a;}.b{fill:#4c4371;}.c{fill:#efc38a;}.d{fill:#fefefe;}.e{fill:#7aabf0;}.f{fill:#a2cff0;}.g{fill:#d3e6f7;}.h{fill:#e7667c;}.i{fill:#4c4372;}</style></defs><g transform="translate(-37.86 -36.811)"><path class="a" d="M49.329,110.437a40.488,40.488,0,0,1-6.233-8.727,43.367,43.367,0,0,1-5.1-24.427,42.267,42.267,0,0,1,6.7-19.985A43.822,43.822,0,0,1,68.38,38.91,44.239,44.239,0,0,1,114.857,51.65a42,42,0,0,1,10.6,22.907,43.652,43.652,0,0,1-9.311,33.971c-.506.662-1.13,1.247-1.675,1.87-.506-.506-.312-1.13-.351-1.714,0-10.558-.039-21.115,0-31.673a4.111,4.111,0,0,0-1.364-3.234c-2.532-2.532-4.948-5.22-7.519-7.675a2.876,2.876,0,0,1-.857-2.182V55.467c0-1.753-.273-1.987-2.026-1.987-2.532,0-5.065-.078-7.6.039a3.842,3.842,0,0,1-3.311-1.441c-2.532-2.961-5.454-5.61-8.181-8.376-1.208-1.247-1.519-1.247-2.766,0-2.766,2.8-5.688,5.493-8.259,8.454a3.741,3.741,0,0,1-3.156,1.364c-2.688-.078-5.337-.039-8.025-.039-1.364,0-1.675.312-1.714,1.675-.039,2.8-.039,5.649,0,8.454a3.5,3.5,0,0,1-1.169,2.8c-2.688,2.532-5.1,5.337-7.753,7.908a2.957,2.957,0,0,0-.818,2.3v32.1C49.641,109.346,49.836,109.97,49.329,110.437Z"/><path class="b" d="M67.3,119.022c0-5.142.039-10.285.039-15.427V84.7a2.619,2.619,0,0,1,.818-1.948c2.8-2.8,5.571-5.688,8.376-8.493a1.878,1.878,0,0,0,.545-1.4c-.039-3.117,0-6.194,0-9.311,0-1.441.39-1.831,1.792-1.831h8.96a1.929,1.929,0,0,0,1.558-.662c3-3.117,6.038-6.194,9.077-9.272,1.169-1.208,1.6-1.208,2.766,0,3.039,3.078,6.077,6.194,9.077,9.272a1.982,1.982,0,0,0,1.558.662c3.039-.039,6.038-.039,9.077,0,1.286,0,1.675.429,1.714,1.714v9.389a1.878,1.878,0,0,0,.545,1.4c2.844,2.844,5.61,5.727,8.454,8.571a2.384,2.384,0,0,1,.74,1.87c-.039,11.1,0,22.167,0,33.27,0,.351.039.7.039,1.052,0,2.454-.039,4.909,0,7.363a1.411,1.411,0,0,1-1.13,1.6c-3.039.039-6.116,0-9.155,0a2.732,2.732,0,0,0-1.13.078h-.078l-.078.039a5.831,5.831,0,0,1-2.182.351H81.13a5.961,5.961,0,0,1-2.182-.351l-.078-.039h-.078c-2.571-.156-5.1-.039-7.675-.078H68.469a1.354,1.354,0,0,1-1.13-1.6C67.339,123.931,67.3,121.477,67.3,119.022Z" transform="translate(-17.971 -8.585)"/><path class="c" d="M97.1,249.039c.429,0,.857-.039,1.247-.039h39.581c.351,0,.7.039,1.052.039a37.181,37.181,0,0,1-8.493,3.623,43.427,43.427,0,0,1-16.129,1.636,42.232,42.232,0,0,1-17.025-5.026A1.323,1.323,0,0,1,97.1,249.039Z" transform="translate(-36.161 -129.525)"/><path class="d" d="M135.382,118.409c-1.831,1.909-3.662,3.779-5.454,5.688-.506.545-.7.039-.974-.234-2.8-2.844-5.571-5.688-8.337-8.532-1.286-1.325-1.714-1.325-3,0-2.766,2.8-5.532,5.61-8.259,8.454-.545.584-.818.545-1.364-.039-2.844-2.961-5.688-5.844-8.571-8.766a1.916,1.916,0,0,1-.623-1.48c0-9.155.039-18.31,0-27.426,0-.662.039-.974.857-.974,11.765.039,23.492.039,35.257.039.156,0,.273.039.429.039a8.3,8.3,0,0,1,.078,4.87,2.994,2.994,0,0,1-1.831.273H104.761a6.858,6.858,0,0,0-1.558.078.854.854,0,0,0-.74.9.833.833,0,0,0,.74.779,6.974,6.974,0,0,0,1.558.078h28.712a3.326,3.326,0,0,1,1.948.273c.545,1.052.273,2.221.273,3.311.039,2.727,0,2.727-2.688,2.727H104.6a2.742,2.742,0,0,0-1.558.234c-.429.273-.74.584-.584,1.13.156.584.662.662,1.169.74.467.039.9.039,1.364.039h28.6a2.953,2.953,0,0,1,1.831.273,2.642,2.642,0,0,1,.273,1.714c-.078,1.325.273,2.688-.234,4.013a2.826,2.826,0,0,1-1.948.312H104.994a7.863,7.863,0,0,0-1.364.039c-.506.039-1.013.156-1.169.74-.156.545.195.857.584,1.13a2.648,2.648,0,0,0,1.558.234h28.79c.467,0,.9,0,1.364.039a.852.852,0,0,1,.857.779,59.524,59.524,0,0,1-.039,7.908A2.978,2.978,0,0,1,135.382,118.409Z" transform="translate(-37.199 -29.477)"/><path class="e" d="M135.241,197.654H79.181c-.078-.39.234-.506.39-.662q8.473-8.707,16.986-17.336c3.272-3.35,6.584-6.623,9.856-9.973.506-.506.818-.545,1.325,0,2.766,2.883,5.532,5.688,8.337,8.532,3.9,3.974,7.831,7.908,11.726,11.843C130.255,192.472,132.67,194.965,135.241,197.654Z" transform="translate(-25.215 -80.866)"/><path class="f" d="M74,180.919V145c1.4,1.325,2.8,2.649,4.169,4.013,4.324,4.4,8.649,8.882,12.973,13.285.39.39.623.623.078,1.13-5.61,5.688-11.181,11.415-16.752,17.1C74.351,180.608,74.234,180.724,74,180.919Z" transform="translate(-22.06 -66.041)"/><path class="e" d="M213.595,150.848c1.87-1.714,3.7-3.389,5.376-4.948v35.023c-1.675-1.558-3.545-3.272-5.415-4.987a5.3,5.3,0,0,1-.156-1.558V152.8A8.474,8.474,0,0,1,213.595,150.848Z" transform="translate(-107.153 -66.59)"/><path class="f" d="M194.875,158.6c.273.312.156.662.156,1.013v23.1c0,.351.117.7-.156,1.013-3.974-4.052-7.908-8.064-11.882-12.077-.39-.39-.312-.584.039-.9Q188.934,164.677,194.875,158.6Z" transform="translate(-88.433 -74.343)"/><path class="g" d="M141.73,118.572c0-2.61-.039-5.22,0-7.831,0-.9-.273-1.13-1.13-1.091-10.051.039-20.141,0-30.192,0-.39,0-.857.156-1.208-.195.506-.506,1.208-.351,1.792-.351H139.9a7.977,7.977,0,0,0,1.364-.039c1.208-.117,1.48-.662.779-1.636a1.256,1.256,0,0,1-.312-.545V101.2c.039-.078.039-.156.078-.195.234-.467.9-.818.545-1.48-.39-.7-1.091-.506-1.714-.506H110.992c-.623,0-1.286.156-1.792-.39.351-.312.818-.156,1.208-.156,10.012,0,20.024-.039,30.037.039,1.13,0,1.364-.351,1.325-1.364-.078-1.441-.039-2.883-.039-4.324a.519.519,0,0,1,.117-.195c1.052-1.052,1.052-1.169-.117-2.415V85.419c1.013,0,2.026.039,3.039-.039.818-.078.974.195.974.974-.039,6.662,0,13.285,0,19.946v7.48a1.878,1.878,0,0,1-.545,1.4C143.989,116.274,142.86,117.442,141.73,118.572Z" transform="translate(-43.547 -29.64)"/><path class="h" d="M131.6,66.684c1.48-1.441,3-2.844,4.48-4.285.857-.818,1.675-1.714,2.532-2.532.234-.234.467-.545.857-.156,2.337,2.376,4.675,4.753,7.207,7.285h-14.8A1.951,1.951,0,0,1,131.6,66.684Z" transform="translate(-57.221 -13.866)"/><path class="h" d="M82.093,119.4v13.168c-.74-.7-1.48-1.4-2.182-2.1-1.325-1.325-2.61-2.649-3.935-3.974-.312-.312-.506-.545-.117-.935l5.961-6.077A2.483,2.483,0,0,1,82.093,119.4Z" transform="translate(-23.063 -50.414)"/><path class="h" d="M209.6,120.4c1.948,1.831,4.052,3.818,6.155,5.766.429.39.273.623-.078.935-2.1,1.948-4.169,3.9-6.077,5.649Z" transform="translate(-104.833 -51.025)"/><path class="i" d="M107.711,119.4h31.907c.779,0,1.519.039,1.753.935.234.935-.429,1.325-1.13,1.636-4.324,0-8.649-.039-12.973-.039H108.49c-.74.039-1.364-.156-1.6-.9A1.309,1.309,0,0,1,107.711,119.4Z" transform="translate(-42.097 -50.414)"/><path class="b" d="M140.277,97.8a1.369,1.369,0,0,1,1.208,1.247c.039.74-.467,1.169-1.208,1.364-7.908,0-15.817-.039-23.725-.039h-8.025c-1.091,0-1.714-.506-1.636-1.325.078-.974.74-1.208,1.636-1.208h29.881C138.991,97.839,139.653,97.8,140.277,97.8Z" transform="translate(-42.133 -37.229)"/><path class="i" d="M140.217,140.7c.74.312,1.364.7,1.13,1.6s-.974.974-1.753.974H107.687c-.662-.351-1.091-.857-.818-1.6.273-.818.935-.935,1.714-.935h29.959C139.088,140.739,139.672,140.7,140.217,140.7Z" transform="translate(-42.074 -63.416)"/></g></svg>